<?xml version="1.0" encoding="UTF-8" standalone="no"?>
<!DOCTYPE svg PUBLIC "-//W3C//DTD SVG 1.1//EN"
 "http://www.w3.org/Graphics/SVG/1.1/DTD/svg11.dtd">
<!-- Generated by graphviz version 2.40.1 (20161225.0304)
 -->
<!-- Title: dependency&#45;cruiser output Pages: 1 -->
<svg width="418pt" height="365pt"
 viewBox="0.00 0.00 418.07 365.00" xmlns="http://www.w3.org/2000/svg" xmlns:xlink="http://www.w3.org/1999/xlink">
<g id="graph0" class="graph" transform="scale(1 1) rotate(0) translate(4 361)">
<title>dependency&#45;cruiser output</title>
<polygon fill="#ffffff" stroke="transparent" points="-4,4 -4,-361 414.0728,-361 414.0728,4 -4,4"/>
<g id="clust1" class="cluster">
<title>cluster_/src</title>
<path fill="none" stroke="#000000" stroke-width="2" d="M20,-8C20,-8 390.0728,-8 390.0728,-8 396.0728,-8 402.0728,-14 402.0728,-20 402.0728,-20 402.0728,-337 402.0728,-337 402.0728,-343 396.0728,-349 390.0728,-349 390.0728,-349 20,-349 20,-349 14,-349 8,-343 8,-337 8,-337 8,-20 8,-20 8,-14 14,-8 20,-8"/>
<text text-anchor="middle" x="205.0364" y="-337.8" font-family="Helvetica,sans-Serif" font-weight="bold" font-size="9.00" fill="#000000">src</text>
</g>
<!-- src/App.ts -->
<g id="node1" class="node">
<title>src/App.ts</title>
<g id="a_node1"><a xlink:href="src/App.ts" xlink:title="App.ts">
<path fill="#ffffcc" stroke="#000000" d="M168.1095,-69.5C168.1095,-69.5 125.4428,-69.5 125.4428,-69.5 122.6095,-69.5 119.7761,-66.6667 119.7761,-63.8333 119.7761,-63.8333 119.7761,-58.1667 119.7761,-58.1667 119.7761,-55.3333 122.6095,-52.5 125.4428,-52.5 125.4428,-52.5 168.1095,-52.5 168.1095,-52.5 170.9428,-52.5 173.7761,-55.3333 173.7761,-58.1667 173.7761,-58.1667 173.7761,-63.8333 173.7761,-63.8333 173.7761,-66.6667 170.9428,-69.5 168.1095,-69.5"/>
<text text-anchor="middle" x="146.7761" y="-58.3" font-family="Helvetica,sans-Serif" font-size="9.00" fill="#000000">App.ts</text>
</a>
</g>
</g>
<!-- src/Scale.ts -->
<g id="node10" class="node">
<title>src/Scale.ts</title>
<g id="a_node10"><a xlink:href="src/Scale.ts" xlink:title="Scale.ts">
<path fill="#ffffcc" stroke="#000000" d="M275.8826,-33.5C275.8826,-33.5 233.216,-33.5 233.216,-33.5 230.3826,-33.5 227.5493,-30.6667 227.5493,-27.8333 227.5493,-27.8333 227.5493,-22.1667 227.5493,-22.1667 227.5493,-19.3333 230.3826,-16.5 233.216,-16.5 233.216,-16.5 275.8826,-16.5 275.8826,-16.5 278.716,-16.5 281.5493,-19.3333 281.5493,-22.1667 281.5493,-22.1667 281.5493,-27.8333 281.5493,-27.8333 281.5493,-30.6667 278.716,-33.5 275.8826,-33.5"/>
<text text-anchor="middle" x="254.5493" y="-22.3" font-family="Helvetica,sans-Serif" font-size="9.00" fill="#000000">Scale.ts</text>
</a>
</g>
</g>
<!-- src/App.ts&#45;&gt;src/Scale.ts -->
<g id="edge1" class="edge">
<title>src/App.ts&#45;&gt;src/Scale.ts</title>
<path fill="none" stroke="#000000" d="M172.3169,-52.4685C186.3076,-47.7951 203.8622,-41.9313 219.1554,-36.8228"/>
<polygon fill="#000000" stroke="#000000" points="220.4425,-40.083 228.8184,-33.595 218.2247,-33.4437 220.4425,-40.083"/>
</g>
<!-- src/Color.ts -->
<g id="node2" class="node">
<title>src/Color.ts</title>
<g id="a_node2"><a xlink:href="src/Color.ts" xlink:title="Color.ts">
<path fill="#ffffcc" stroke="#000000" d="M275.8826,-149.5C275.8826,-149.5 233.216,-149.5 233.216,-149.5 230.3826,-149.5 227.5493,-146.6667 227.5493,-143.8333 227.5493,-143.8333 227.5493,-138.1667 227.5493,-138.1667 227.5493,-135.3333 230.3826,-132.5 233.216,-132.5 233.216,-132.5 275.8826,-132.5 275.8826,-132.5 278.716,-132.5 281.5493,-135.3333 281.5493,-138.1667 281.5493,-138.1667 281.5493,-143.8333 281.5493,-143.8333 281.5493,-146.6667 278.716,-149.5 275.8826,-149.5"/>
<text text-anchor="middle" x="254.5493" y="-138.3" font-family="Helvetica,sans-Serif" font-size="9.00" fill="#000000">Color.ts</text>
</a>
</g>
</g>
<!-- src/Draggable.ts -->
<g id="node3" class="node">
<title>src/Draggable.ts</title>
<g id="a_node3"><a xlink:href="src/Draggable.ts" xlink:title="Draggable.ts">
<path fill="#ffffcc" stroke="#000000" d="M282.412,-236.5C282.412,-236.5 226.6867,-236.5 226.6867,-236.5 223.8533,-236.5 221.02,-233.6667 221.02,-230.8333 221.02,-230.8333 221.02,-225.1667 221.02,-225.1667 221.02,-222.3333 223.8533,-219.5 226.6867,-219.5 226.6867,-219.5 282.412,-219.5 282.412,-219.5 285.2453,-219.5 288.0786,-222.3333 288.0786,-225.1667 288.0786,-225.1667 288.0786,-230.8333 288.0786,-230.8333 288.0786,-233.6667 285.2453,-236.5 282.412,-236.5"/>
<text text-anchor="middle" x="254.5493" y="-225.3" font-family="Helvetica,sans-Serif" font-size="9.00" fill="#000000">Draggable.ts</text>
</a>
</g>
</g>
<!-- src/Keyboard.tsx -->
<g id="node4" class="node">
<title>src/Keyboard.tsx</title>
<g id="a_node4"><a xlink:href="src/Keyboard.tsx" xlink:title="Keyboard.tsx">
<path fill="#ffffcc" stroke="#000000" d="M175.1389,-238.5C175.1389,-238.5 118.4133,-238.5 118.4133,-238.5 115.58,-238.5 112.7467,-235.6667 112.7467,-232.8333 112.7467,-232.8333 112.7467,-227.1667 112.7467,-227.1667 112.7467,-224.3333 115.58,-221.5 118.4133,-221.5 118.4133,-221.5 175.1389,-221.5 175.1389,-221.5 177.9722,-221.5 180.8056,-224.3333 180.8056,-227.1667 180.8056,-227.1667 180.8056,-232.8333 180.8056,-232.8333 180.8056,-235.6667 177.9722,-238.5 175.1389,-238.5"/>
<text text-anchor="middle" x="146.7761" y="-227.3" font-family="Helvetica,sans-Serif" font-size="9.00" fill="#000000">Keyboard.tsx</text>
</a>
</g>
</g>
<!-- src/Keyboard.tsx&#45;&gt;src/Color.ts -->
<g id="edge2" class="edge">
<title>src/Keyboard.tsx&#45;&gt;src/Color.ts</title>
<path fill="none" stroke="#000000" d="M157.1099,-221.4663C175.3294,-206.4204 213.3894,-174.9902 236.1762,-156.1726"/>
<polygon fill="#000000" stroke="#000000" points="238.6065,-158.7049 244.0885,-149.6386 234.1492,-153.3075 238.6065,-158.7049"/>
</g>
<!-- src/Keyboard.tsx&#45;&gt;src/Draggable.ts -->
<g id="edge3" class="edge">
<title>src/Keyboard.tsx&#45;&gt;src/Draggable.ts</title>
<path fill="none" stroke="#000000" d="M180.8762,-229.3672C190.3047,-229.1922 200.6717,-228.9998 210.576,-228.816"/>
<polygon fill="#000000" stroke="#000000" points="210.7377,-232.3137 220.671,-228.6287 210.6078,-225.3149 210.7377,-232.3137"/>
</g>
<!-- src/Size.ts -->
<g id="node11" class="node">
<title>src/Size.ts</title>
<g id="a_node11"><a xlink:href="src/Size.ts" xlink:title="Size.ts">
<path fill="#ffffcc" stroke="#000000" d="M275.8826,-265.5C275.8826,-265.5 233.216,-265.5 233.216,-265.5 230.3826,-265.5 227.5493,-262.6667 227.5493,-259.8333 227.5493,-259.8333 227.5493,-254.1667 227.5493,-254.1667 227.5493,-251.3333 230.3826,-248.5 233.216,-248.5 233.216,-248.5 275.8826,-248.5 275.8826,-248.5 278.716,-248.5 281.5493,-251.3333 281.5493,-254.1667 281.5493,-254.1667 281.5493,-259.8333 281.5493,-259.8333 281.5493,-262.6667 278.716,-265.5 275.8826,-265.5"/>
<text text-anchor="middle" x="254.5493" y="-254.3" font-family="Helvetica,sans-Serif" font-size="9.00" fill="#000000">Size.ts</text>
</a>
</g>
</g>
<!-- src/Keyboard.tsx&#45;&gt;src/Size.ts -->
<g id="edge4" class="edge">
<title>src/Keyboard.tsx&#45;&gt;src/Size.ts</title>
<path fill="none" stroke="#000000" d="M180.8762,-238.543C192.5142,-241.4586 205.5821,-244.7324 217.4446,-247.7043"/>
<polygon fill="#000000" stroke="#000000" points="216.9419,-251.1865 227.4927,-250.2216 218.6431,-244.3963 216.9419,-251.1865"/>
</g>
<!-- src/Synth.ts -->
<g id="node12" class="node">
<title>src/Synth.ts</title>
<g id="a_node12"><a xlink:href="src/Synth.ts" xlink:title="Synth.ts">
<path fill="#ffffcc" stroke="#000000" d="M382.399,-207.5C382.399,-207.5 339.7323,-207.5 339.7323,-207.5 336.899,-207.5 334.0657,-204.6667 334.0657,-201.8333 334.0657,-201.8333 334.0657,-196.1667 334.0657,-196.1667 334.0657,-193.3333 336.899,-190.5 339.7323,-190.5 339.7323,-190.5 382.399,-190.5 382.399,-190.5 385.2323,-190.5 388.0657,-193.3333 388.0657,-196.1667 388.0657,-196.1667 388.0657,-201.8333 388.0657,-201.8333 388.0657,-204.6667 385.2323,-207.5 382.399,-207.5"/>
<text text-anchor="middle" x="361.0657" y="-196.3" font-family="Helvetica,sans-Serif" font-size="9.00" fill="#000000">Synth.ts</text>
</a>
</g>
</g>
<!-- src/Keyboard.tsx&#45;&gt;src/Synth.ts -->
<g id="edge5" class="edge">
<title>src/Keyboard.tsx&#45;&gt;src/Synth.ts</title>
<path fill="none" stroke="#000000" d="M150.6505,-238.7238C159.3787,-257.1414 182.5483,-299.6404 217.04,-316 247.1649,-330.2883 263.1068,-332.5365 292.0586,-316 329.314,-294.7207 348.4691,-244.5945 356.4346,-217.3704"/>
<polygon fill="#000000" stroke="#000000" points="359.8563,-218.1258 359.1078,-207.5574 353.1024,-216.2859 359.8563,-218.1258"/>
</g>
<!-- src/mod&#45;math.ts -->
<g id="node17" class="node">
<title>src/mod&#45;math.ts</title>
<g id="a_node17"><a xlink:href="src/mod-math.ts" xlink:title="mod&#45;math.ts">
<path fill="#ffffcc" stroke="#000000" d="M388.4132,-116.5C388.4132,-116.5 333.7182,-116.5 333.7182,-116.5 330.8848,-116.5 328.0515,-113.6667 328.0515,-110.8333 328.0515,-110.8333 328.0515,-105.1667 328.0515,-105.1667 328.0515,-102.3333 330.8848,-99.5 333.7182,-99.5 333.7182,-99.5 388.4132,-99.5 388.4132,-99.5 391.2465,-99.5 394.0798,-102.3333 394.0798,-105.1667 394.0798,-105.1667 394.0798,-110.8333 394.0798,-110.8333 394.0798,-113.6667 391.2465,-116.5 388.4132,-116.5"/>
<text text-anchor="middle" x="361.0657" y="-105.3" font-family="Helvetica,sans-Serif" font-size="9.00" fill="#000000">mod&#45;math.ts</text>
</a>
</g>
</g>
<!-- src/Keyboard.tsx&#45;&gt;src/mod&#45;math.ts -->
<g id="edge6" class="edge">
<title>src/Keyboard.tsx&#45;&gt;src/mod&#45;math.ts</title>
<path fill="none" stroke="#000000" d="M157.5562,-238.7521C183.0013,-258.284 247.966,-301.4732 292.0586,-272 326.8483,-248.7452 311.8147,-223.5649 328.0586,-185 336.5909,-164.7432 346.5521,-141.569 353.2818,-125.9812"/>
<polygon fill="#000000" stroke="#000000" points="356.6117,-127.0986 357.3672,-116.5308 350.1864,-124.321 356.6117,-127.0986"/>
</g>
<!-- src/playable.tsx -->
<g id="node18" class="node">
<title>src/playable.tsx</title>
<g id="a_node18"><a xlink:href="src/playable.tsx" xlink:title="playable.tsx">
<path fill="#ffffcc" stroke="#000000" d="M280.4113,-207.5C280.4113,-207.5 228.6874,-207.5 228.6874,-207.5 225.854,-207.5 223.0207,-204.6667 223.0207,-201.8333 223.0207,-201.8333 223.0207,-196.1667 223.0207,-196.1667 223.0207,-193.3333 225.854,-190.5 228.6874,-190.5 228.6874,-190.5 280.4113,-190.5 280.4113,-190.5 283.2446,-190.5 286.0779,-193.3333 286.0779,-196.1667 286.0779,-196.1667 286.0779,-201.8333 286.0779,-201.8333 286.0779,-204.6667 283.2446,-207.5 280.4113,-207.5"/>
<text text-anchor="middle" x="254.5493" y="-196.3" font-family="Helvetica,sans-Serif" font-size="9.00" fill="#000000">playable.tsx</text>
</a>
</g>
</g>
<!-- src/Keyboard.tsx&#45;&gt;src/playable.tsx -->
<g id="edge7" class="edge">
<title>src/Keyboard.tsx&#45;&gt;src/playable.tsx</title>
<path fill="none" stroke="#000000" d="M176.5109,-221.4471C188.4083,-218.0249 202.2861,-214.0331 215.0122,-210.3725"/>
<polygon fill="#000000" stroke="#000000" points="216.2688,-213.653 224.9116,-207.525 214.3337,-206.9258 216.2688,-213.653"/>
</g>
<!-- src/Layout.tsx -->
<g id="node5" class="node">
<title>src/Layout.tsx</title>
<g id="a_node5"><a xlink:href="src/Layout.tsx" xlink:title="Layout.tsx">
<path fill="#ffffcc" stroke="#000000" d="M169.6324,-98.5C169.6324,-98.5 123.9198,-98.5 123.9198,-98.5 121.0865,-98.5 118.2532,-95.6667 118.2532,-92.8333 118.2532,-92.8333 118.2532,-87.1667 118.2532,-87.1667 118.2532,-84.3333 121.0865,-81.5 123.9198,-81.5 123.9198,-81.5 169.6324,-81.5 169.6324,-81.5 172.4657,-81.5 175.2991,-84.3333 175.2991,-87.1667 175.2991,-87.1667 175.2991,-92.8333 175.2991,-92.8333 175.2991,-95.6667 172.4657,-98.5 169.6324,-98.5"/>
<text text-anchor="middle" x="146.7761" y="-87.3" font-family="Helvetica,sans-Serif" font-size="9.00" fill="#000000">Layout.tsx</text>
</a>
</g>
</g>
<!-- src/WindowSize.ts -->
<g id="node13" class="node">
<title>src/WindowSize.ts</title>
<g id="a_node13"><a xlink:href="src/WindowSize.ts" xlink:title="WindowSize.ts">
<path fill="#ffffcc" stroke="#000000" d="M286.4012,-62.5C286.4012,-62.5 222.6974,-62.5 222.6974,-62.5 219.8641,-62.5 217.0308,-59.6667 217.0308,-56.8333 217.0308,-56.8333 217.0308,-51.1667 217.0308,-51.1667 217.0308,-48.3333 219.8641,-45.5 222.6974,-45.5 222.6974,-45.5 286.4012,-45.5 286.4012,-45.5 289.2345,-45.5 292.0679,-48.3333 292.0679,-51.1667 292.0679,-51.1667 292.0679,-56.8333 292.0679,-56.8333 292.0679,-59.6667 289.2345,-62.5 286.4012,-62.5"/>
<text text-anchor="middle" x="254.5493" y="-51.3" font-family="Helvetica,sans-Serif" font-size="9.00" fill="#000000">WindowSize.ts</text>
</a>
</g>
</g>
<!-- src/Layout.tsx&#45;&gt;src/WindowSize.ts -->
<g id="edge8" class="edge">
<title>src/Layout.tsx&#45;&gt;src/WindowSize.ts</title>
<path fill="none" stroke="#000000" d="M172.3169,-81.4685C186.3076,-76.7951 203.8622,-70.9313 219.1554,-65.8228"/>
<polygon fill="#000000" stroke="#000000" points="220.4425,-69.083 228.8184,-62.595 218.2247,-62.4437 220.4425,-69.083"/>
</g>
<!-- src/Pie.tsx -->
<g id="node6" class="node">
<title>src/Pie.tsx</title>
<g id="a_node6"><a xlink:href="src/Pie.tsx" xlink:title="Pie.tsx">
<path fill="#ffffcc" stroke="#000000" d="M168.1095,-127.5C168.1095,-127.5 125.4428,-127.5 125.4428,-127.5 122.6095,-127.5 119.7761,-124.6667 119.7761,-121.8333 119.7761,-121.8333 119.7761,-116.1667 119.7761,-116.1667 119.7761,-113.3333 122.6095,-110.5 125.4428,-110.5 125.4428,-110.5 168.1095,-110.5 168.1095,-110.5 170.9428,-110.5 173.7761,-113.3333 173.7761,-116.1667 173.7761,-116.1667 173.7761,-121.8333 173.7761,-121.8333 173.7761,-124.6667 170.9428,-127.5 168.1095,-127.5"/>
<text text-anchor="middle" x="146.7761" y="-116.3" font-family="Helvetica,sans-Serif" font-size="9.00" fill="#000000">Pie.tsx</text>
</a>
</g>
</g>
<!-- src/Pie.tsx&#45;&gt;src/Color.ts -->
<g id="edge9" class="edge">
<title>src/Pie.tsx&#45;&gt;src/Color.ts</title>
<path fill="none" stroke="#000000" d="M173.9719,-124.5515C187.1185,-127.2352 203.1008,-130.4977 217.3543,-133.4073"/>
<polygon fill="#000000" stroke="#000000" points="216.8643,-136.8794 227.3623,-135.4502 218.2644,-130.0208 216.8643,-136.8794"/>
</g>
<!-- src/Rotatable.ts -->
<g id="node9" class="node">
<title>src/Rotatable.ts</title>
<g id="a_node9"><a xlink:href="src/Rotatable.ts" xlink:title="Rotatable.ts">
<path fill="#ffffcc" stroke="#000000" d="M280.9105,-91.5C280.9105,-91.5 228.1881,-91.5 228.1881,-91.5 225.3548,-91.5 222.5215,-88.6667 222.5215,-85.8333 222.5215,-85.8333 222.5215,-80.1667 222.5215,-80.1667 222.5215,-77.3333 225.3548,-74.5 228.1881,-74.5 228.1881,-74.5 280.9105,-74.5 280.9105,-74.5 283.7438,-74.5 286.5772,-77.3333 286.5772,-80.1667 286.5772,-80.1667 286.5772,-85.8333 286.5772,-85.8333 286.5772,-88.6667 283.7438,-91.5 280.9105,-91.5"/>
<text text-anchor="middle" x="254.5493" y="-80.3" font-family="Helvetica,sans-Serif" font-size="9.00" fill="#000000">Rotatable.ts</text>
</a>
</g>
</g>
<!-- src/Pie.tsx&#45;&gt;src/Rotatable.ts -->
<g id="edge10" class="edge">
<title>src/Pie.tsx&#45;&gt;src/Rotatable.ts</title>
<path fill="none" stroke="#000000" d="M172.3169,-110.4685C186.3076,-105.7951 203.8622,-99.9313 219.1554,-94.8228"/>
<polygon fill="#000000" stroke="#000000" points="220.4425,-98.083 228.8184,-91.595 218.2247,-91.4437 220.4425,-98.083"/>
</g>
<!-- src/Pie.tsx&#45;&gt;src/Size.ts -->
<g id="edge11" class="edge">
<title>src/Pie.tsx&#45;&gt;src/Size.ts</title>
<path fill="none" stroke="#000000" d="M154.5248,-127.6467C161.9441,-136.2075 173.1457,-149.897 181.04,-163 201.161,-196.3968 188.5805,-216.3494 217.04,-243 217.4998,-243.4306 217.9741,-243.8482 218.4612,-244.2533"/>
<polygon fill="#000000" stroke="#000000" points="216.8984,-247.4054 227.2247,-249.7756 220.6303,-241.4831 216.8984,-247.4054"/>
</g>
<!-- src/Pie.tsx&#45;&gt;src/Synth.ts -->
<g id="edge12" class="edge">
<title>src/Pie.tsx&#45;&gt;src/Synth.ts</title>
<path fill="none" stroke="#000000" d="M173.9397,-118.1481C210.0704,-117.4136 271.7455,-117.6639 292.0586,-127 317.5446,-138.7136 338.4089,-164.4347 350.2949,-181.7443"/>
<polygon fill="#000000" stroke="#000000" points="347.5328,-183.9146 355.9469,-190.353 353.3843,-180.0727 347.5328,-183.9146"/>
</g>
<!-- src/Pie.tsx&#45;&gt;src/mod&#45;math.ts -->
<g id="edge13" class="edge">
<title>src/Pie.tsx&#45;&gt;src/mod&#45;math.ts</title>
<path fill="none" stroke="#000000" d="M173.7997,-117.409C186.8611,-116.6535 202.7644,-115.7532 217.04,-115 250.8827,-113.2143 289.2079,-111.3597 317.8111,-110.0085"/>
<polygon fill="#000000" stroke="#000000" points="318.0586,-113.5008 327.883,-109.5345 317.7294,-106.5085 318.0586,-113.5008"/>
</g>
<!-- src/Pie.tsx&#45;&gt;src/playable.tsx -->
<g id="edge14" class="edge">
<title>src/Pie.tsx&#45;&gt;src/playable.tsx</title>
<path fill="none" stroke="#000000" d="M158.3097,-127.5614C176.5263,-141.0836 212.1874,-167.5548 234.6128,-184.2012"/>
<polygon fill="#000000" stroke="#000000" points="232.6562,-187.1076 242.7719,-190.2576 236.8284,-181.4869 232.6562,-187.1076"/>
</g>
<!-- src/Playable.tsx -->
<g id="node7" class="node">
<title>src/Playable.tsx</title>
<g id="a_node7"><a xlink:href="src/Playable.tsx" xlink:title="Playable.tsx">
<path fill="#ffffcc" stroke="#000000" d="M280.9088,-309.5C280.9088,-309.5 228.1898,-309.5 228.1898,-309.5 225.3565,-309.5 222.5232,-306.6667 222.5232,-303.8333 222.5232,-303.8333 222.5232,-298.1667 222.5232,-298.1667 222.5232,-295.3333 225.3565,-292.5 228.1898,-292.5 228.1898,-292.5 280.9088,-292.5 280.9088,-292.5 283.7421,-292.5 286.5755,-295.3333 286.5755,-298.1667 286.5755,-298.1667 286.5755,-303.8333 286.5755,-303.8333 286.5755,-306.6667 283.7421,-309.5 280.9088,-309.5"/>
<text text-anchor="middle" x="254.5493" y="-298.3" font-family="Helvetica,sans-Serif" font-size="9.00" fill="#000000">Playable.tsx</text>
</a>
</g>
</g>
<!-- src/Playable.tsx&#45;&gt;src/Synth.ts -->
<g id="edge15" class="edge">
<title>src/Playable.tsx&#45;&gt;src/Synth.ts</title>
<path fill="none" stroke="#000000" d="M276.5204,-292.4241C281.8756,-289.8166 287.3987,-286.6559 292.0586,-283 316.4629,-263.8536 337.9743,-234.6695 350.2487,-216.2275"/>
<polygon fill="#000000" stroke="#000000" points="353.2912,-217.9683 355.7918,-207.6728 347.4166,-214.1618 353.2912,-217.9683"/>
</g>
<!-- src/Presets.tsx -->
<g id="node8" class="node">
<title>src/Presets.tsx</title>
<g id="a_node8"><a xlink:href="src/Presets.tsx" xlink:title="Presets.tsx">
<path fill="#ffffcc" stroke="#000000" d="M70.6036,-149.5C70.6036,-149.5 21.9086,-149.5 21.9086,-149.5 19.0753,-149.5 16.2419,-146.6667 16.2419,-143.8333 16.2419,-143.8333 16.2419,-138.1667 16.2419,-138.1667 16.2419,-135.3333 19.0753,-132.5 21.9086,-132.5 21.9086,-132.5 70.6036,-132.5 70.6036,-132.5 73.4369,-132.5 76.2703,-135.3333 76.2703,-138.1667 76.2703,-138.1667 76.2703,-143.8333 76.2703,-143.8333 76.2703,-146.6667 73.4369,-149.5 70.6036,-149.5"/>
<text text-anchor="middle" x="46.2561" y="-138.3" font-family="Helvetica,sans-Serif" font-size="9.00" fill="#000000">Presets.tsx</text>
</a>
</g>
</g>
<!-- src/Presets.tsx&#45;&gt;src/App.ts -->
<g id="edge16" class="edge">
<title>src/Presets.tsx&#45;&gt;src/App.ts</title>
<path fill="none" stroke="#000000" d="M57.5144,-132.3502C63.3583,-127.7002 70.5111,-121.7527 76.5122,-116 93.778,-99.4488 93.1203,-90.0002 112.5122,-76 113.2493,-75.4679 114.0082,-74.949 114.7844,-74.4437"/>
<polygon fill="#000000" stroke="#000000" points="116.5252,-77.4804 123.5521,-69.5511 113.1141,-71.3678 116.5252,-77.4804"/>
</g>
<!-- src/Presets.tsx&#45;&gt;src/Color.ts -->
<g id="edge17" class="edge">
<title>src/Presets.tsx&#45;&gt;src/Color.ts</title>
<path fill="none" stroke="#000000" d="M76.5437,-141C113.8309,-141 177.1417,-141 217.3485,-141"/>
<polygon fill="#000000" stroke="#000000" points="217.5389,-144.5001 227.5388,-141 217.5388,-137.5001 217.5389,-144.5001"/>
</g>
<!-- src/Presets.tsx&#45;&gt;src/Size.ts -->
<g id="edge18" class="edge">
<title>src/Presets.tsx&#45;&gt;src/Size.ts</title>
<path fill="none" stroke="#000000" d="M48.8181,-149.6353C55.4526,-170.2927 75.325,-222.5102 112.5122,-245 144.0512,-264.0739 186.9692,-265.0155 217.3502,-262.467"/>
<polygon fill="#000000" stroke="#000000" points="217.9342,-265.9261 227.5343,-261.4441 217.2346,-258.9611 217.9342,-265.9261"/>
</g>
<!-- src/coords.ts -->
<g id="node14" class="node">
<title>src/coords.ts</title>
<g id="a_node14"><a xlink:href="src/coords.ts" xlink:title="coords.ts">
<path fill="#ffffcc" stroke="#000000" d="M382.399,-87.5C382.399,-87.5 339.7323,-87.5 339.7323,-87.5 336.899,-87.5 334.0657,-84.6667 334.0657,-81.8333 334.0657,-81.8333 334.0657,-76.1667 334.0657,-76.1667 334.0657,-73.3333 336.899,-70.5 339.7323,-70.5 339.7323,-70.5 382.399,-70.5 382.399,-70.5 385.2323,-70.5 388.0657,-73.3333 388.0657,-76.1667 388.0657,-76.1667 388.0657,-81.8333 388.0657,-81.8333 388.0657,-84.6667 385.2323,-87.5 382.399,-87.5"/>
<text text-anchor="middle" x="361.0657" y="-76.3" font-family="Helvetica,sans-Serif" font-size="9.00" fill="#000000">coords.ts</text>
</a>
</g>
</g>
<!-- src/Rotatable.ts&#45;&gt;src/coords.ts -->
<g id="edge19" class="edge">
<title>src/Rotatable.ts&#45;&gt;src/coords.ts</title>
<path fill="none" stroke="#000000" d="M286.7968,-81.789C298.447,-81.3515 311.6948,-80.854 323.7438,-80.4015"/>
<polygon fill="#000000" stroke="#000000" points="324.092,-83.891 333.9535,-80.0181 323.8292,-76.896 324.092,-83.891"/>
</g>
<!-- src/Rotatable.ts&#45;&gt;src/mod&#45;math.ts -->
<g id="edge20" class="edge">
<title>src/Rotatable.ts&#45;&gt;src/mod&#45;math.ts</title>
<path fill="none" stroke="#000000" d="M286.7968,-90.5687C296.634,-92.8775 307.6102,-95.4537 318.042,-97.9021"/>
<polygon fill="#000000" stroke="#000000" points="317.2867,-101.3199 327.8219,-100.1975 318.8862,-94.505 317.2867,-101.3199"/>
</g>
<!-- src/Scale.ts&#45;&gt;src/mod&#45;math.ts -->
<g id="edge21" class="edge">
<title>src/Scale.ts&#45;&gt;src/mod&#45;math.ts</title>
<path fill="none" stroke="#000000" d="M281.8746,-33.6298C285.4982,-35.4158 289.0086,-37.5255 292.0586,-40 312.3581,-56.4695 307.1904,-72.3223 328.7366,-92.8917"/>
<polygon fill="#000000" stroke="#000000" points="326.4757,-95.5635 336.3388,-99.4326 331.0412,-90.2573 326.4757,-95.5635"/>
</g>
<!-- src/index.tsx -->
<g id="node15" class="node">
<title>src/index.tsx</title>
<g id="a_node15"><a xlink:href="src/index.tsx" xlink:title="index.tsx">
<path fill="#ffffcc" stroke="#000000" d="M67.5894,-109.5C67.5894,-109.5 24.9228,-109.5 24.9228,-109.5 22.0894,-109.5 19.2561,-106.6667 19.2561,-103.8333 19.2561,-103.8333 19.2561,-98.1667 19.2561,-98.1667 19.2561,-95.3333 22.0894,-92.5 24.9228,-92.5 24.9228,-92.5 67.5894,-92.5 67.5894,-92.5 70.4228,-92.5 73.2561,-95.3333 73.2561,-98.1667 73.2561,-98.1667 73.2561,-103.8333 73.2561,-103.8333 73.2561,-106.6667 70.4228,-109.5 67.5894,-109.5"/>
<text text-anchor="middle" x="46.2561" y="-98.3" font-family="Helvetica,sans-Serif" font-size="9.00" fill="#000000">index.tsx</text>
</a>
</g>
</g>
<!-- src/index.tsx&#45;&gt;src/App.ts -->
<g id="edge22" class="edge">
<title>src/index.tsx&#45;&gt;src/App.ts</title>
<path fill="none" stroke="#000000" d="M68.0675,-92.3206C81.9931,-86.7791 100.2634,-79.5088 115.6956,-73.3679"/>
<polygon fill="#000000" stroke="#000000" points="117.3554,-76.4744 125.3527,-69.525 114.7672,-69.9704 117.3554,-76.4744"/>
</g>
<!-- src/index.tsx&#45;&gt;src/Layout.tsx -->
<g id="edge23" class="edge">
<title>src/index.tsx&#45;&gt;src/Layout.tsx</title>
<path fill="none" stroke="#000000" d="M73.4583,-98.0232C84.0531,-96.8638 96.3932,-95.5135 107.8943,-94.2549"/>
<polygon fill="#000000" stroke="#000000" points="108.5867,-97.7001 118.1466,-93.133 107.8252,-90.7416 108.5867,-97.7001"/>
</g>
<!-- src/index.tsx&#45;&gt;src/Pie.tsx -->
<g id="edge24" class="edge">
<title>src/index.tsx&#45;&gt;src/Pie.tsx</title>
<path fill="none" stroke="#000000" d="M73.4583,-105.8711C84.521,-107.852 97.4865,-110.1738 109.4129,-112.3094"/>
<polygon fill="#000000" stroke="#000000" points="109.0918,-115.8075 119.5522,-114.125 110.3257,-108.9171 109.0918,-115.8075"/>
</g>
<!-- src/keyboard.tsx -->
<g id="node16" class="node">
<title>src/keyboard.tsx</title>
<g id="a_node16"><a xlink:href="src/keyboard.tsx" xlink:title="keyboard.tsx">
<path fill="#ffffcc" stroke="#000000" d="M174.6344,-185.5C174.6344,-185.5 118.9179,-185.5 118.9179,-185.5 116.0845,-185.5 113.2512,-182.6667 113.2512,-179.8333 113.2512,-179.8333 113.2512,-174.1667 113.2512,-174.1667 113.2512,-171.3333 116.0845,-168.5 118.9179,-168.5 118.9179,-168.5 174.6344,-168.5 174.6344,-168.5 177.4677,-168.5 180.301,-171.3333 180.301,-174.1667 180.301,-174.1667 180.301,-179.8333 180.301,-179.8333 180.301,-182.6667 177.4677,-185.5 174.6344,-185.5"/>
<text text-anchor="middle" x="146.7761" y="-174.3" font-family="Helvetica,sans-Serif" font-size="9.00" fill="#000000">keyboard.tsx</text>
</a>
</g>
</g>
<!-- src/index.tsx&#45;&gt;src/keyboard.tsx -->
<g id="edge25" class="edge">
<title>src/index.tsx&#45;&gt;src/keyboard.tsx</title>
<path fill="none" stroke="#000000" d="M57.787,-109.7182C74.7532,-122.5458 106.6594,-146.669 127.2999,-162.2746"/>
<polygon fill="#000000" stroke="#000000" points="125.2921,-165.1444 135.3797,-168.3835 129.5138,-159.5607 125.2921,-165.1444"/>
</g>
<!-- src/keyboard.tsx&#45;&gt;src/Color.ts -->
<g id="edge26" class="edge">
<title>src/keyboard.tsx&#45;&gt;src/Color.ts</title>
<path fill="none" stroke="#000000" d="M172.3169,-168.4685C186.3076,-163.7951 203.8622,-157.9313 219.1554,-152.8228"/>
<polygon fill="#000000" stroke="#000000" points="220.4425,-156.083 228.8184,-149.595 218.2247,-149.4437 220.4425,-156.083"/>
</g>
<!-- src/keyboard.tsx&#45;&gt;src/Draggable.ts -->
<g id="edge27" class="edge">
<title>src/keyboard.tsx&#45;&gt;src/Draggable.ts</title>
<path fill="none" stroke="#000000" d="M161.5787,-185.5034C175.6129,-193.3945 197.4107,-205.2115 217.04,-214 218.2176,-214.5272 219.4217,-215.0516 220.6421,-215.5708"/>
<polygon fill="#000000" stroke="#000000" points="219.57,-218.9124 230.1531,-219.4097 222.19,-212.4212 219.57,-218.9124"/>
</g>
<!-- src/keyboard.tsx&#45;&gt;src/Size.ts -->
<g id="edge28" class="edge">
<title>src/keyboard.tsx&#45;&gt;src/Size.ts</title>
<path fill="none" stroke="#000000" d="M154.1155,-185.8706C166.0258,-199.7667 190.8787,-226.7554 217.04,-243 217.5567,-243.3208 218.0819,-243.6361 218.6144,-243.9458"/>
<polygon fill="#000000" stroke="#000000" points="217.1838,-247.1434 227.6944,-248.4764 220.3091,-240.8798 217.1838,-247.1434"/>
</g>
<!-- src/keyboard.tsx&#45;&gt;src/Synth.ts -->
<g id="edge29" class="edge">
<title>src/keyboard.tsx&#45;&gt;src/Synth.ts</title>
<path fill="none" stroke="#000000" d="M180.3702,-177.4693C209.8973,-178.2102 253.9742,-180.1144 292.0586,-185 302.5165,-186.3416 313.7606,-188.3683 324.0741,-190.4662"/>
<polygon fill="#000000" stroke="#000000" points="323.5064,-193.9235 334.0138,-192.5652 324.9528,-187.0745 323.5064,-193.9235"/>
</g>
<!-- src/keyboard.tsx&#45;&gt;src/mod&#45;math.ts -->
<g id="edge30" class="edge">
<title>src/keyboard.tsx&#45;&gt;src/mod&#45;math.ts</title>
<path fill="none" stroke="#000000" d="M180.4953,-176.4986C210.6835,-175.043 255.6673,-170.352 292.0586,-156 311.4362,-148.3578 330.6578,-134.3158 343.8734,-123.3863"/>
<polygon fill="#000000" stroke="#000000" points="346.3063,-125.911 351.6319,-116.7519 341.757,-120.5908 346.3063,-125.911"/>
</g>
<!-- src/keyboard.tsx&#45;&gt;src/playable.tsx -->
<g id="edge31" class="edge">
<title>src/keyboard.tsx&#45;&gt;src/playable.tsx</title>
<path fill="none" stroke="#000000" d="M180.5805,-183.9006C190.7787,-185.9824 202.0967,-188.2927 212.7502,-190.4674"/>
<polygon fill="#000000" stroke="#000000" points="212.2044,-193.9281 222.7024,-192.499 213.6045,-187.0696 212.2044,-193.9281"/>
</g>
<!-- src/playable.tsx&#45;&gt;src/Synth.ts -->
<g id="edge32" class="edge">
<title>src/playable.tsx&#45;&gt;src/Synth.ts</title>
<path fill="none" stroke="#000000" d="M286.2193,-199C297.9821,-199 311.4362,-199 323.6633,-199"/>
<polygon fill="#000000" stroke="#000000" points="324.0193,-202.5001 334.0193,-199 324.0192,-195.5001 324.0193,-202.5001"/>
</g>
</g>
</svg>
