<?xml version="1.0" encoding="UTF-8" standalone="no"?>
<!DOCTYPE svg PUBLIC "-//W3C//DTD SVG 1.1//EN"
 "http://www.w3.org/Graphics/SVG/1.1/DTD/svg11.dtd">
<!-- Generated by graphviz version 2.40.1 (20161225.0304)
 -->
<!-- Title: dependency&#45;cruiser output Pages: 1 -->
<svg width="884pt" height="395pt"
 viewBox="0.00 0.00 884.22 395.02" xmlns="http://www.w3.org/2000/svg" xmlns:xlink="http://www.w3.org/1999/xlink">
<g id="graph0" class="graph" transform="scale(1 1) rotate(0) translate(4 391.0226)">
<title>dependency&#45;cruiser output</title>
<polygon fill="#ffffff" stroke="transparent" points="-4,4 -4,-391.0226 880.2168,-391.0226 880.2168,4 -4,4"/>
<g id="clust1" class="cluster">
<title>cluster_/src</title>
<path fill="none" stroke="#000000" stroke-width="2" d="M20,-8.0226C20,-8.0226 856.2168,-8.0226 856.2168,-8.0226 862.2168,-8.0226 868.2168,-14.0226 868.2168,-20.0226 868.2168,-20.0226 868.2168,-367.0226 868.2168,-367.0226 868.2168,-373.0226 862.2168,-379.0226 856.2168,-379.0226 856.2168,-379.0226 20,-379.0226 20,-379.0226 14,-379.0226 8,-373.0226 8,-367.0226 8,-367.0226 8,-20.0226 8,-20.0226 8,-14.0226 14,-8.0226 20,-8.0226"/>
<text text-anchor="middle" x="438.1084" y="-367.8226" font-family="Helvetica,sans-Serif" font-weight="bold" font-size="9.00" fill="#000000">src</text>
</g>
<!-- src/App.tsx -->
<g id="node1" class="node">
<title>src/App.tsx</title>
<g id="a_node1"><a xlink:href="src/App.tsx" xlink:title="App.tsx">
<path fill="#ffffcc" stroke="#000000" d="M233.8868,-206.5226C233.8868,-206.5226 191.2201,-206.5226 191.2201,-206.5226 188.3868,-206.5226 185.5535,-203.6893 185.5535,-200.8559 185.5535,-200.8559 185.5535,-195.1893 185.5535,-195.1893 185.5535,-192.3559 188.3868,-189.5226 191.2201,-189.5226 191.2201,-189.5226 233.8868,-189.5226 233.8868,-189.5226 236.7201,-189.5226 239.5535,-192.3559 239.5535,-195.1893 239.5535,-195.1893 239.5535,-200.8559 239.5535,-200.8559 239.5535,-203.6893 236.7201,-206.5226 233.8868,-206.5226"/>
<text text-anchor="middle" x="212.5535" y="-195.3226" font-family="Helvetica,sans-Serif" font-size="9.00" fill="#000000">App.tsx</text>
</a>
</g>
</g>
<!-- src/Layout.tsx -->
<g id="node7" class="node">
<title>src/Layout.tsx</title>
<g id="a_node7"><a xlink:href="src/Layout.tsx" xlink:title="Layout.tsx">
<path fill="#ffffcc" stroke="#000000" d="M382.1954,-167.5226C382.1954,-167.5226 336.4828,-167.5226 336.4828,-167.5226 333.6495,-167.5226 330.8162,-164.6893 330.8162,-161.8559 330.8162,-161.8559 330.8162,-156.1893 330.8162,-156.1893 330.8162,-153.3559 333.6495,-150.5226 336.4828,-150.5226 336.4828,-150.5226 382.1954,-150.5226 382.1954,-150.5226 385.0287,-150.5226 387.8621,-153.3559 387.8621,-156.1893 387.8621,-156.1893 387.8621,-161.8559 387.8621,-161.8559 387.8621,-164.6893 385.0287,-167.5226 382.1954,-167.5226"/>
<text text-anchor="middle" x="359.3391" y="-156.3226" font-family="Helvetica,sans-Serif" font-size="9.00" fill="#000000">Layout.tsx</text>
</a>
</g>
</g>
<!-- src/App.tsx&#45;&gt;src/Layout.tsx -->
<g id="edge1" class="edge">
<title>src/App.tsx&#45;&gt;src/Layout.tsx</title>
<path fill="none" stroke="#000000" d="M239.8187,-190.7784C262.6549,-184.711 295.5108,-175.9814 320.9971,-169.2099"/>
<polygon fill="#000000" stroke="#000000" points="321.9503,-172.5781 330.7162,-166.6275 320.1527,-165.8128 321.9503,-172.5781"/>
</g>
<!-- src/Pie.tsx -->
<g id="node8" class="node">
<title>src/Pie.tsx</title>
<g id="a_node8"><a xlink:href="src/Pie.tsx" xlink:title="Pie.tsx">
<path fill="#ffffcc" stroke="#000000" d="M499.4495,-191.5226C499.4495,-191.5226 456.7829,-191.5226 456.7829,-191.5226 453.9495,-191.5226 451.1162,-188.6893 451.1162,-185.8559 451.1162,-185.8559 451.1162,-180.1893 451.1162,-180.1893 451.1162,-177.3559 453.9495,-174.5226 456.7829,-174.5226 456.7829,-174.5226 499.4495,-174.5226 499.4495,-174.5226 502.2829,-174.5226 505.1162,-177.3559 505.1162,-180.1893 505.1162,-180.1893 505.1162,-185.8559 505.1162,-185.8559 505.1162,-188.6893 502.2829,-191.5226 499.4495,-191.5226"/>
<text text-anchor="middle" x="478.1162" y="-180.3226" font-family="Helvetica,sans-Serif" font-size="9.00" fill="#000000">Pie.tsx</text>
</a>
</g>
</g>
<!-- src/App.tsx&#45;&gt;src/Pie.tsx -->
<g id="edge2" class="edge">
<title>src/App.tsx&#45;&gt;src/Pie.tsx</title>
<path fill="none" stroke="#000000" d="M239.9731,-196.4738C287.805,-193.7721 386.5464,-188.1948 440.6488,-185.1389"/>
<polygon fill="#000000" stroke="#000000" points="441.0591,-188.6214 450.8457,-184.563 440.6642,-181.6326 441.0591,-188.6214"/>
</g>
<!-- src/getCurrentScale.ts -->
<g id="node24" class="node">
<title>src/getCurrentScale.ts</title>
<g id="a_node24"><a xlink:href="src/getCurrentScale.ts" xlink:title="getCurrentScale.ts">
<path fill="#ffffcc" stroke="#000000" d="M398.7093,-249.5226C398.7093,-249.5226 319.9689,-249.5226 319.9689,-249.5226 317.1356,-249.5226 314.3023,-246.6893 314.3023,-243.8559 314.3023,-243.8559 314.3023,-238.1893 314.3023,-238.1893 314.3023,-235.3559 317.1356,-232.5226 319.9689,-232.5226 319.9689,-232.5226 398.7093,-232.5226 398.7093,-232.5226 401.5426,-232.5226 404.3759,-235.3559 404.3759,-238.1893 404.3759,-238.1893 404.3759,-243.8559 404.3759,-243.8559 404.3759,-246.6893 401.5426,-249.5226 398.7093,-249.5226"/>
<text text-anchor="middle" x="359.3391" y="-238.3226" font-family="Helvetica,sans-Serif" font-size="9.00" fill="#000000">getCurrentScale.ts</text>
</a>
</g>
</g>
<!-- src/App.tsx&#45;&gt;src/getCurrentScale.ts -->
<g id="edge3" class="edge">
<title>src/App.tsx&#45;&gt;src/getCurrentScale.ts</title>
<path fill="none" stroke="#000000" d="M239.8187,-206.0098C262.5085,-212.6567 295.09,-222.2012 320.506,-229.6467"/>
<polygon fill="#000000" stroke="#000000" points="319.6281,-233.0365 330.2088,-232.4891 321.596,-226.3188 319.6281,-233.0365"/>
</g>
<!-- src/keyboard.tsx -->
<g id="node29" class="node">
<title>src/keyboard.tsx</title>
<g id="a_node29"><a xlink:href="src/keyboard.tsx" xlink:title="keyboard.tsx">
<path fill="#ffffcc" stroke="#000000" d="M620.4998,-222.5226C620.4998,-222.5226 564.7834,-222.5226 564.7834,-222.5226 561.95,-222.5226 559.1167,-219.6893 559.1167,-216.8559 559.1167,-216.8559 559.1167,-211.1893 559.1167,-211.1893 559.1167,-208.3559 561.95,-205.5226 564.7834,-205.5226 564.7834,-205.5226 620.4998,-205.5226 620.4998,-205.5226 623.3332,-205.5226 626.1665,-208.3559 626.1665,-211.1893 626.1665,-211.1893 626.1665,-216.8559 626.1665,-216.8559 626.1665,-219.6893 623.3332,-222.5226 620.4998,-222.5226"/>
<text text-anchor="middle" x="592.6416" y="-211.3226" font-family="Helvetica,sans-Serif" font-size="9.00" fill="#000000">keyboard.tsx</text>
</a>
</g>
</g>
<!-- src/App.tsx&#45;&gt;src/keyboard.tsx -->
<g id="edge4" class="edge">
<title>src/App.tsx&#45;&gt;src/keyboard.tsx</title>
<path fill="none" stroke="#000000" d="M239.5838,-199.1605C304.5083,-201.8935 469.7158,-208.848 548.9525,-212.1835"/>
<polygon fill="#000000" stroke="#000000" points="548.9501,-215.6864 559.0885,-212.6102 549.2445,-208.6926 548.9501,-215.6864"/>
</g>
<!-- src/scaleIndex.ts -->
<g id="node39" class="node">
<title>src/scaleIndex.ts</title>
<g id="a_node39"><a xlink:href="src/scaleIndex.ts" xlink:title="scaleIndex.ts">
<path fill="#ffffcc" stroke="#000000" d="M506.479,-264.5226C506.479,-264.5226 449.7534,-264.5226 449.7534,-264.5226 446.9201,-264.5226 444.0868,-261.6893 444.0868,-258.8559 444.0868,-258.8559 444.0868,-253.1893 444.0868,-253.1893 444.0868,-250.3559 446.9201,-247.5226 449.7534,-247.5226 449.7534,-247.5226 506.479,-247.5226 506.479,-247.5226 509.3123,-247.5226 512.1457,-250.3559 512.1457,-253.1893 512.1457,-253.1893 512.1457,-258.8559 512.1457,-258.8559 512.1457,-261.6893 509.3123,-264.5226 506.479,-264.5226"/>
<text text-anchor="middle" x="478.1162" y="-253.3226" font-family="Helvetica,sans-Serif" font-size="9.00" fill="#000000">scaleIndex.ts</text>
</a>
</g>
</g>
<!-- src/App.tsx&#45;&gt;src/scaleIndex.ts -->
<g id="edge5" class="edge">
<title>src/App.tsx&#45;&gt;src/scaleIndex.ts</title>
<path fill="none" stroke="#000000" d="M239.8895,-201.3764C285.2444,-207.0705 374.0794,-218.8095 404.6069,-227.0226 420.1715,-231.2101 436.932,-237.6618 450.5127,-243.4176"/>
<polygon fill="#000000" stroke="#000000" points="449.2106,-246.6679 459.777,-247.4434 452.0004,-240.2479 449.2106,-246.6679"/>
</g>
<!-- src/DragMouseEvent.ts -->
<g id="node2" class="node">
<title>src/DragMouseEvent.ts</title>
<g id="a_node2"><a xlink:href="src/DragMouseEvent.ts" xlink:title="DragMouseEvent.ts">
<path fill="#ffffcc" stroke="#000000" d="M105.3868,-353.5226C105.3868,-353.5226 21.6488,-353.5226 21.6488,-353.5226 18.8155,-353.5226 15.9822,-350.6893 15.9822,-347.8559 15.9822,-347.8559 15.9822,-342.1893 15.9822,-342.1893 15.9822,-339.3559 18.8155,-336.5226 21.6488,-336.5226 21.6488,-336.5226 105.3868,-336.5226 105.3868,-336.5226 108.2201,-336.5226 111.0535,-339.3559 111.0535,-342.1893 111.0535,-342.1893 111.0535,-347.8559 111.0535,-347.8559 111.0535,-350.6893 108.2201,-353.5226 105.3868,-353.5226"/>
<text text-anchor="middle" x="63.5178" y="-342.3226" font-family="Helvetica,sans-Serif" font-size="9.00" fill="#000000">DragMouseEvent.ts</text>
</a>
</g>
</g>
<!-- src/DragStore.ts -->
<g id="node3" class="node">
<title>src/DragStore.ts</title>
<g id="a_node3"><a xlink:href="src/DragStore.ts" xlink:title="DragStore.ts">
<path fill="#ffffcc" stroke="#000000" d="M847.0562,-193.5226C847.0562,-193.5226 792.3471,-193.5226 792.3471,-193.5226 789.5137,-193.5226 786.6804,-190.6893 786.6804,-187.8559 786.6804,-187.8559 786.6804,-182.1893 786.6804,-182.1893 786.6804,-179.3559 789.5137,-176.5226 792.3471,-176.5226 792.3471,-176.5226 847.0562,-176.5226 847.0562,-176.5226 849.8896,-176.5226 852.7229,-179.3559 852.7229,-182.1893 852.7229,-182.1893 852.7229,-187.8559 852.7229,-187.8559 852.7229,-190.6893 849.8896,-193.5226 847.0562,-193.5226"/>
<text text-anchor="middle" x="819.7017" y="-182.3226" font-family="Helvetica,sans-Serif" font-size="9.00" fill="#000000">DragStore.ts</text>
</a>
</g>
</g>
<!-- src/DragTouchEvent.ts -->
<g id="node4" class="node">
<title>src/DragTouchEvent.ts</title>
<g id="a_node4"><a xlink:href="src/DragTouchEvent.ts" xlink:title="DragTouchEvent.ts">
<path fill="#ffffcc" stroke="#000000" d="M103.8897,-324.5226C103.8897,-324.5226 23.1459,-324.5226 23.1459,-324.5226 20.3126,-324.5226 17.4792,-321.6893 17.4792,-318.8559 17.4792,-318.8559 17.4792,-313.1893 17.4792,-313.1893 17.4792,-310.3559 20.3126,-307.5226 23.1459,-307.5226 23.1459,-307.5226 103.8897,-307.5226 103.8897,-307.5226 106.7231,-307.5226 109.5564,-310.3559 109.5564,-313.1893 109.5564,-313.1893 109.5564,-318.8559 109.5564,-318.8559 109.5564,-321.6893 106.7231,-324.5226 103.8897,-324.5226"/>
<text text-anchor="middle" x="63.5178" y="-313.3226" font-family="Helvetica,sans-Serif" font-size="9.00" fill="#000000">DragTouchEvent.ts</text>
</a>
</g>
</g>
<!-- src/Draggable.ts -->
<g id="node5" class="node">
<title>src/Draggable.ts</title>
<g id="a_node5"><a xlink:href="src/Draggable.ts" xlink:title="Draggable.ts">
<path fill="#ffffcc" stroke="#000000" d="M734.2848,-193.5226C734.2848,-193.5226 678.5595,-193.5226 678.5595,-193.5226 675.7261,-193.5226 672.8928,-190.6893 672.8928,-187.8559 672.8928,-187.8559 672.8928,-182.1893 672.8928,-182.1893 672.8928,-179.3559 675.7261,-176.5226 678.5595,-176.5226 678.5595,-176.5226 734.2848,-176.5226 734.2848,-176.5226 737.1181,-176.5226 739.9514,-179.3559 739.9514,-182.1893 739.9514,-182.1893 739.9514,-187.8559 739.9514,-187.8559 739.9514,-190.6893 737.1181,-193.5226 734.2848,-193.5226"/>
<text text-anchor="middle" x="706.4221" y="-182.3226" font-family="Helvetica,sans-Serif" font-size="9.00" fill="#000000">Draggable.ts</text>
</a>
</g>
</g>
<!-- src/Draggable.ts&#45;&gt;src/DragStore.ts -->
<g id="edge6" class="edge">
<title>src/Draggable.ts&#45;&gt;src/DragStore.ts</title>
<path fill="none" stroke="#000000" d="M740.103,-185.0226C751.4021,-185.0226 764.1685,-185.0226 776.1154,-185.0226"/>
<polygon fill="#000000" stroke="#000000" points="776.3459,-188.5227 786.3459,-185.0226 776.3458,-181.5227 776.3459,-188.5227"/>
</g>
<!-- src/Keyboard.tsx -->
<g id="node6" class="node">
<title>src/Keyboard.tsx</title>
<g id="a_node6"><a xlink:href="src/Keyboard.tsx" xlink:title="Keyboard.tsx">
<path fill="#ffffcc" stroke="#000000" d="M621.0044,-178.5226C621.0044,-178.5226 564.2788,-178.5226 564.2788,-178.5226 561.4455,-178.5226 558.6122,-175.6893 558.6122,-172.8559 558.6122,-172.8559 558.6122,-167.1893 558.6122,-167.1893 558.6122,-164.3559 561.4455,-161.5226 564.2788,-161.5226 564.2788,-161.5226 621.0044,-161.5226 621.0044,-161.5226 623.8377,-161.5226 626.671,-164.3559 626.671,-167.1893 626.671,-167.1893 626.671,-172.8559 626.671,-172.8559 626.671,-175.6893 623.8377,-178.5226 621.0044,-178.5226"/>
<text text-anchor="middle" x="592.6416" y="-167.3226" font-family="Helvetica,sans-Serif" font-size="9.00" fill="#000000">Keyboard.tsx</text>
</a>
</g>
</g>
<!-- src/Keyboard.tsx&#45;&gt;src/Draggable.ts -->
<g id="edge7" class="edge">
<title>src/Keyboard.tsx&#45;&gt;src/Draggable.ts</title>
<path fill="none" stroke="#000000" d="M626.7795,-174.5231C638.0189,-176.0048 650.6769,-177.6736 662.5379,-179.2372"/>
<polygon fill="#000000" stroke="#000000" points="662.3287,-182.7399 672.7004,-180.577 663.2437,-175.7999 662.3287,-182.7399"/>
</g>
<!-- src/Size.ts -->
<g id="node17" class="node">
<title>src/Size.ts</title>
<g id="a_node17"><a xlink:href="src/Size.ts" xlink:title="Size.ts">
<path fill="#ffffcc" stroke="#000000" d="M727.7555,-222.5226C727.7555,-222.5226 685.0888,-222.5226 685.0888,-222.5226 682.2555,-222.5226 679.4221,-219.6893 679.4221,-216.8559 679.4221,-216.8559 679.4221,-211.1893 679.4221,-211.1893 679.4221,-208.3559 682.2555,-205.5226 685.0888,-205.5226 685.0888,-205.5226 727.7555,-205.5226 727.7555,-205.5226 730.5888,-205.5226 733.4221,-208.3559 733.4221,-211.1893 733.4221,-211.1893 733.4221,-216.8559 733.4221,-216.8559 733.4221,-219.6893 730.5888,-222.5226 727.7555,-222.5226"/>
<text text-anchor="middle" x="706.4221" y="-211.3226" font-family="Helvetica,sans-Serif" font-size="9.00" fill="#000000">Size.ts</text>
</a>
</g>
</g>
<!-- src/Keyboard.tsx&#45;&gt;src/Size.ts -->
<g id="edge8" class="edge">
<title>src/Keyboard.tsx&#45;&gt;src/Size.ts</title>
<path fill="none" stroke="#000000" d="M614.5345,-178.6015C629.9389,-184.6253 651.0449,-192.8537 669.6577,-200.0226 671.2351,-200.6302 672.8512,-201.2511 674.4837,-201.8772"/>
<polygon fill="#000000" stroke="#000000" points="673.2676,-205.1593 683.8581,-205.4612 675.7674,-198.6208 673.2676,-205.1593"/>
</g>
<!-- src/accent.ts -->
<g id="node20" class="node">
<title>src/accent.ts</title>
<g id="a_node20"><a xlink:href="src/accent.ts" xlink:title="accent.ts">
<path fill="#ffffcc" stroke="#000000" d="M727.7555,-266.5226C727.7555,-266.5226 685.0888,-266.5226 685.0888,-266.5226 682.2555,-266.5226 679.4221,-263.6893 679.4221,-260.8559 679.4221,-260.8559 679.4221,-255.1893 679.4221,-255.1893 679.4221,-252.3559 682.2555,-249.5226 685.0888,-249.5226 685.0888,-249.5226 727.7555,-249.5226 727.7555,-249.5226 730.5888,-249.5226 733.4221,-252.3559 733.4221,-255.1893 733.4221,-255.1893 733.4221,-260.8559 733.4221,-260.8559 733.4221,-263.6893 730.5888,-266.5226 727.7555,-266.5226"/>
<text text-anchor="middle" x="706.4221" y="-255.3226" font-family="Helvetica,sans-Serif" font-size="9.00" fill="#000000">accent.ts</text>
</a>
</g>
</g>
<!-- src/Keyboard.tsx&#45;&gt;src/accent.ts -->
<g id="edge9" class="edge">
<title>src/Keyboard.tsx&#45;&gt;src/accent.ts</title>
<path fill="none" stroke="#000000" d="M604.5962,-178.5424C612.8367,-184.4697 624.0011,-192.608 633.6577,-200.0226 649.9538,-212.5351 653.5919,-216.2158 669.6577,-229.0226 675.4663,-233.6529 681.8121,-238.6724 687.5717,-243.2134"/>
<polygon fill="#000000" stroke="#000000" points="685.4374,-245.9876 695.4598,-249.423 689.7673,-240.4874 685.4374,-245.9876"/>
</g>
<!-- src/hexToRgba.ts -->
<g id="node27" class="node">
<title>src/hexToRgba.ts</title>
<g id="a_node27"><a xlink:href="src/hexToRgba.ts" xlink:title="hexToRgba.ts">
<path fill="#ffffcc" stroke="#000000" d="M736.2882,-164.5226C736.2882,-164.5226 676.5561,-164.5226 676.5561,-164.5226 673.7227,-164.5226 670.8894,-161.6893 670.8894,-158.8559 670.8894,-158.8559 670.8894,-153.1893 670.8894,-153.1893 670.8894,-150.3559 673.7227,-147.5226 676.5561,-147.5226 676.5561,-147.5226 736.2882,-147.5226 736.2882,-147.5226 739.1215,-147.5226 741.9548,-150.3559 741.9548,-153.1893 741.9548,-153.1893 741.9548,-158.8559 741.9548,-158.8559 741.9548,-161.6893 739.1215,-164.5226 736.2882,-164.5226"/>
<text text-anchor="middle" x="706.4221" y="-153.3226" font-family="Helvetica,sans-Serif" font-size="9.00" fill="#000000">hexToRgba.ts</text>
</a>
</g>
</g>
<!-- src/Keyboard.tsx&#45;&gt;src/hexToRgba.ts -->
<g id="edge10" class="edge">
<title>src/Keyboard.tsx&#45;&gt;src/hexToRgba.ts</title>
<path fill="none" stroke="#000000" d="M626.7795,-165.8222C637.4042,-164.5148 649.2966,-163.0516 660.5851,-161.6626"/>
<polygon fill="#000000" stroke="#000000" points="661.2309,-165.1096 670.7286,-160.4145 660.3759,-158.162 661.2309,-165.1096"/>
</g>
<!-- src/modPos.ts -->
<g id="node32" class="node">
<title>src/modPos.ts</title>
<g id="a_node32"><a xlink:href="src/modPos.ts" xlink:title="modPos.ts">
<path fill="#ffffcc" stroke="#000000" d="M729.7745,-295.5226C729.7745,-295.5226 683.0697,-295.5226 683.0697,-295.5226 680.2364,-295.5226 677.4031,-292.6893 677.4031,-289.8559 677.4031,-289.8559 677.4031,-284.1893 677.4031,-284.1893 677.4031,-281.3559 680.2364,-278.5226 683.0697,-278.5226 683.0697,-278.5226 729.7745,-278.5226 729.7745,-278.5226 732.6079,-278.5226 735.4412,-281.3559 735.4412,-284.1893 735.4412,-284.1893 735.4412,-289.8559 735.4412,-289.8559 735.4412,-292.6893 732.6079,-295.5226 729.7745,-295.5226"/>
<text text-anchor="middle" x="706.4221" y="-284.3226" font-family="Helvetica,sans-Serif" font-size="9.00" fill="#000000">modPos.ts</text>
</a>
</g>
</g>
<!-- src/Keyboard.tsx&#45;&gt;src/modPos.ts -->
<g id="edge11" class="edge">
<title>src/Keyboard.tsx&#45;&gt;src/modPos.ts</title>
<path fill="none" stroke="#000000" d="M607.7018,-178.5379C616.1399,-183.8763 626.3939,-191.3763 633.6577,-200.0226 655.0182,-225.4485 644.951,-245.1935 669.9066,-271.3192"/>
<polygon fill="#000000" stroke="#000000" points="667.8129,-274.1564 677.4833,-278.4846 672.6227,-269.0705 667.8129,-274.1564"/>
</g>
<!-- src/playable.tsx -->
<g id="node34" class="node">
<title>src/playable.tsx</title>
<g id="a_node34"><a xlink:href="src/playable.tsx" xlink:title="playable.tsx">
<path fill="#ffffcc" stroke="#000000" d="M732.2841,-120.5226C732.2841,-120.5226 680.5602,-120.5226 680.5602,-120.5226 677.7268,-120.5226 674.8935,-117.6893 674.8935,-114.8559 674.8935,-114.8559 674.8935,-109.1893 674.8935,-109.1893 674.8935,-106.3559 677.7268,-103.5226 680.5602,-103.5226 680.5602,-103.5226 732.2841,-103.5226 732.2841,-103.5226 735.1174,-103.5226 737.9507,-106.3559 737.9507,-109.1893 737.9507,-109.1893 737.9507,-114.8559 737.9507,-114.8559 737.9507,-117.6893 735.1174,-120.5226 732.2841,-120.5226"/>
<text text-anchor="middle" x="706.4221" y="-109.3226" font-family="Helvetica,sans-Serif" font-size="9.00" fill="#000000">playable.tsx</text>
</a>
</g>
</g>
<!-- src/Keyboard.tsx&#45;&gt;src/playable.tsx -->
<g id="edge12" class="edge">
<title>src/Keyboard.tsx&#45;&gt;src/playable.tsx</title>
<path fill="none" stroke="#000000" d="M608.8112,-161.4827C624.3558,-153.3066 648.5376,-140.6756 669.6577,-130.0226 672.864,-128.4054 676.237,-126.7252 679.5858,-125.0701"/>
<polygon fill="#000000" stroke="#000000" points="681.3684,-128.094 688.8018,-120.5445 678.2829,-121.8107 681.3684,-128.094"/>
</g>
<!-- src/pressedNotes.ts -->
<g id="node36" class="node">
<title>src/pressedNotes.ts</title>
<g id="a_node36"><a xlink:href="src/pressedNotes.ts" xlink:title="pressedNotes.ts">
<path fill="#ffffcc" stroke="#000000" d="M854.5653,-120.5226C854.5653,-120.5226 784.838,-120.5226 784.838,-120.5226 782.0047,-120.5226 779.1714,-117.6893 779.1714,-114.8559 779.1714,-114.8559 779.1714,-109.1893 779.1714,-109.1893 779.1714,-106.3559 782.0047,-103.5226 784.838,-103.5226 784.838,-103.5226 854.5653,-103.5226 854.5653,-103.5226 857.3986,-103.5226 860.2319,-106.3559 860.2319,-109.1893 860.2319,-109.1893 860.2319,-114.8559 860.2319,-114.8559 860.2319,-117.6893 857.3986,-120.5226 854.5653,-120.5226"/>
<text text-anchor="middle" x="819.7017" y="-109.3226" font-family="Helvetica,sans-Serif" font-size="9.00" fill="#000000">pressedNotes.ts</text>
</a>
</g>
</g>
<!-- src/Keyboard.tsx&#45;&gt;src/pressedNotes.ts -->
<g id="edge13" class="edge">
<title>src/Keyboard.tsx&#45;&gt;src/pressedNotes.ts</title>
<path fill="none" stroke="#000000" d="M613.6089,-161.4227C628.9388,-155.3764 650.3405,-147.4317 669.6577,-142.0226 674.5614,-140.6495 727.434,-130.1559 769.0448,-121.9617"/>
<polygon fill="#000000" stroke="#000000" points="769.9385,-125.353 779.0746,-119.9881 768.587,-118.4847 769.9385,-125.353"/>
</g>
<!-- src/primary.ts -->
<g id="node37" class="node">
<title>src/primary.ts</title>
<g id="a_node37"><a xlink:href="src/primary.ts" xlink:title="primary.ts">
<path fill="#ffffcc" stroke="#000000" d="M728.0946,-324.5226C728.0946,-324.5226 684.7497,-324.5226 684.7497,-324.5226 681.9163,-324.5226 679.083,-321.6893 679.083,-318.8559 679.083,-318.8559 679.083,-313.1893 679.083,-313.1893 679.083,-310.3559 681.9163,-307.5226 684.7497,-307.5226 684.7497,-307.5226 728.0946,-307.5226 728.0946,-307.5226 730.9279,-307.5226 733.7612,-310.3559 733.7612,-313.1893 733.7612,-313.1893 733.7612,-318.8559 733.7612,-318.8559 733.7612,-321.6893 730.9279,-324.5226 728.0946,-324.5226"/>
<text text-anchor="middle" x="706.4221" y="-313.3226" font-family="Helvetica,sans-Serif" font-size="9.00" fill="#000000">primary.ts</text>
</a>
</g>
</g>
<!-- src/Keyboard.tsx&#45;&gt;src/primary.ts -->
<g id="edge14" class="edge">
<title>src/Keyboard.tsx&#45;&gt;src/primary.ts</title>
<path fill="none" stroke="#000000" d="M608.9047,-178.7231C617.3037,-183.9304 627.1308,-191.2433 633.6577,-200.0226 662.34,-238.6029 636.0842,-267.6144 669.6577,-302.0226 669.9916,-302.3648 670.3347,-302.6987 670.6863,-303.0246"/>
<polygon fill="#000000" stroke="#000000" points="668.8271,-305.9934 679.0566,-308.7518 672.78,-300.2163 668.8271,-305.9934"/>
</g>
<!-- src/WindowSize.ts -->
<g id="node19" class="node">
<title>src/WindowSize.ts</title>
<g id="a_node19"><a xlink:href="src/WindowSize.ts" xlink:title="WindowSize.ts">
<path fill="#ffffcc" stroke="#000000" d="M509.9681,-162.5226C509.9681,-162.5226 446.2643,-162.5226 446.2643,-162.5226 443.431,-162.5226 440.5977,-159.6893 440.5977,-156.8559 440.5977,-156.8559 440.5977,-151.1893 440.5977,-151.1893 440.5977,-148.3559 443.431,-145.5226 446.2643,-145.5226 446.2643,-145.5226 509.9681,-145.5226 509.9681,-145.5226 512.8014,-145.5226 515.6348,-148.3559 515.6348,-151.1893 515.6348,-151.1893 515.6348,-156.8559 515.6348,-156.8559 515.6348,-159.6893 512.8014,-162.5226 509.9681,-162.5226"/>
<text text-anchor="middle" x="478.1162" y="-151.3226" font-family="Helvetica,sans-Serif" font-size="9.00" fill="#000000">WindowSize.ts</text>
</a>
</g>
</g>
<!-- src/Layout.tsx&#45;&gt;src/WindowSize.ts -->
<g id="edge15" class="edge">
<title>src/Layout.tsx&#45;&gt;src/WindowSize.ts</title>
<path fill="none" stroke="#000000" d="M388.0917,-157.8123C400.6882,-157.282 415.8167,-156.6452 430.0452,-156.0462"/>
<polygon fill="#000000" stroke="#000000" points="430.3537,-159.5364 440.1976,-155.6188 430.0592,-152.5426 430.3537,-159.5364"/>
</g>
<!-- src/Rotatable.tsx -->
<g id="node14" class="node">
<title>src/Rotatable.tsx</title>
<g id="a_node14"><a xlink:href="src/Rotatable.tsx" xlink:title="Rotatable.tsx">
<path fill="#ffffcc" stroke="#000000" d="M621.0044,-61.5226C621.0044,-61.5226 564.2788,-61.5226 564.2788,-61.5226 561.4455,-61.5226 558.6122,-58.6893 558.6122,-55.8559 558.6122,-55.8559 558.6122,-50.1893 558.6122,-50.1893 558.6122,-47.3559 561.4455,-44.5226 564.2788,-44.5226 564.2788,-44.5226 621.0044,-44.5226 621.0044,-44.5226 623.8377,-44.5226 626.671,-47.3559 626.671,-50.1893 626.671,-50.1893 626.671,-55.8559 626.671,-55.8559 626.671,-58.6893 623.8377,-61.5226 621.0044,-61.5226"/>
<text text-anchor="middle" x="592.6416" y="-50.3226" font-family="Helvetica,sans-Serif" font-size="9.00" fill="#000000">Rotatable.tsx</text>
</a>
</g>
</g>
<!-- src/Pie.tsx&#45;&gt;src/Rotatable.tsx -->
<g id="edge16" class="edge">
<title>src/Pie.tsx&#45;&gt;src/Rotatable.tsx</title>
<path fill="none" stroke="#000000" d="M505.4746,-175.834C509.1773,-174.0347 512.7016,-171.7982 515.6255,-169.0226 544.7876,-141.3394 527.2509,-118.0019 551.6255,-86.0226 556.8455,-79.1741 563.7789,-72.8966 570.4575,-67.6975"/>
<polygon fill="#000000" stroke="#000000" points="572.6213,-70.4513 578.6327,-61.727 568.4928,-64.7984 572.6213,-70.4513"/>
</g>
<!-- src/Pie.tsx&#45;&gt;src/Size.ts -->
<g id="edge17" class="edge">
<title>src/Pie.tsx&#45;&gt;src/Size.ts</title>
<path fill="none" stroke="#000000" d="M505.1776,-185.3086C536.2757,-188.091 588.7988,-193.2671 633.6577,-200.0226 645.2477,-201.768 657.8045,-204.0443 669.172,-206.2525"/>
<polygon fill="#000000" stroke="#000000" points="668.7254,-209.7321 679.2152,-208.2442 670.0871,-202.8658 668.7254,-209.7321"/>
</g>
<!-- src/Slice.tsx -->
<g id="node18" class="node">
<title>src/Slice.tsx</title>
<g id="a_node18"><a xlink:href="src/Slice.tsx" xlink:title="Slice.tsx">
<path fill="#ffffcc" stroke="#000000" d="M613.9749,-266.5226C613.9749,-266.5226 571.3083,-266.5226 571.3083,-266.5226 568.4749,-266.5226 565.6416,-263.6893 565.6416,-260.8559 565.6416,-260.8559 565.6416,-255.1893 565.6416,-255.1893 565.6416,-252.3559 568.4749,-249.5226 571.3083,-249.5226 571.3083,-249.5226 613.9749,-249.5226 613.9749,-249.5226 616.8083,-249.5226 619.6416,-252.3559 619.6416,-255.1893 619.6416,-255.1893 619.6416,-260.8559 619.6416,-260.8559 619.6416,-263.6893 616.8083,-266.5226 613.9749,-266.5226"/>
<text text-anchor="middle" x="592.6416" y="-255.3226" font-family="Helvetica,sans-Serif" font-size="9.00" fill="#000000">Slice.tsx</text>
</a>
</g>
</g>
<!-- src/Pie.tsx&#45;&gt;src/Slice.tsx -->
<g id="edge18" class="edge">
<title>src/Pie.tsx&#45;&gt;src/Slice.tsx</title>
<path fill="none" stroke="#000000" d="M487.5496,-191.5804C501.0315,-203.5112 526.9194,-225.3285 551.6255,-240.0226 554.6582,-241.8263 557.9044,-243.5561 561.1931,-245.1816"/>
<polygon fill="#000000" stroke="#000000" points="559.8873,-248.4339 570.4323,-249.4607 562.8292,-242.0821 559.8873,-248.4339"/>
</g>
<!-- src/modMinus.ts -->
<g id="node31" class="node">
<title>src/modMinus.ts</title>
<g id="a_node31"><a xlink:href="src/modMinus.ts" xlink:title="modMinus.ts">
<path fill="#ffffcc" stroke="#000000" d="M847.5511,-33.5226C847.5511,-33.5226 791.8522,-33.5226 791.8522,-33.5226 789.0189,-33.5226 786.1855,-30.6893 786.1855,-27.8559 786.1855,-27.8559 786.1855,-22.1893 786.1855,-22.1893 786.1855,-19.3559 789.0189,-16.5226 791.8522,-16.5226 791.8522,-16.5226 847.5511,-16.5226 847.5511,-16.5226 850.3844,-16.5226 853.2178,-19.3559 853.2178,-22.1893 853.2178,-22.1893 853.2178,-27.8559 853.2178,-27.8559 853.2178,-30.6893 850.3844,-33.5226 847.5511,-33.5226"/>
<text text-anchor="middle" x="819.7017" y="-22.3226" font-family="Helvetica,sans-Serif" font-size="9.00" fill="#000000">modMinus.ts</text>
</a>
</g>
</g>
<!-- src/Pie.tsx&#45;&gt;src/modMinus.ts -->
<g id="edge19" class="edge">
<title>src/Pie.tsx&#45;&gt;src/modMinus.ts</title>
<path fill="none" stroke="#000000" d="M505.4547,-176.376C509.2502,-174.4996 512.8076,-172.0972 515.6255,-169.0226 556.1329,-124.8251 506.1347,-78.072 551.6255,-39.0226 616.0098,16.245 724.4094,-.0192 781.6502,-14.0227"/>
<polygon fill="#000000" stroke="#000000" points="780.8321,-17.426 791.3868,-16.5046 782.5612,-10.6429 780.8321,-17.426"/>
</g>
<!-- src/Pie.tsx&#45;&gt;src/modPos.ts -->
<g id="edge20" class="edge">
<title>src/Pie.tsx&#45;&gt;src/modPos.ts</title>
<path fill="none" stroke="#000000" d="M488.8679,-191.6058C502.5991,-202.1124 527.4836,-219.6587 551.6255,-229.0226 586.1805,-242.4255 599.9606,-228.5893 633.6577,-244.0226 652.3374,-252.5779 651.8379,-262.7964 669.6577,-273.0226 670.1946,-273.3307 670.7395,-273.6345 671.2912,-273.934"/>
<polygon fill="#000000" stroke="#000000" points="670.0975,-277.2424 680.6299,-278.3913 673.1128,-270.9251 670.0975,-277.2424"/>
</g>
<!-- src/Pie.tsx&#45;&gt;src/playable.tsx -->
<g id="edge21" class="edge">
<title>src/Pie.tsx&#45;&gt;src/playable.tsx</title>
<path fill="none" stroke="#000000" d="M501.0745,-174.4917C520.7244,-167.2064 546.6155,-157.6522 551.6255,-156.0226 589.7445,-143.6238 633.7572,-131.3025 665.0846,-122.8662"/>
<polygon fill="#000000" stroke="#000000" points="666.0321,-126.2359 674.7865,-120.2685 664.2215,-119.474 666.0321,-126.2359"/>
</g>
<!-- src/Pie.tsx&#45;&gt;src/pressedNotes.ts -->
<g id="edge22" class="edge">
<title>src/Pie.tsx&#45;&gt;src/pressedNotes.ts</title>
<path fill="none" stroke="#000000" d="M505.1341,-174.7496C508.8027,-173.1146 512.4076,-171.2128 515.6255,-169.0226 535.3978,-155.5651 531.2029,-141.4712 551.6255,-129.0226 597.9379,-100.793 615.8664,-104.9687 669.6577,-98.0226 702.0681,-93.8375 710.6407,-95.0697 743.1865,-98.0226 752.0787,-98.8294 761.4816,-100.1533 770.5382,-101.6734"/>
<polygon fill="#000000" stroke="#000000" points="770.1124,-105.1525 780.5705,-103.4559 771.337,-98.2605 770.1124,-105.1525"/>
</g>
<!-- src/Pie.tsx&#45;&gt;src/primary.ts -->
<g id="edge23" class="edge">
<title>src/Pie.tsx&#45;&gt;src/primary.ts</title>
<path fill="none" stroke="#000000" d="M482.4295,-191.6609C492.0658,-209.981 517.2288,-252.7123 551.6255,-273.0226 583.5403,-291.8675 597.9959,-277.927 633.6577,-288.0226 650.1759,-292.6988 653.6359,-295.8568 669.6577,-302.0226 671.2353,-302.6297 672.8515,-303.2503 674.4841,-303.8761"/>
<polygon fill="#000000" stroke="#000000" points="673.2683,-307.1583 683.8589,-307.4592 675.7675,-300.6196 673.2683,-307.1583"/>
</g>
<!-- src/Playable.tsx -->
<g id="node9" class="node">
<title>src/Playable.tsx</title>
<g id="a_node9"><a xlink:href="src/Playable.tsx" xlink:title="Playable.tsx">
<path fill="#ffffcc" stroke="#000000" d="M732.7816,-76.5226C732.7816,-76.5226 680.0626,-76.5226 680.0626,-76.5226 677.2293,-76.5226 674.396,-73.6893 674.396,-70.8559 674.396,-70.8559 674.396,-65.1893 674.396,-65.1893 674.396,-62.3559 677.2293,-59.5226 680.0626,-59.5226 680.0626,-59.5226 732.7816,-59.5226 732.7816,-59.5226 735.6149,-59.5226 738.4483,-62.3559 738.4483,-65.1893 738.4483,-65.1893 738.4483,-70.8559 738.4483,-70.8559 738.4483,-73.6893 735.6149,-76.5226 732.7816,-76.5226"/>
<text text-anchor="middle" x="706.4221" y="-65.3226" font-family="Helvetica,sans-Serif" font-size="9.00" fill="#000000">Playable.tsx</text>
</a>
</g>
</g>
<!-- src/noise.ts -->
<g id="node33" class="node">
<title>src/noise.ts</title>
<g id="a_node33"><a xlink:href="src/noise.ts" xlink:title="noise.ts">
<path fill="#ffffcc" stroke="#000000" d="M841.035,-91.5226C841.035,-91.5226 798.3683,-91.5226 798.3683,-91.5226 795.535,-91.5226 792.7017,-88.6893 792.7017,-85.8559 792.7017,-85.8559 792.7017,-80.1893 792.7017,-80.1893 792.7017,-77.3559 795.535,-74.5226 798.3683,-74.5226 798.3683,-74.5226 841.035,-74.5226 841.035,-74.5226 843.8683,-74.5226 846.7017,-77.3559 846.7017,-80.1893 846.7017,-80.1893 846.7017,-85.8559 846.7017,-85.8559 846.7017,-88.6893 843.8683,-91.5226 841.035,-91.5226"/>
<text text-anchor="middle" x="819.7017" y="-80.3226" font-family="Helvetica,sans-Serif" font-size="9.00" fill="#000000">noise.ts</text>
</a>
</g>
</g>
<!-- src/Playable.tsx&#45;&gt;src/noise.ts -->
<g id="edge24" class="edge">
<title>src/Playable.tsx&#45;&gt;src/noise.ts</title>
<path fill="none" stroke="#000000" d="M738.5805,-72.2809C752.2657,-74.093 768.312,-76.2178 782.5047,-78.0971"/>
<polygon fill="#000000" stroke="#000000" points="782.0783,-81.5712 792.4513,-79.4142 782.9973,-74.6317 782.0783,-81.5712"/>
</g>
<!-- src/Playable.tsx&#45;&gt;src/pressedNotes.ts -->
<g id="edge25" class="edge">
<title>src/Playable.tsx&#45;&gt;src/pressedNotes.ts</title>
<path fill="none" stroke="#000000" d="M726.3724,-76.6159C740.924,-82.7936 761.1678,-91.2016 779.1865,-98.0226 781.0135,-98.7142 782.8918,-99.4112 784.7917,-100.1052"/>
<polygon fill="#000000" stroke="#000000" points="783.7387,-103.4455 794.3333,-103.5112 786.092,-96.853 783.7387,-103.4455"/>
</g>
<!-- src/Point.ts -->
<g id="node10" class="node">
<title>src/Point.ts</title>
<g id="a_node10"><a xlink:href="src/Point.ts" xlink:title="Point.ts">
<path fill="#ffffcc" stroke="#000000" d="M84.8512,-295.5226C84.8512,-295.5226 42.1845,-295.5226 42.1845,-295.5226 39.3512,-295.5226 36.5178,-292.6893 36.5178,-289.8559 36.5178,-289.8559 36.5178,-284.1893 36.5178,-284.1893 36.5178,-281.3559 39.3512,-278.5226 42.1845,-278.5226 42.1845,-278.5226 84.8512,-278.5226 84.8512,-278.5226 87.6845,-278.5226 90.5178,-281.3559 90.5178,-284.1893 90.5178,-284.1893 90.5178,-289.8559 90.5178,-289.8559 90.5178,-292.6893 87.6845,-295.5226 84.8512,-295.5226"/>
<text text-anchor="middle" x="63.5178" y="-284.3226" font-family="Helvetica,sans-Serif" font-size="9.00" fill="#000000">Point.ts</text>
</a>
</g>
</g>
<!-- src/PolarPoint.ts -->
<g id="node11" class="node">
<title>src/PolarPoint.ts</title>
<g id="a_node11"><a xlink:href="src/PolarPoint.ts" xlink:title="PolarPoint.ts">
<path fill="#ffffcc" stroke="#000000" d="M91.3761,-266.5226C91.3761,-266.5226 35.6596,-266.5226 35.6596,-266.5226 32.8262,-266.5226 29.9929,-263.6893 29.9929,-260.8559 29.9929,-260.8559 29.9929,-255.1893 29.9929,-255.1893 29.9929,-252.3559 32.8262,-249.5226 35.6596,-249.5226 35.6596,-249.5226 91.3761,-249.5226 91.3761,-249.5226 94.2094,-249.5226 97.0427,-252.3559 97.0427,-255.1893 97.0427,-255.1893 97.0427,-260.8559 97.0427,-260.8559 97.0427,-263.6893 94.2094,-266.5226 91.3761,-266.5226"/>
<text text-anchor="middle" x="63.5178" y="-255.3226" font-family="Helvetica,sans-Serif" font-size="9.00" fill="#000000">PolarPoint.ts</text>
</a>
</g>
</g>
<!-- src/PresetButton.tsx -->
<g id="node12" class="node">
<title>src/PresetButton.tsx</title>
<g id="a_node12"><a xlink:href="src/PresetButton.tsx" xlink:title="PresetButton.tsx">
<path fill="#ffffcc" stroke="#000000" d="M628.0072,-339.5226C628.0072,-339.5226 557.276,-339.5226 557.276,-339.5226 554.4427,-339.5226 551.6094,-336.6893 551.6094,-333.8559 551.6094,-333.8559 551.6094,-328.1893 551.6094,-328.1893 551.6094,-325.3559 554.4427,-322.5226 557.276,-322.5226 557.276,-322.5226 628.0072,-322.5226 628.0072,-322.5226 630.8405,-322.5226 633.6738,-325.3559 633.6738,-328.1893 633.6738,-328.1893 633.6738,-333.8559 633.6738,-333.8559 633.6738,-336.6893 630.8405,-339.5226 628.0072,-339.5226"/>
<text text-anchor="middle" x="592.6416" y="-328.3226" font-family="Helvetica,sans-Serif" font-size="9.00" fill="#000000">PresetButton.tsx</text>
</a>
</g>
</g>
<!-- src/PresetButton.tsx&#45;&gt;src/Size.ts -->
<g id="edge26" class="edge">
<title>src/PresetButton.tsx&#45;&gt;src/Size.ts</title>
<path fill="none" stroke="#000000" d="M625.7307,-322.4017C628.5843,-320.8864 631.2835,-319.1083 633.6577,-317.0226 660.8356,-293.1479 647.1294,-272.3266 669.6577,-244.0226 674.0345,-238.5237 679.5771,-233.3582 685.0224,-228.9145"/>
<polygon fill="#000000" stroke="#000000" points="687.4931,-231.4316 693.3177,-222.5815 683.2454,-225.8677 687.4931,-231.4316"/>
</g>
<!-- src/background.ts -->
<g id="node21" class="node">
<title>src/background.ts</title>
<g id="a_node21"><a xlink:href="src/background.ts" xlink:title="background.ts">
<path fill="#ffffcc" stroke="#000000" d="M736.7926,-353.5226C736.7926,-353.5226 676.0517,-353.5226 676.0517,-353.5226 673.2183,-353.5226 670.385,-350.6893 670.385,-347.8559 670.385,-347.8559 670.385,-342.1893 670.385,-342.1893 670.385,-339.3559 673.2183,-336.5226 676.0517,-336.5226 676.0517,-336.5226 736.7926,-336.5226 736.7926,-336.5226 739.6259,-336.5226 742.4592,-339.3559 742.4592,-342.1893 742.4592,-342.1893 742.4592,-347.8559 742.4592,-347.8559 742.4592,-350.6893 739.6259,-353.5226 736.7926,-353.5226"/>
<text text-anchor="middle" x="706.4221" y="-342.3226" font-family="Helvetica,sans-Serif" font-size="9.00" fill="#000000">background.ts</text>
</a>
</g>
</g>
<!-- src/PresetButton.tsx&#45;&gt;src/background.ts -->
<g id="edge27" class="edge">
<title>src/PresetButton.tsx&#45;&gt;src/background.ts</title>
<path fill="none" stroke="#000000" d="M633.719,-336.0769C642.3203,-337.1353 651.4454,-338.2581 660.2188,-339.3376"/>
<polygon fill="#000000" stroke="#000000" points="659.9514,-342.831 670.304,-340.5785 660.8063,-335.8834 659.9514,-342.831"/>
</g>
<!-- src/PresetButton.tsx&#45;&gt;src/primary.ts -->
<g id="edge28" class="edge">
<title>src/PresetButton.tsx&#45;&gt;src/primary.ts</title>
<path fill="none" stroke="#000000" d="M633.719,-325.6073C645.2205,-324.091 657.6588,-322.4512 668.9402,-320.964"/>
<polygon fill="#000000" stroke="#000000" points="669.4586,-324.426 678.9153,-319.6489 668.5436,-317.486 669.4586,-324.426"/>
</g>
<!-- src/Presets.tsx -->
<g id="node13" class="node">
<title>src/Presets.tsx</title>
<g id="a_node13"><a xlink:href="src/Presets.tsx" xlink:title="Presets.tsx">
<path fill="#ffffcc" stroke="#000000" d="M236.901,-307.5226C236.901,-307.5226 188.206,-307.5226 188.206,-307.5226 185.3726,-307.5226 182.5393,-304.6893 182.5393,-301.8559 182.5393,-301.8559 182.5393,-296.1893 182.5393,-296.1893 182.5393,-293.3559 185.3726,-290.5226 188.206,-290.5226 188.206,-290.5226 236.901,-290.5226 236.901,-290.5226 239.7343,-290.5226 242.5676,-293.3559 242.5676,-296.1893 242.5676,-296.1893 242.5676,-301.8559 242.5676,-301.8559 242.5676,-304.6893 239.7343,-307.5226 236.901,-307.5226"/>
<text text-anchor="middle" x="212.5535" y="-296.3226" font-family="Helvetica,sans-Serif" font-size="9.00" fill="#000000">Presets.tsx</text>
</a>
</g>
</g>
<!-- src/Presets.tsx&#45;&gt;src/PresetButton.tsx -->
<g id="edge29" class="edge">
<title>src/Presets.tsx&#45;&gt;src/PresetButton.tsx</title>
<path fill="none" stroke="#000000" d="M242.696,-301.5604C307.4752,-307.0142 460.6003,-319.9059 541.1159,-326.6846"/>
<polygon fill="#000000" stroke="#000000" points="541.2488,-330.2081 551.5072,-327.5595 541.8361,-323.2328 541.2488,-330.2081"/>
</g>
<!-- src/Presets.tsx&#45;&gt;src/scaleIndex.ts -->
<g id="edge30" class="edge">
<title>src/Presets.tsx&#45;&gt;src/scaleIndex.ts</title>
<path fill="none" stroke="#000000" d="M242.8437,-297.9313C288.992,-296.0795 374.702,-291.844 404.6069,-285.0226 420.6442,-281.3645 437.7838,-274.7717 451.4754,-268.7955"/>
<polygon fill="#000000" stroke="#000000" points="453.0935,-271.9053 460.7706,-264.6037 450.2158,-265.5242 453.0935,-271.9053"/>
</g>
<!-- src/scales.ts -->
<g id="node40" class="node">
<title>src/scales.ts</title>
<g id="a_node40"><a xlink:href="src/scales.ts" xlink:title="scales.ts">
<path fill="#ffffcc" stroke="#000000" d="M499.4495,-310.5226C499.4495,-310.5226 456.7829,-310.5226 456.7829,-310.5226 453.9495,-310.5226 451.1162,-307.6893 451.1162,-304.8559 451.1162,-304.8559 451.1162,-299.1893 451.1162,-299.1893 451.1162,-296.3559 453.9495,-293.5226 456.7829,-293.5226 456.7829,-293.5226 499.4495,-293.5226 499.4495,-293.5226 502.2829,-293.5226 505.1162,-296.3559 505.1162,-299.1893 505.1162,-299.1893 505.1162,-304.8559 505.1162,-304.8559 505.1162,-307.6893 502.2829,-310.5226 499.4495,-310.5226"/>
<text text-anchor="middle" x="478.1162" y="-299.3226" font-family="Helvetica,sans-Serif" font-size="9.00" fill="#000000">scales.ts</text>
</a>
</g>
</g>
<!-- src/Presets.tsx&#45;&gt;src/scales.ts -->
<g id="edge31" class="edge">
<title>src/Presets.tsx&#45;&gt;src/scales.ts</title>
<path fill="none" stroke="#000000" d="M242.7583,-299.3638C291.571,-299.9153 387.6717,-301.0009 440.7281,-301.6003"/>
<polygon fill="#000000" stroke="#000000" points="440.6998,-305.1001 450.7387,-301.7133 440.7789,-298.1005 440.6998,-305.1001"/>
</g>
<!-- src/selectScale.ts -->
<g id="node42" class="node">
<title>src/selectScale.ts</title>
<g id="a_node42"><a xlink:href="src/selectScale.ts" xlink:title="selectScale.ts">
<path fill="#ffffcc" stroke="#000000" d="M389.1989,-278.5226C389.1989,-278.5226 329.4793,-278.5226 329.4793,-278.5226 326.646,-278.5226 323.8126,-275.6893 323.8126,-272.8559 323.8126,-272.8559 323.8126,-267.1893 323.8126,-267.1893 323.8126,-264.3559 326.646,-261.5226 329.4793,-261.5226 329.4793,-261.5226 389.1989,-261.5226 389.1989,-261.5226 392.0322,-261.5226 394.8656,-264.3559 394.8656,-267.1893 394.8656,-267.1893 394.8656,-272.8559 394.8656,-272.8559 394.8656,-275.6893 392.0322,-278.5226 389.1989,-278.5226"/>
<text text-anchor="middle" x="359.3391" y="-267.3226" font-family="Helvetica,sans-Serif" font-size="9.00" fill="#000000">selectScale.ts</text>
</a>
</g>
</g>
<!-- src/Presets.tsx&#45;&gt;src/selectScale.ts -->
<g id="edge32" class="edge">
<title>src/Presets.tsx&#45;&gt;src/selectScale.ts</title>
<path fill="none" stroke="#000000" d="M242.6119,-293.0841C263.0696,-289.0423 290.5258,-283.6179 313.67,-279.0453"/>
<polygon fill="#000000" stroke="#000000" points="314.4929,-282.4505 323.6249,-277.0786 313.1361,-275.5832 314.4929,-282.4505"/>
</g>
<!-- src/RotateStore.ts -->
<g id="node15" class="node">
<title>src/RotateStore.ts</title>
<g id="a_node15"><a xlink:href="src/RotateStore.ts" xlink:title="RotateStore.ts">
<path fill="#ffffcc" stroke="#000000" d="M737.2858,-47.5226C737.2858,-47.5226 675.5585,-47.5226 675.5585,-47.5226 672.7251,-47.5226 669.8918,-44.6893 669.8918,-41.8559 669.8918,-41.8559 669.8918,-36.1893 669.8918,-36.1893 669.8918,-33.3559 672.7251,-30.5226 675.5585,-30.5226 675.5585,-30.5226 737.2858,-30.5226 737.2858,-30.5226 740.1191,-30.5226 742.9524,-33.3559 742.9524,-36.1893 742.9524,-36.1893 742.9524,-41.8559 742.9524,-41.8559 742.9524,-44.6893 740.1191,-47.5226 737.2858,-47.5226"/>
<text text-anchor="middle" x="706.4221" y="-36.3226" font-family="Helvetica,sans-Serif" font-size="9.00" fill="#000000">RotateStore.ts</text>
</a>
</g>
</g>
<!-- src/Rotatable.tsx&#45;&gt;src/RotateStore.ts -->
<g id="edge33" class="edge">
<title>src/Rotatable.tsx&#45;&gt;src/RotateStore.ts</title>
<path fill="none" stroke="#000000" d="M626.7795,-48.8222C636.9982,-47.5648 648.3895,-46.1632 659.2883,-44.8221"/>
<polygon fill="#000000" stroke="#000000" points="660.0347,-48.2568 669.5324,-43.5617 659.1798,-41.3092 660.0347,-48.2568"/>
</g>
<!-- src/RotateStore.ts&#45;&gt;src/modMinus.ts -->
<g id="edge34" class="edge">
<title>src/RotateStore.ts&#45;&gt;src/modMinus.ts</title>
<path fill="none" stroke="#000000" d="M743.2007,-34.4772C753.6776,-33.1824 765.1925,-31.7593 776.0368,-30.4191"/>
<polygon fill="#000000" stroke="#000000" points="776.6775,-33.8666 786.1727,-29.1664 775.8188,-26.9195 776.6775,-33.8666"/>
</g>
<!-- src/polarize.ts -->
<g id="node35" class="node">
<title>src/polarize.ts</title>
<g id="a_node35"><a xlink:href="src/polarize.ts" xlink:title="polarize.ts">
<path fill="#ffffcc" stroke="#000000" d="M842.5536,-62.5226C842.5536,-62.5226 796.8498,-62.5226 796.8498,-62.5226 794.0164,-62.5226 791.1831,-59.6893 791.1831,-56.8559 791.1831,-56.8559 791.1831,-51.1893 791.1831,-51.1893 791.1831,-48.3559 794.0164,-45.5226 796.8498,-45.5226 796.8498,-45.5226 842.5536,-45.5226 842.5536,-45.5226 845.3869,-45.5226 848.2202,-48.3559 848.2202,-51.1893 848.2202,-51.1893 848.2202,-56.8559 848.2202,-56.8559 848.2202,-59.6893 845.3869,-62.5226 842.5536,-62.5226"/>
<text text-anchor="middle" x="819.7017" y="-51.3226" font-family="Helvetica,sans-Serif" font-size="9.00" fill="#000000">polarize.ts</text>
</a>
</g>
</g>
<!-- src/RotateStore.ts&#45;&gt;src/polarize.ts -->
<g id="edge35" class="edge">
<title>src/RotateStore.ts&#45;&gt;src/polarize.ts</title>
<path fill="none" stroke="#000000" d="M743.2007,-43.8927C755.3139,-45.4967 768.8146,-47.2844 781.0622,-48.9061"/>
<polygon fill="#000000" stroke="#000000" points="780.6245,-52.3787 790.9975,-50.2217 781.5435,-45.4392 780.6245,-52.3787"/>
</g>
<!-- src/Scale.ts -->
<g id="node16" class="node">
<title>src/Scale.ts</title>
<g id="a_node16"><a xlink:href="src/Scale.ts" xlink:title="Scale.ts">
<path fill="#ffffcc" stroke="#000000" d="M613.9749,-310.5226C613.9749,-310.5226 571.3083,-310.5226 571.3083,-310.5226 568.4749,-310.5226 565.6416,-307.6893 565.6416,-304.8559 565.6416,-304.8559 565.6416,-299.1893 565.6416,-299.1893 565.6416,-296.3559 568.4749,-293.5226 571.3083,-293.5226 571.3083,-293.5226 613.9749,-293.5226 613.9749,-293.5226 616.8083,-293.5226 619.6416,-296.3559 619.6416,-299.1893 619.6416,-299.1893 619.6416,-304.8559 619.6416,-304.8559 619.6416,-307.6893 616.8083,-310.5226 613.9749,-310.5226"/>
<text text-anchor="middle" x="592.6416" y="-299.3226" font-family="Helvetica,sans-Serif" font-size="9.00" fill="#000000">Scale.ts</text>
</a>
</g>
</g>
<!-- src/Scale.ts&#45;&gt;src/modPos.ts -->
<g id="edge36" class="edge">
<title>src/Scale.ts&#45;&gt;src/modPos.ts</title>
<path fill="none" stroke="#000000" d="M619.8949,-298.4297C634.1326,-296.5527 651.8062,-294.2228 667.462,-292.1588"/>
<polygon fill="#000000" stroke="#000000" points="667.9455,-295.6255 677.4023,-290.8484 667.0306,-288.6855 667.9455,-295.6255"/>
</g>
<!-- src/Slice.tsx&#45;&gt;src/accent.ts -->
<g id="edge37" class="edge">
<title>src/Slice.tsx&#45;&gt;src/accent.ts</title>
<path fill="none" stroke="#000000" d="M619.8949,-258.0226C634.6719,-258.0226 653.1501,-258.0226 669.2321,-258.0226"/>
<polygon fill="#000000" stroke="#000000" points="669.3913,-261.5227 679.3912,-258.0226 669.3912,-254.5227 669.3913,-261.5227"/>
</g>
<!-- src/Slice.tsx&#45;&gt;src/modPos.ts -->
<g id="edge38" class="edge">
<title>src/Slice.tsx&#45;&gt;src/modPos.ts</title>
<path fill="none" stroke="#000000" d="M619.8949,-264.9688C634.1326,-268.5977 651.8062,-273.1023 667.462,-277.0926"/>
<polygon fill="#000000" stroke="#000000" points="666.8476,-280.5478 677.4023,-279.6261 668.5765,-273.7647 666.8476,-280.5478"/>
</g>
<!-- src/Slice.tsx&#45;&gt;src/primary.ts -->
<g id="edge39" class="edge">
<title>src/Slice.tsx&#45;&gt;src/primary.ts</title>
<path fill="none" stroke="#000000" d="M614.3503,-266.5298C620.7093,-269.2918 627.5824,-272.548 633.6577,-276.0226 650.7902,-285.821 652.2871,-292.6529 669.6577,-302.0226 670.334,-302.3874 671.0218,-302.7471 671.7188,-303.1016"/>
<polygon fill="#000000" stroke="#000000" points="670.5618,-306.4208 681.1121,-307.3904 673.4691,-300.0531 670.5618,-306.4208"/>
</g>
<!-- src/red.ts -->
<g id="node38" class="node">
<title>src/red.ts</title>
<g id="a_node38"><a xlink:href="src/red.ts" xlink:title="red.ts">
<path fill="#ffffcc" stroke="#000000" d="M841.035,-266.5226C841.035,-266.5226 798.3683,-266.5226 798.3683,-266.5226 795.535,-266.5226 792.7017,-263.6893 792.7017,-260.8559 792.7017,-260.8559 792.7017,-255.1893 792.7017,-255.1893 792.7017,-252.3559 795.535,-249.5226 798.3683,-249.5226 798.3683,-249.5226 841.035,-249.5226 841.035,-249.5226 843.8683,-249.5226 846.7017,-252.3559 846.7017,-255.1893 846.7017,-255.1893 846.7017,-260.8559 846.7017,-260.8559 846.7017,-263.6893 843.8683,-266.5226 841.035,-266.5226"/>
<text text-anchor="middle" x="819.7017" y="-255.3226" font-family="Helvetica,sans-Serif" font-size="9.00" fill="#000000">red.ts</text>
</a>
</g>
</g>
<!-- src/accent.ts&#45;&gt;src/red.ts -->
<g id="edge40" class="edge">
<title>src/accent.ts&#45;&gt;src/red.ts</title>
<path fill="none" stroke="#000000" d="M733.5554,-258.0226C748.1599,-258.0226 766.3958,-258.0226 782.3244,-258.0226"/>
<polygon fill="#000000" stroke="#000000" points="782.3972,-261.5227 792.3972,-258.0226 782.3971,-254.5227 782.3972,-261.5227"/>
</g>
<!-- src/white.ts -->
<g id="node44" class="node">
<title>src/white.ts</title>
<g id="a_node44"><a xlink:href="src/white.ts" xlink:title="white.ts">
<path fill="#ffffcc" stroke="#000000" d="M841.035,-353.5226C841.035,-353.5226 798.3683,-353.5226 798.3683,-353.5226 795.535,-353.5226 792.7017,-350.6893 792.7017,-347.8559 792.7017,-347.8559 792.7017,-342.1893 792.7017,-342.1893 792.7017,-339.3559 795.535,-336.5226 798.3683,-336.5226 798.3683,-336.5226 841.035,-336.5226 841.035,-336.5226 843.8683,-336.5226 846.7017,-339.3559 846.7017,-342.1893 846.7017,-342.1893 846.7017,-347.8559 846.7017,-347.8559 846.7017,-350.6893 843.8683,-353.5226 841.035,-353.5226"/>
<text text-anchor="middle" x="819.7017" y="-342.3226" font-family="Helvetica,sans-Serif" font-size="9.00" fill="#000000">white.ts</text>
</a>
</g>
</g>
<!-- src/background.ts&#45;&gt;src/white.ts -->
<g id="edge41" class="edge">
<title>src/background.ts&#45;&gt;src/white.ts</title>
<path fill="none" stroke="#000000" d="M742.5759,-345.0226C755.2224,-345.0226 769.4437,-345.0226 782.1979,-345.0226"/>
<polygon fill="#000000" stroke="#000000" points="782.4998,-348.5227 792.4997,-345.0226 782.4997,-341.5227 782.4998,-348.5227"/>
</g>
<!-- src/black.ts -->
<g id="node22" class="node">
<title>src/black.ts</title>
<g id="a_node22"><a xlink:href="src/black.ts" xlink:title="black.ts">
<path fill="#ffffcc" stroke="#000000" d="M84.8512,-237.5226C84.8512,-237.5226 42.1845,-237.5226 42.1845,-237.5226 39.3512,-237.5226 36.5178,-234.6893 36.5178,-231.8559 36.5178,-231.8559 36.5178,-226.1893 36.5178,-226.1893 36.5178,-223.3559 39.3512,-220.5226 42.1845,-220.5226 42.1845,-220.5226 84.8512,-220.5226 84.8512,-220.5226 87.6845,-220.5226 90.5178,-223.3559 90.5178,-226.1893 90.5178,-226.1893 90.5178,-231.8559 90.5178,-231.8559 90.5178,-234.6893 87.6845,-237.5226 84.8512,-237.5226"/>
<text text-anchor="middle" x="63.5178" y="-226.3226" font-family="Helvetica,sans-Serif" font-size="9.00" fill="#000000">black.ts</text>
</a>
</g>
</g>
<!-- src/blue.ts -->
<g id="node23" class="node">
<title>src/blue.ts</title>
<g id="a_node23"><a xlink:href="src/blue.ts" xlink:title="blue.ts">
<path fill="#ffffcc" stroke="#000000" d="M841.035,-324.5226C841.035,-324.5226 798.3683,-324.5226 798.3683,-324.5226 795.535,-324.5226 792.7017,-321.6893 792.7017,-318.8559 792.7017,-318.8559 792.7017,-313.1893 792.7017,-313.1893 792.7017,-310.3559 795.535,-307.5226 798.3683,-307.5226 798.3683,-307.5226 841.035,-307.5226 841.035,-307.5226 843.8683,-307.5226 846.7017,-310.3559 846.7017,-313.1893 846.7017,-313.1893 846.7017,-318.8559 846.7017,-318.8559 846.7017,-321.6893 843.8683,-324.5226 841.035,-324.5226"/>
<text text-anchor="middle" x="819.7017" y="-313.3226" font-family="Helvetica,sans-Serif" font-size="9.00" fill="#000000">blue.ts</text>
</a>
</g>
</g>
<!-- src/getCurrentScale.ts&#45;&gt;src/scaleIndex.ts -->
<g id="edge42" class="edge">
<title>src/getCurrentScale.ts&#45;&gt;src/scaleIndex.ts</title>
<path fill="none" stroke="#000000" d="M404.5825,-246.7363C414.2115,-247.9523 424.3673,-249.2348 433.9552,-250.4457"/>
<polygon fill="#000000" stroke="#000000" points="433.7247,-253.9443 444.0844,-251.7248 434.6018,-246.9994 433.7247,-253.9443"/>
</g>
<!-- src/getCurrentScale.ts&#45;&gt;src/scales.ts -->
<g id="edge43" class="edge">
<title>src/getCurrentScale.ts&#45;&gt;src/scales.ts</title>
<path fill="none" stroke="#000000" d="M388.4791,-249.5337C393.9302,-251.4455 399.5123,-253.6269 404.6069,-256.0226 423.382,-264.8516 443.2457,-277.5055 457.5848,-287.3076"/>
<polygon fill="#000000" stroke="#000000" points="455.9368,-290.425 466.143,-293.2683 459.9375,-284.6809 455.9368,-290.425"/>
</g>
<!-- src/gray.ts -->
<g id="node25" class="node">
<title>src/gray.ts</title>
<g id="a_node25"><a xlink:href="src/gray.ts" xlink:title="gray.ts">
<path fill="#ffffcc" stroke="#000000" d="M84.8512,-208.5226C84.8512,-208.5226 42.1845,-208.5226 42.1845,-208.5226 39.3512,-208.5226 36.5178,-205.6893 36.5178,-202.8559 36.5178,-202.8559 36.5178,-197.1893 36.5178,-197.1893 36.5178,-194.3559 39.3512,-191.5226 42.1845,-191.5226 42.1845,-191.5226 84.8512,-191.5226 84.8512,-191.5226 87.6845,-191.5226 90.5178,-194.3559 90.5178,-197.1893 90.5178,-197.1893 90.5178,-202.8559 90.5178,-202.8559 90.5178,-205.6893 87.6845,-208.5226 84.8512,-208.5226"/>
<text text-anchor="middle" x="63.5178" y="-197.3226" font-family="Helvetica,sans-Serif" font-size="9.00" fill="#000000">gray.ts</text>
</a>
</g>
</g>
<!-- src/green.ts -->
<g id="node26" class="node">
<title>src/green.ts</title>
<g id="a_node26"><a xlink:href="src/green.ts" xlink:title="green.ts">
<path fill="#ffffcc" stroke="#000000" d="M233.8868,-99.5226C233.8868,-99.5226 191.2201,-99.5226 191.2201,-99.5226 188.3868,-99.5226 185.5535,-96.6893 185.5535,-93.8559 185.5535,-93.8559 185.5535,-88.1893 185.5535,-88.1893 185.5535,-85.3559 188.3868,-82.5226 191.2201,-82.5226 191.2201,-82.5226 233.8868,-82.5226 233.8868,-82.5226 236.7201,-82.5226 239.5535,-85.3559 239.5535,-88.1893 239.5535,-88.1893 239.5535,-93.8559 239.5535,-93.8559 239.5535,-96.6893 236.7201,-99.5226 233.8868,-99.5226"/>
<text text-anchor="middle" x="212.5535" y="-88.3226" font-family="Helvetica,sans-Serif" font-size="9.00" fill="#000000">green.ts</text>
</a>
</g>
</g>
<!-- src/index.tsx -->
<g id="node28" class="node">
<title>src/index.tsx</title>
<g id="a_node28"><a xlink:href="src/index.tsx" xlink:title="index.tsx">
<path fill="#ffffcc" stroke="#000000" d="M84.8512,-179.5226C84.8512,-179.5226 42.1845,-179.5226 42.1845,-179.5226 39.3512,-179.5226 36.5178,-176.6893 36.5178,-173.8559 36.5178,-173.8559 36.5178,-168.1893 36.5178,-168.1893 36.5178,-165.3559 39.3512,-162.5226 42.1845,-162.5226 42.1845,-162.5226 84.8512,-162.5226 84.8512,-162.5226 87.6845,-162.5226 90.5178,-165.3559 90.5178,-168.1893 90.5178,-168.1893 90.5178,-173.8559 90.5178,-173.8559 90.5178,-176.6893 87.6845,-179.5226 84.8512,-179.5226"/>
<text text-anchor="middle" x="63.5178" y="-168.3226" font-family="Helvetica,sans-Serif" font-size="9.00" fill="#000000">index.tsx</text>
</a>
</g>
</g>
<!-- src/index.tsx&#45;&gt;src/App.tsx -->
<g id="edge44" class="edge">
<title>src/index.tsx&#45;&gt;src/App.tsx</title>
<path fill="none" stroke="#000000" d="M90.8533,-175.9748C114.5928,-180.2756 149.1854,-186.5426 175.4274,-191.2967"/>
<polygon fill="#000000" stroke="#000000" points="174.9275,-194.763 185.3913,-193.1018 176.1754,-187.8751 174.9275,-194.763"/>
</g>
<!-- src/selectScaleFromKeyPress.ts -->
<g id="node43" class="node">
<title>src/selectScaleFromKeyPress.ts</title>
<g id="a_node43"><a xlink:href="src/selectScaleFromKeyPress.ts" xlink:title="selectScaleFromKeyPress.ts">
<path fill="#ffffcc" stroke="#000000" d="M272.4224,-255.5226C272.4224,-255.5226 152.6845,-255.5226 152.6845,-255.5226 149.8512,-255.5226 147.0178,-252.6893 147.0178,-249.8559 147.0178,-249.8559 147.0178,-244.1893 147.0178,-244.1893 147.0178,-241.3559 149.8512,-238.5226 152.6845,-238.5226 152.6845,-238.5226 272.4224,-238.5226 272.4224,-238.5226 275.2558,-238.5226 278.0891,-241.3559 278.0891,-244.1893 278.0891,-244.1893 278.0891,-249.8559 278.0891,-249.8559 278.0891,-252.6893 275.2558,-255.5226 272.4224,-255.5226"/>
<text text-anchor="middle" x="212.5535" y="-244.3226" font-family="Helvetica,sans-Serif" font-size="9.00" fill="#000000">selectScaleFromKeyPress.ts</text>
</a>
</g>
</g>
<!-- src/index.tsx&#45;&gt;src/selectScaleFromKeyPress.ts -->
<g id="edge45" class="edge">
<title>src/index.tsx&#45;&gt;src/selectScaleFromKeyPress.ts</title>
<path fill="none" stroke="#000000" d="M90.7883,-177.8984C97.5832,-180.0766 104.7261,-182.7807 111.0356,-186.0226 128.8248,-195.1629 130.1022,-202.3804 147.0356,-213.0226 159.1073,-220.6093 173.0611,-228.0235 184.981,-233.9822"/>
<polygon fill="#000000" stroke="#000000" points="183.5107,-237.1593 194.0297,-238.4243 186.5955,-230.8756 183.5107,-237.1593"/>
</g>
<!-- src/keyboard.tsx&#45;&gt;src/Draggable.ts -->
<g id="edge46" class="edge">
<title>src/keyboard.tsx&#45;&gt;src/Draggable.ts</title>
<path fill="none" stroke="#000000" d="M626.1641,-205.4785C637.6356,-202.5547 650.6415,-199.2398 662.7926,-196.1428"/>
<polygon fill="#000000" stroke="#000000" points="663.9203,-199.4673 672.746,-193.6059 662.1914,-192.6842 663.9203,-199.4673"/>
</g>
<!-- src/keyboard.tsx&#45;&gt;src/Size.ts -->
<g id="edge47" class="edge">
<title>src/keyboard.tsx&#45;&gt;src/Size.ts</title>
<path fill="none" stroke="#000000" d="M626.1641,-214.0226C639.6411,-214.0226 655.2357,-214.0226 669.0743,-214.0226"/>
<polygon fill="#000000" stroke="#000000" points="669.2502,-217.5227 679.2502,-214.0226 669.2502,-210.5227 669.2502,-217.5227"/>
</g>
<!-- src/keyboard.tsx&#45;&gt;src/accent.ts -->
<g id="edge48" class="edge">
<title>src/keyboard.tsx&#45;&gt;src/accent.ts</title>
<path fill="none" stroke="#000000" d="M614.8497,-222.6107C631.9222,-229.2128 655.7331,-238.4207 674.7954,-245.7923"/>
<polygon fill="#000000" stroke="#000000" points="673.6807,-249.1137 684.27,-249.4562 676.2055,-242.5849 673.6807,-249.1137"/>
</g>
<!-- src/keyboard.tsx&#45;&gt;src/hexToRgba.ts -->
<g id="edge49" class="edge">
<title>src/keyboard.tsx&#45;&gt;src/hexToRgba.ts</title>
<path fill="none" stroke="#000000" d="M606.8428,-205.4047C622.0907,-196.316 647.1629,-181.8417 669.6577,-171.0226 671.238,-170.2626 672.8672,-169.5055 674.52,-168.7582"/>
<polygon fill="#000000" stroke="#000000" points="676.2755,-171.8126 684.0682,-164.6346 673.5,-165.3863 676.2755,-171.8126"/>
</g>
<!-- src/keyboard.tsx&#45;&gt;src/modPos.ts -->
<g id="edge50" class="edge">
<title>src/keyboard.tsx&#45;&gt;src/modPos.ts</title>
<path fill="none" stroke="#000000" d="M617.0267,-222.6373C622.7499,-225.2122 628.6378,-228.348 633.6577,-232.0226 653.2251,-246.3463 649.7405,-259.1895 669.6577,-273.0226 669.84,-273.1492 670.0236,-273.2749 670.2085,-273.3996"/>
<polygon fill="#000000" stroke="#000000" points="668.7099,-276.5712 679.1491,-278.3803 672.1166,-270.4561 668.7099,-276.5712"/>
</g>
<!-- src/keyboard.tsx&#45;&gt;src/playable.tsx -->
<g id="edge51" class="edge">
<title>src/keyboard.tsx&#45;&gt;src/playable.tsx</title>
<path fill="none" stroke="#000000" d="M606.6102,-205.446C614.8741,-200.0639 625.3208,-192.7056 633.6577,-185.0226 651.9861,-168.1317 651.9227,-159.5356 669.6577,-142.0226 674.9351,-136.8113 681.0477,-131.5549 686.7552,-126.9299"/>
<polygon fill="#000000" stroke="#000000" points="688.994,-129.6218 694.6832,-120.684 684.6621,-124.1232 688.994,-129.6218"/>
</g>
<!-- src/keyboard.tsx&#45;&gt;src/pressedNotes.ts -->
<g id="edge52" class="edge">
<title>src/keyboard.tsx&#45;&gt;src/pressedNotes.ts</title>
<path fill="none" stroke="#000000" d="M612.1378,-222.6861C642.3021,-234.6836 701.182,-252.3889 743.1865,-229.0226 769.7,-214.2737 762.5948,-196.4235 779.1865,-171.0226 788.5161,-156.7397 799.492,-140.8066 807.6649,-129.1017"/>
<polygon fill="#000000" stroke="#000000" points="810.6573,-130.9303 813.5334,-120.7333 804.9261,-126.9112 810.6573,-130.9303"/>
</g>
<!-- src/keyboard.tsx&#45;&gt;src/primary.ts -->
<g id="edge53" class="edge">
<title>src/keyboard.tsx&#45;&gt;src/primary.ts</title>
<path fill="none" stroke="#000000" d="M607.0035,-222.5576C615.4067,-228.0058 625.8619,-235.6105 633.6577,-244.0226 654.2805,-266.2756 646.2502,-282.7202 669.6577,-302.0226 669.829,-302.1638 670.0018,-302.3037 670.1761,-302.4423"/>
<polygon fill="#000000" stroke="#000000" points="668.4742,-305.5057 678.812,-307.8253 672.1771,-299.5652 668.4742,-305.5057"/>
</g>
<!-- src/lightgray.ts -->
<g id="node30" class="node">
<title>src/lightgray.ts</title>
<g id="a_node30"><a xlink:href="src/lightgray.ts" xlink:title="lightgray.ts">
<path fill="#ffffcc" stroke="#000000" d="M87.2068,-143.5226C87.2068,-143.5226 39.8288,-143.5226 39.8288,-143.5226 36.9955,-143.5226 34.1622,-140.6893 34.1622,-137.8559 34.1622,-137.8559 34.1622,-132.1893 34.1622,-132.1893 34.1622,-129.3559 36.9955,-126.5226 39.8288,-126.5226 39.8288,-126.5226 87.2068,-126.5226 87.2068,-126.5226 90.0401,-126.5226 92.8735,-129.3559 92.8735,-132.1893 92.8735,-132.1893 92.8735,-137.8559 92.8735,-137.8559 92.8735,-140.6893 90.0401,-143.5226 87.2068,-143.5226"/>
<text text-anchor="middle" x="63.5178" y="-132.3226" font-family="Helvetica,sans-Serif" font-size="9.00" fill="#000000">lightgray.ts</text>
</a>
</g>
</g>
<!-- src/playable.tsx&#45;&gt;src/noise.ts -->
<g id="edge54" class="edge">
<title>src/playable.tsx&#45;&gt;src/noise.ts</title>
<path fill="none" stroke="#000000" d="M737.9768,-103.9445C751.7788,-100.4111 768.0713,-96.2402 782.463,-92.5559"/>
<polygon fill="#000000" stroke="#000000" points="783.7241,-95.846 792.5436,-89.9752 781.988,-89.0647 783.7241,-95.846"/>
</g>
<!-- src/playable.tsx&#45;&gt;src/pressedNotes.ts -->
<g id="edge55" class="edge">
<title>src/playable.tsx&#45;&gt;src/pressedNotes.ts</title>
<path fill="none" stroke="#000000" d="M737.9768,-112.0226C747.5021,-112.0226 758.2135,-112.0226 768.6677,-112.0226"/>
<polygon fill="#000000" stroke="#000000" points="768.9827,-115.5227 778.9827,-112.0226 768.9827,-108.5227 768.9827,-115.5227"/>
</g>
<!-- src/primary.ts&#45;&gt;src/blue.ts -->
<g id="edge56" class="edge">
<title>src/primary.ts&#45;&gt;src/blue.ts</title>
<path fill="none" stroke="#000000" d="M733.8439,-316.0226C748.454,-316.0226 766.6358,-316.0226 782.5015,-316.0226"/>
<polygon fill="#000000" stroke="#000000" points="782.5324,-319.5227 792.5324,-316.0226 782.5323,-312.5227 782.5324,-319.5227"/>
</g>
<!-- src/scales.ts&#45;&gt;src/Scale.ts -->
<g id="edge57" class="edge">
<title>src/scales.ts&#45;&gt;src/Scale.ts</title>
<path fill="none" stroke="#000000" d="M505.2571,-302.0226C520.1245,-302.0226 538.7789,-302.0226 555.0302,-302.0226"/>
<polygon fill="#000000" stroke="#000000" points="555.2986,-305.5227 565.2986,-302.0226 555.2986,-298.5227 555.2986,-305.5227"/>
</g>
<!-- src/secondary.ts -->
<g id="node41" class="node">
<title>src/secondary.ts</title>
<g id="a_node41"><a xlink:href="src/secondary.ts" xlink:title="secondary.ts">
<path fill="#ffffcc" stroke="#000000" d="M91.2135,-99.5226C91.2135,-99.5226 35.8222,-99.5226 35.8222,-99.5226 32.9888,-99.5226 30.1555,-96.6893 30.1555,-93.8559 30.1555,-93.8559 30.1555,-88.1893 30.1555,-88.1893 30.1555,-85.3559 32.9888,-82.5226 35.8222,-82.5226 35.8222,-82.5226 91.2135,-82.5226 91.2135,-82.5226 94.0468,-82.5226 96.8801,-85.3559 96.8801,-88.1893 96.8801,-88.1893 96.8801,-93.8559 96.8801,-93.8559 96.8801,-96.6893 94.0468,-99.5226 91.2135,-99.5226"/>
<text text-anchor="middle" x="63.5178" y="-88.3226" font-family="Helvetica,sans-Serif" font-size="9.00" fill="#000000">secondary.ts</text>
</a>
</g>
</g>
<!-- src/secondary.ts&#45;&gt;src/green.ts -->
<g id="edge58" class="edge">
<title>src/secondary.ts&#45;&gt;src/green.ts</title>
<path fill="none" stroke="#000000" d="M96.9643,-91.0226C120.1395,-91.0226 151.0222,-91.0226 175.0356,-91.0226"/>
<polygon fill="#000000" stroke="#000000" points="175.1977,-94.5227 185.1977,-91.0226 175.1977,-87.5227 175.1977,-94.5227"/>
</g>
<!-- src/selectScale.ts&#45;&gt;src/scaleIndex.ts -->
<g id="edge59" class="edge">
<title>src/selectScale.ts&#45;&gt;src/scaleIndex.ts</title>
<path fill="none" stroke="#000000" d="M394.9762,-265.8222C407.1619,-264.3859 420.9449,-262.7613 433.7343,-261.2538"/>
<polygon fill="#000000" stroke="#000000" points="434.207,-264.7224 443.7286,-260.0758 433.3876,-257.7705 434.207,-264.7224"/>
</g>
<!-- src/selectScaleFromKeyPress.ts&#45;&gt;src/selectScale.ts -->
<g id="edge60" class="edge">
<title>src/selectScaleFromKeyPress.ts&#45;&gt;src/selectScale.ts</title>
<path fill="none" stroke="#000000" d="M267.211,-255.587C282.5757,-257.9945 299.1144,-260.5859 313.8801,-262.8996"/>
<polygon fill="#000000" stroke="#000000" points="313.3617,-266.361 323.783,-264.4513 314.4454,-259.4454 313.3617,-266.361"/>
</g>
<!-- src/yellow.ts -->
<g id="node45" class="node">
<title>src/yellow.ts</title>
<g id="a_node45"><a xlink:href="src/yellow.ts" xlink:title="yellow.ts">
<path fill="#ffffcc" stroke="#000000" d="M84.8512,-41.5226C84.8512,-41.5226 42.1845,-41.5226 42.1845,-41.5226 39.3512,-41.5226 36.5178,-38.6893 36.5178,-35.8559 36.5178,-35.8559 36.5178,-30.1893 36.5178,-30.1893 36.5178,-27.3559 39.3512,-24.5226 42.1845,-24.5226 42.1845,-24.5226 84.8512,-24.5226 84.8512,-24.5226 87.6845,-24.5226 90.5178,-27.3559 90.5178,-30.1893 90.5178,-30.1893 90.5178,-35.8559 90.5178,-35.8559 90.5178,-38.6893 87.6845,-41.5226 84.8512,-41.5226"/>
<text text-anchor="middle" x="63.5178" y="-30.3226" font-family="Helvetica,sans-Serif" font-size="9.00" fill="#000000">yellow.ts</text>
</a>
</g>
</g>
</g>
</svg>
