<?xml version="1.0" encoding="UTF-8" standalone="no"?>
<!DOCTYPE svg PUBLIC "-//W3C//DTD SVG 1.1//EN"
 "http://www.w3.org/Graphics/SVG/1.1/DTD/svg11.dtd">
<!-- Generated by graphviz version 2.40.1 (20161225.0304)
 -->
<!-- Title: dependency&#45;cruiser output Pages: 1 -->
<svg width="962pt" height="734pt"
 viewBox="0.00 0.00 962.22 734.17" xmlns="http://www.w3.org/2000/svg" xmlns:xlink="http://www.w3.org/1999/xlink">
<g id="graph0" class="graph" transform="scale(1 1) rotate(0) translate(4 730.1698)">
<title>dependency&#45;cruiser output</title>
<polygon fill="#ffffff" stroke="transparent" points="-4,4 -4,-730.1698 958.2192,-730.1698 958.2192,4 -4,4"/>
<g id="clust1" class="cluster">
<title>cluster_/src</title>
<path fill="none" stroke="#000000" stroke-width="2" d="M20,-9.4257C20,-9.4257 934.2192,-9.4257 934.2192,-9.4257 940.2192,-9.4257 946.2192,-15.4257 946.2192,-21.4257 946.2192,-21.4257 946.2192,-704.4257 946.2192,-704.4257 946.2192,-710.4257 940.2192,-716.4257 934.2192,-716.4257 934.2192,-716.4257 20,-716.4257 20,-716.4257 14,-716.4257 8,-710.4257 8,-704.4257 8,-704.4257 8,-21.4257 8,-21.4257 8,-15.4257 14,-9.4257 20,-9.4257"/>
<text text-anchor="middle" x="477.1096" y="-705.2257" font-family="Helvetica,sans-Serif" font-weight="bold" font-size="9.00" fill="#000000">src</text>
</g>
<g id="clust2" class="cluster">
<title>cluster_/src/colors</title>
<path fill="none" stroke="#000000" stroke-width="2" d="M511.3701,-41.4257C511.3701,-41.4257 713.4236,-41.4257 713.4236,-41.4257 719.4236,-41.4257 725.4236,-47.4257 725.4236,-53.4257 725.4236,-53.4257 725.4236,-283.4257 725.4236,-283.4257 725.4236,-289.4257 719.4236,-295.4257 713.4236,-295.4257 713.4236,-295.4257 511.3701,-295.4257 511.3701,-295.4257 505.3701,-295.4257 499.3701,-289.4257 499.3701,-283.4257 499.3701,-283.4257 499.3701,-53.4257 499.3701,-53.4257 499.3701,-47.4257 505.3701,-41.4257 511.3701,-41.4257"/>
<text text-anchor="middle" x="612.3969" y="-284.2257" font-family="Helvetica,sans-Serif" font-weight="bold" font-size="9.00" fill="#000000">colors</text>
</g>
<g id="clust3" class="cluster">
<title>cluster_/src/components</title>
<path fill="none" stroke="#000000" stroke-width="2" d="M159.0356,-354.4257C159.0356,-354.4257 438.1201,-354.4257 438.1201,-354.4257 444.1201,-354.4257 450.1201,-360.4257 450.1201,-366.4257 450.1201,-366.4257 450.1201,-509.4257 450.1201,-509.4257 450.1201,-515.4257 444.1201,-521.4257 438.1201,-521.4257 438.1201,-521.4257 159.0356,-521.4257 159.0356,-521.4257 153.0356,-521.4257 147.0356,-515.4257 147.0356,-509.4257 147.0356,-509.4257 147.0356,-366.4257 147.0356,-366.4257 147.0356,-360.4257 153.0356,-354.4257 159.0356,-354.4257"/>
<text text-anchor="middle" x="298.5779" y="-510.2257" font-family="Helvetica,sans-Serif" font-weight="bold" font-size="9.00" fill="#000000">components</text>
</g>
<g id="clust4" class="cluster">
<title>cluster_/src/helpers</title>
<path fill="none" stroke="#000000" stroke-width="2" d="M658.9072,-303.4257C658.9072,-303.4257 721.9399,-303.4257 721.9399,-303.4257 727.9399,-303.4257 733.9399,-309.4257 733.9399,-315.4257 733.9399,-315.4257 733.9399,-458.4257 733.9399,-458.4257 733.9399,-464.4257 727.9399,-470.4257 721.9399,-470.4257 721.9399,-470.4257 658.9072,-470.4257 658.9072,-470.4257 652.9072,-470.4257 646.9072,-464.4257 646.9072,-458.4257 646.9072,-458.4257 646.9072,-315.4257 646.9072,-315.4257 646.9072,-309.4257 652.9072,-303.4257 658.9072,-303.4257"/>
<text text-anchor="middle" x="690.4236" y="-459.2257" font-family="Helvetica,sans-Serif" font-weight="bold" font-size="9.00" fill="#000000">helpers</text>
</g>
<g id="clust5" class="cluster">
<title>cluster_/src/stores</title>
<path fill="none" stroke="#000000" stroke-width="2" d="M482.1201,-478.4257C482.1201,-478.4257 926.2192,-478.4257 926.2192,-478.4257 932.2192,-478.4257 938.2192,-484.4257 938.2192,-490.4257 938.2192,-490.4257 938.2192,-662.4257 938.2192,-662.4257 938.2192,-668.4257 932.2192,-674.4257 926.2192,-674.4257 926.2192,-674.4257 482.1201,-674.4257 482.1201,-674.4257 476.1201,-674.4257 470.1201,-668.4257 470.1201,-662.4257 470.1201,-662.4257 470.1201,-490.4257 470.1201,-490.4257 470.1201,-484.4257 476.1201,-478.4257 482.1201,-478.4257"/>
<text text-anchor="middle" x="704.1697" y="-663.2257" font-family="Helvetica,sans-Serif" font-weight="bold" font-size="9.00" fill="#000000">stores</text>
</g>
<g id="clust6" class="cluster">
<title>cluster_/src/types</title>
<path fill="none" stroke="#000000" stroke-width="2" d="M28,-540.4257C28,-540.4257 115.0356,-540.4257 115.0356,-540.4257 121.0356,-540.4257 127.0356,-546.4257 127.0356,-552.4257 127.0356,-552.4257 127.0356,-666.4257 127.0356,-666.4257 127.0356,-672.4257 121.0356,-678.4257 115.0356,-678.4257 115.0356,-678.4257 28,-678.4257 28,-678.4257 22,-678.4257 16,-672.4257 16,-666.4257 16,-666.4257 16,-552.4257 16,-552.4257 16,-546.4257 22,-540.4257 28,-540.4257"/>
<text text-anchor="middle" x="71.5178" y="-667.2257" font-family="Helvetica,sans-Serif" font-weight="bold" font-size="9.00" fill="#000000">types</text>
</g>
<!-- src/colors/accent.ts -->
<g id="node1" class="node">
<title>src/colors/accent.ts</title>
<g id="a_node1"><a xlink:href="src/colors/accent.ts" xlink:title="accent.ts">
<path fill="#ffffcc" stroke="#000000" d="M564.9713,-124.9257C564.9713,-124.9257 522.3046,-124.9257 522.3046,-124.9257 519.4713,-124.9257 516.6379,-122.0924 516.6379,-119.2591 516.6379,-119.2591 516.6379,-113.5924 516.6379,-113.5924 516.6379,-110.7591 519.4713,-107.9257 522.3046,-107.9257 522.3046,-107.9257 564.9713,-107.9257 564.9713,-107.9257 567.8046,-107.9257 570.6379,-110.7591 570.6379,-113.5924 570.6379,-113.5924 570.6379,-119.2591 570.6379,-119.2591 570.6379,-122.0924 567.8046,-124.9257 564.9713,-124.9257"/>
<text text-anchor="middle" x="543.6379" y="-113.7257" font-family="Helvetica,sans-Serif" font-size="9.00" fill="#000000">accent.ts</text>
</a>
</g>
</g>
<!-- src/colors/red.ts -->
<g id="node9" class="node">
<title>src/colors/red.ts</title>
<g id="a_node9"><a xlink:href="src/colors/red.ts" xlink:title="red.ts">
<path fill="#ffffcc" stroke="#000000" d="M711.7569,-124.9257C711.7569,-124.9257 669.0903,-124.9257 669.0903,-124.9257 666.2569,-124.9257 663.4236,-122.0924 663.4236,-119.2591 663.4236,-119.2591 663.4236,-113.5924 663.4236,-113.5924 663.4236,-110.7591 666.2569,-107.9257 669.0903,-107.9257 669.0903,-107.9257 711.7569,-107.9257 711.7569,-107.9257 714.5903,-107.9257 717.4236,-110.7591 717.4236,-113.5924 717.4236,-113.5924 717.4236,-119.2591 717.4236,-119.2591 717.4236,-122.0924 714.5903,-124.9257 711.7569,-124.9257"/>
<text text-anchor="middle" x="690.4236" y="-113.7257" font-family="Helvetica,sans-Serif" font-size="9.00" fill="#000000">red.ts</text>
</a>
</g>
</g>
<!-- src/colors/accent.ts&#45;&gt;src/colors/red.ts -->
<g id="edge1" class="edge">
<title>src/colors/accent.ts&#45;&gt;src/colors/red.ts</title>
<path fill="none" stroke="#000000" d="M570.9032,-116.4257C594.0756,-116.4257 627.5648,-116.4257 653.2022,-116.4257"/>
<polygon fill="#000000" stroke="#000000" points="653.3044,-119.9258 663.3044,-116.4257 653.3043,-112.9258 653.3044,-119.9258"/>
</g>
<!-- src/colors/background.ts -->
<g id="node2" class="node">
<title>src/colors/background.ts</title>
<g id="a_node2"><a xlink:href="src/colors/background.ts" xlink:title="background.ts">
<path fill="#ffffcc" stroke="#000000" d="M574.0084,-240.9257C574.0084,-240.9257 513.2675,-240.9257 513.2675,-240.9257 510.4342,-240.9257 507.6008,-238.0924 507.6008,-235.2591 507.6008,-235.2591 507.6008,-229.5924 507.6008,-229.5924 507.6008,-226.7591 510.4342,-223.9257 513.2675,-223.9257 513.2675,-223.9257 574.0084,-223.9257 574.0084,-223.9257 576.8417,-223.9257 579.6751,-226.7591 579.6751,-229.5924 579.6751,-229.5924 579.6751,-235.2591 579.6751,-235.2591 579.6751,-238.0924 576.8417,-240.9257 574.0084,-240.9257"/>
<text text-anchor="middle" x="543.6379" y="-229.7257" font-family="Helvetica,sans-Serif" font-size="9.00" fill="#000000">background.ts</text>
</a>
</g>
</g>
<!-- src/colors/white.ts -->
<g id="node11" class="node">
<title>src/colors/white.ts</title>
<g id="a_node11"><a xlink:href="src/colors/white.ts" xlink:title="white.ts">
<path fill="#ffffcc" stroke="#000000" d="M711.7569,-240.9257C711.7569,-240.9257 669.0903,-240.9257 669.0903,-240.9257 666.2569,-240.9257 663.4236,-238.0924 663.4236,-235.2591 663.4236,-235.2591 663.4236,-229.5924 663.4236,-229.5924 663.4236,-226.7591 666.2569,-223.9257 669.0903,-223.9257 669.0903,-223.9257 711.7569,-223.9257 711.7569,-223.9257 714.5903,-223.9257 717.4236,-226.7591 717.4236,-229.5924 717.4236,-229.5924 717.4236,-235.2591 717.4236,-235.2591 717.4236,-238.0924 714.5903,-240.9257 711.7569,-240.9257"/>
<text text-anchor="middle" x="690.4236" y="-229.7257" font-family="Helvetica,sans-Serif" font-size="9.00" fill="#000000">white.ts</text>
</a>
</g>
</g>
<!-- src/colors/background.ts&#45;&gt;src/colors/white.ts -->
<g id="edge2" class="edge">
<title>src/colors/background.ts&#45;&gt;src/colors/white.ts</title>
<path fill="none" stroke="#000000" d="M579.922,-232.4257C602.2023,-232.4257 630.6742,-232.4257 653.1368,-232.4257"/>
<polygon fill="#000000" stroke="#000000" points="653.3084,-235.9258 663.3084,-232.4257 653.3083,-228.9258 653.3084,-235.9258"/>
</g>
<!-- src/colors/black.ts -->
<g id="node3" class="node">
<title>src/colors/black.ts</title>
<g id="a_node3"><a xlink:href="src/colors/black.ts" xlink:title="black.ts">
<path fill="#ffffcc" stroke="#000000" d="M564.9713,-211.9257C564.9713,-211.9257 522.3046,-211.9257 522.3046,-211.9257 519.4713,-211.9257 516.6379,-209.0924 516.6379,-206.2591 516.6379,-206.2591 516.6379,-200.5924 516.6379,-200.5924 516.6379,-197.7591 519.4713,-194.9257 522.3046,-194.9257 522.3046,-194.9257 564.9713,-194.9257 564.9713,-194.9257 567.8046,-194.9257 570.6379,-197.7591 570.6379,-200.5924 570.6379,-200.5924 570.6379,-206.2591 570.6379,-206.2591 570.6379,-209.0924 567.8046,-211.9257 564.9713,-211.9257"/>
<text text-anchor="middle" x="543.6379" y="-200.7257" font-family="Helvetica,sans-Serif" font-size="9.00" fill="#000000">black.ts</text>
</a>
</g>
</g>
<!-- src/colors/blue.ts -->
<g id="node4" class="node">
<title>src/colors/blue.ts</title>
<g id="a_node4"><a xlink:href="src/colors/blue.ts" xlink:title="blue.ts">
<path fill="#ffffcc" stroke="#000000" d="M711.7569,-269.9257C711.7569,-269.9257 669.0903,-269.9257 669.0903,-269.9257 666.2569,-269.9257 663.4236,-267.0924 663.4236,-264.2591 663.4236,-264.2591 663.4236,-258.5924 663.4236,-258.5924 663.4236,-255.7591 666.2569,-252.9257 669.0903,-252.9257 669.0903,-252.9257 711.7569,-252.9257 711.7569,-252.9257 714.5903,-252.9257 717.4236,-255.7591 717.4236,-258.5924 717.4236,-258.5924 717.4236,-264.2591 717.4236,-264.2591 717.4236,-267.0924 714.5903,-269.9257 711.7569,-269.9257"/>
<text text-anchor="middle" x="690.4236" y="-258.7257" font-family="Helvetica,sans-Serif" font-size="9.00" fill="#000000">blue.ts</text>
</a>
</g>
</g>
<!-- src/colors/gray.ts -->
<g id="node5" class="node">
<title>src/colors/gray.ts</title>
<g id="a_node5"><a xlink:href="src/colors/gray.ts" xlink:title="gray.ts">
<path fill="#ffffcc" stroke="#000000" d="M564.9713,-182.9257C564.9713,-182.9257 522.3046,-182.9257 522.3046,-182.9257 519.4713,-182.9257 516.6379,-180.0924 516.6379,-177.2591 516.6379,-177.2591 516.6379,-171.5924 516.6379,-171.5924 516.6379,-168.7591 519.4713,-165.9257 522.3046,-165.9257 522.3046,-165.9257 564.9713,-165.9257 564.9713,-165.9257 567.8046,-165.9257 570.6379,-168.7591 570.6379,-171.5924 570.6379,-171.5924 570.6379,-177.2591 570.6379,-177.2591 570.6379,-180.0924 567.8046,-182.9257 564.9713,-182.9257"/>
<text text-anchor="middle" x="543.6379" y="-171.7257" font-family="Helvetica,sans-Serif" font-size="9.00" fill="#000000">gray.ts</text>
</a>
</g>
</g>
<!-- src/colors/green.ts -->
<g id="node6" class="node">
<title>src/colors/green.ts</title>
<g id="a_node6"><a xlink:href="src/colors/green.ts" xlink:title="green.ts">
<path fill="#ffffcc" stroke="#000000" d="M711.7569,-95.9257C711.7569,-95.9257 669.0903,-95.9257 669.0903,-95.9257 666.2569,-95.9257 663.4236,-93.0924 663.4236,-90.2591 663.4236,-90.2591 663.4236,-84.5924 663.4236,-84.5924 663.4236,-81.7591 666.2569,-78.9257 669.0903,-78.9257 669.0903,-78.9257 711.7569,-78.9257 711.7569,-78.9257 714.5903,-78.9257 717.4236,-81.7591 717.4236,-84.5924 717.4236,-84.5924 717.4236,-90.2591 717.4236,-90.2591 717.4236,-93.0924 714.5903,-95.9257 711.7569,-95.9257"/>
<text text-anchor="middle" x="690.4236" y="-84.7257" font-family="Helvetica,sans-Serif" font-size="9.00" fill="#000000">green.ts</text>
</a>
</g>
</g>
<!-- src/colors/lightgray.ts -->
<g id="node7" class="node">
<title>src/colors/lightgray.ts</title>
<g id="a_node7"><a xlink:href="src/colors/lightgray.ts" xlink:title="lightgray.ts">
<path fill="#ffffcc" stroke="#000000" d="M567.3269,-153.9257C567.3269,-153.9257 519.949,-153.9257 519.949,-153.9257 517.1156,-153.9257 514.2823,-151.0924 514.2823,-148.2591 514.2823,-148.2591 514.2823,-142.5924 514.2823,-142.5924 514.2823,-139.7591 517.1156,-136.9257 519.949,-136.9257 519.949,-136.9257 567.3269,-136.9257 567.3269,-136.9257 570.1603,-136.9257 572.9936,-139.7591 572.9936,-142.5924 572.9936,-142.5924 572.9936,-148.2591 572.9936,-148.2591 572.9936,-151.0924 570.1603,-153.9257 567.3269,-153.9257"/>
<text text-anchor="middle" x="543.6379" y="-142.7257" font-family="Helvetica,sans-Serif" font-size="9.00" fill="#000000">lightgray.ts</text>
</a>
</g>
</g>
<!-- src/colors/primary.ts -->
<g id="node8" class="node">
<title>src/colors/primary.ts</title>
<g id="a_node8"><a xlink:href="src/colors/primary.ts" xlink:title="primary.ts">
<path fill="#ffffcc" stroke="#000000" d="M565.3104,-269.9257C565.3104,-269.9257 521.9655,-269.9257 521.9655,-269.9257 519.1322,-269.9257 516.2988,-267.0924 516.2988,-264.2591 516.2988,-264.2591 516.2988,-258.5924 516.2988,-258.5924 516.2988,-255.7591 519.1322,-252.9257 521.9655,-252.9257 521.9655,-252.9257 565.3104,-252.9257 565.3104,-252.9257 568.1437,-252.9257 570.977,-255.7591 570.977,-258.5924 570.977,-258.5924 570.977,-264.2591 570.977,-264.2591 570.977,-267.0924 568.1437,-269.9257 565.3104,-269.9257"/>
<text text-anchor="middle" x="543.6379" y="-258.7257" font-family="Helvetica,sans-Serif" font-size="9.00" fill="#000000">primary.ts</text>
</a>
</g>
</g>
<!-- src/colors/primary.ts&#45;&gt;src/colors/blue.ts -->
<g id="edge3" class="edge">
<title>src/colors/primary.ts&#45;&gt;src/colors/blue.ts</title>
<path fill="none" stroke="#000000" d="M571.2472,-261.4257C594.3123,-261.4257 627.4219,-261.4257 652.8919,-261.4257"/>
<polygon fill="#000000" stroke="#000000" points="652.9382,-264.9258 662.9381,-261.4257 652.9381,-257.9258 652.9382,-264.9258"/>
</g>
<!-- src/colors/secondary.ts -->
<g id="node10" class="node">
<title>src/colors/secondary.ts</title>
<g id="a_node10"><a xlink:href="src/colors/secondary.ts" xlink:title="secondary.ts">
<path fill="#ffffcc" stroke="#000000" d="M571.3336,-95.9257C571.3336,-95.9257 515.9423,-95.9257 515.9423,-95.9257 513.109,-95.9257 510.2756,-93.0924 510.2756,-90.2591 510.2756,-90.2591 510.2756,-84.5924 510.2756,-84.5924 510.2756,-81.7591 513.109,-78.9257 515.9423,-78.9257 515.9423,-78.9257 571.3336,-78.9257 571.3336,-78.9257 574.1669,-78.9257 577.0003,-81.7591 577.0003,-84.5924 577.0003,-84.5924 577.0003,-90.2591 577.0003,-90.2591 577.0003,-93.0924 574.1669,-95.9257 571.3336,-95.9257"/>
<text text-anchor="middle" x="543.6379" y="-84.7257" font-family="Helvetica,sans-Serif" font-size="9.00" fill="#000000">secondary.ts</text>
</a>
</g>
</g>
<!-- src/colors/secondary.ts&#45;&gt;src/colors/green.ts -->
<g id="edge4" class="edge">
<title>src/colors/secondary.ts&#45;&gt;src/colors/green.ts</title>
<path fill="none" stroke="#000000" d="M576.9459,-87.4257C599.5382,-87.4257 629.4406,-87.4257 652.8781,-87.4257"/>
<polygon fill="#000000" stroke="#000000" points="653.1423,-90.9258 663.1422,-87.4257 653.1422,-83.9258 653.1423,-90.9258"/>
</g>
<!-- src/colors/yellow.ts -->
<g id="node12" class="node">
<title>src/colors/yellow.ts</title>
<g id="a_node12"><a xlink:href="src/colors/yellow.ts" xlink:title="yellow.ts">
<path fill="#ffffcc" stroke="#000000" d="M564.9713,-66.9257C564.9713,-66.9257 522.3046,-66.9257 522.3046,-66.9257 519.4713,-66.9257 516.6379,-64.0924 516.6379,-61.2591 516.6379,-61.2591 516.6379,-55.5924 516.6379,-55.5924 516.6379,-52.7591 519.4713,-49.9257 522.3046,-49.9257 522.3046,-49.9257 564.9713,-49.9257 564.9713,-49.9257 567.8046,-49.9257 570.6379,-52.7591 570.6379,-55.5924 570.6379,-55.5924 570.6379,-61.2591 570.6379,-61.2591 570.6379,-64.0924 567.8046,-66.9257 564.9713,-66.9257"/>
<text text-anchor="middle" x="543.6379" y="-55.7257" font-family="Helvetica,sans-Serif" font-size="9.00" fill="#000000">yellow.ts</text>
</a>
</g>
</g>
<!-- src/components/App.tsx -->
<g id="node13" class="node">
<title>src/components/App.tsx</title>
<g id="a_node13"><a xlink:href="src/components/App.tsx" xlink:title="App.tsx">
<path fill="#ffffcc" stroke="#000000" d="M208.6312,-495.9257C208.6312,-495.9257 165.9645,-495.9257 165.9645,-495.9257 163.1312,-495.9257 160.2979,-493.0924 160.2979,-490.2591 160.2979,-490.2591 160.2979,-484.5924 160.2979,-484.5924 160.2979,-481.7591 163.1312,-478.9257 165.9645,-478.9257 165.9645,-478.9257 208.6312,-478.9257 208.6312,-478.9257 211.4645,-478.9257 214.2979,-481.7591 214.2979,-484.5924 214.2979,-484.5924 214.2979,-490.2591 214.2979,-490.2591 214.2979,-493.0924 211.4645,-495.9257 208.6312,-495.9257"/>
<text text-anchor="middle" x="187.2979" y="-484.7257" font-family="Helvetica,sans-Serif" font-size="9.00" fill="#000000">App.tsx</text>
</a>
</g>
</g>
<!-- src/components/Layout.tsx -->
<g id="node16" class="node">
<title>src/components/Layout.tsx</title>
<g id="a_node16"><a xlink:href="src/components/Layout.tsx" xlink:title="Layout.tsx">
<path fill="#ffffcc" stroke="#000000" d="M319.4325,-495.9257C319.4325,-495.9257 273.7199,-495.9257 273.7199,-495.9257 270.8866,-495.9257 268.0532,-493.0924 268.0532,-490.2591 268.0532,-490.2591 268.0532,-484.5924 268.0532,-484.5924 268.0532,-481.7591 270.8866,-478.9257 273.7199,-478.9257 273.7199,-478.9257 319.4325,-478.9257 319.4325,-478.9257 322.2658,-478.9257 325.0991,-481.7591 325.0991,-484.5924 325.0991,-484.5924 325.0991,-490.2591 325.0991,-490.2591 325.0991,-493.0924 322.2658,-495.9257 319.4325,-495.9257"/>
<text text-anchor="middle" x="296.5762" y="-484.7257" font-family="Helvetica,sans-Serif" font-size="9.00" fill="#000000">Layout.tsx</text>
</a>
</g>
</g>
<!-- src/components/App.tsx&#45;&gt;src/components/Layout.tsx -->
<g id="edge7" class="edge">
<title>src/components/App.tsx&#45;&gt;src/components/Layout.tsx</title>
<path fill="none" stroke="#000000" d="M214.3105,-487.4257C227.4322,-487.4257 243.4387,-487.4257 257.8329,-487.4257"/>
<polygon fill="#000000" stroke="#000000" points="257.965,-490.9258 267.965,-487.4257 257.9649,-483.9258 257.965,-490.9258"/>
</g>
<!-- src/components/Pie.tsx -->
<g id="node17" class="node">
<title>src/components/Pie.tsx</title>
<g id="a_node17"><a xlink:href="src/components/Pie.tsx" xlink:title="Pie.tsx">
<path fill="#ffffcc" stroke="#000000" d="M317.9095,-437.9257C317.9095,-437.9257 275.2428,-437.9257 275.2428,-437.9257 272.4095,-437.9257 269.5762,-435.0924 269.5762,-432.2591 269.5762,-432.2591 269.5762,-426.5924 269.5762,-426.5924 269.5762,-423.7591 272.4095,-420.9257 275.2428,-420.9257 275.2428,-420.9257 317.9095,-420.9257 317.9095,-420.9257 320.7428,-420.9257 323.5762,-423.7591 323.5762,-426.5924 323.5762,-426.5924 323.5762,-432.2591 323.5762,-432.2591 323.5762,-435.0924 320.7428,-437.9257 317.9095,-437.9257"/>
<text text-anchor="middle" x="296.5762" y="-426.7257" font-family="Helvetica,sans-Serif" font-size="9.00" fill="#000000">Pie.tsx</text>
</a>
</g>
</g>
<!-- src/components/App.tsx&#45;&gt;src/components/Pie.tsx -->
<g id="edge8" class="edge">
<title>src/components/App.tsx&#45;&gt;src/components/Pie.tsx</title>
<path fill="none" stroke="#000000" d="M199.4205,-478.679C212.7249,-469.3487 234.9404,-454.5486 255.5601,-444.4257 257.3467,-443.5486 259.1981,-442.6937 261.0824,-441.8656"/>
<polygon fill="#000000" stroke="#000000" points="262.6917,-444.9891 270.6282,-437.9704 260.047,-438.508 262.6917,-444.9891"/>
</g>
<!-- src/components/keyboard.tsx -->
<g id="node23" class="node">
<title>src/components/keyboard.tsx</title>
<g id="a_node23"><a xlink:href="src/components/keyboard.tsx" xlink:title="keyboard.tsx">
<path fill="#ffffcc" stroke="#000000" d="M324.4344,-408.9257C324.4344,-408.9257 268.7179,-408.9257 268.7179,-408.9257 265.8846,-408.9257 263.0513,-406.0924 263.0513,-403.2591 263.0513,-403.2591 263.0513,-397.5924 263.0513,-397.5924 263.0513,-394.7591 265.8846,-391.9257 268.7179,-391.9257 268.7179,-391.9257 324.4344,-391.9257 324.4344,-391.9257 327.2677,-391.9257 330.1011,-394.7591 330.1011,-397.5924 330.1011,-397.5924 330.1011,-403.2591 330.1011,-403.2591 330.1011,-406.0924 327.2677,-408.9257 324.4344,-408.9257"/>
<text text-anchor="middle" x="296.5762" y="-397.7257" font-family="Helvetica,sans-Serif" font-size="9.00" fill="#000000">keyboard.tsx</text>
</a>
</g>
</g>
<!-- src/components/App.tsx&#45;&gt;src/components/keyboard.tsx -->
<g id="edge9" class="edge">
<title>src/components/App.tsx&#45;&gt;src/components/keyboard.tsx</title>
<path fill="none" stroke="#000000" d="M193.4597,-478.6483C204.3683,-463.7027 228.4965,-433.2081 255.5601,-415.4257 256.6294,-414.7231 257.7359,-414.048 258.8702,-413.3997"/>
<polygon fill="#000000" stroke="#000000" points="260.512,-416.4928 267.9491,-408.947 257.4296,-410.208 260.512,-416.4928"/>
</g>
<!-- src/stores/getCurrentScale.ts -->
<g id="node36" class="node">
<title>src/stores/getCurrentScale.ts</title>
<g id="a_node36"><a xlink:href="src/stores/getCurrentScale.ts" xlink:title="getCurrentScale.ts">
<path fill="#ffffcc" stroke="#000000" d="M729.7937,-648.9257C729.7937,-648.9257 651.0534,-648.9257 651.0534,-648.9257 648.2201,-648.9257 645.3868,-646.0924 645.3868,-643.2591 645.3868,-643.2591 645.3868,-637.5924 645.3868,-637.5924 645.3868,-634.7591 648.2201,-631.9257 651.0534,-631.9257 651.0534,-631.9257 729.7937,-631.9257 729.7937,-631.9257 732.6271,-631.9257 735.4604,-634.7591 735.4604,-637.5924 735.4604,-637.5924 735.4604,-643.2591 735.4604,-643.2591 735.4604,-646.0924 732.6271,-648.9257 729.7937,-648.9257"/>
<text text-anchor="middle" x="690.4236" y="-637.7257" font-family="Helvetica,sans-Serif" font-size="9.00" fill="#000000">getCurrentScale.ts</text>
</a>
</g>
</g>
<!-- src/components/App.tsx&#45;&gt;src/stores/getCurrentScale.ts -->
<g id="edge5" class="edge">
<title>src/components/App.tsx&#45;&gt;src/stores/getCurrentScale.ts</title>
<path fill="none" stroke="#000000" d="M214.3839,-495.8662C216.3013,-497.1759 218.064,-498.6857 219.5601,-500.4257 264.8214,-553.0676 202.5374,-607.6112 255.5601,-652.4257 285.59,-677.8069 570.3069,-672.4888 609.1558,-666.4257 626.3991,-663.7346 644.9832,-658.0139 660.0219,-652.622"/>
<polygon fill="#000000" stroke="#000000" points="661.6541,-655.7493 669.8069,-648.983 659.2141,-649.1883 661.6541,-655.7493"/>
</g>
<!-- src/stores/scaleIndex.ts -->
<g id="node38" class="node">
<title>src/stores/scaleIndex.ts</title>
<g id="a_node38"><a xlink:href="src/stores/scaleIndex.ts" xlink:title="scaleIndex.ts">
<path fill="#ffffcc" stroke="#000000" d="M834.3181,-634.9257C834.3181,-634.9257 777.5925,-634.9257 777.5925,-634.9257 774.7592,-634.9257 771.9259,-632.0924 771.9259,-629.2591 771.9259,-629.2591 771.9259,-623.5924 771.9259,-623.5924 771.9259,-620.7591 774.7592,-617.9257 777.5925,-617.9257 777.5925,-617.9257 834.3181,-617.9257 834.3181,-617.9257 837.1514,-617.9257 839.9848,-620.7591 839.9848,-623.5924 839.9848,-623.5924 839.9848,-629.2591 839.9848,-629.2591 839.9848,-632.0924 837.1514,-634.9257 834.3181,-634.9257"/>
<text text-anchor="middle" x="805.9553" y="-623.7257" font-family="Helvetica,sans-Serif" font-size="9.00" fill="#000000">scaleIndex.ts</text>
</a>
</g>
</g>
<!-- src/components/App.tsx&#45;&gt;src/stores/scaleIndex.ts -->
<g id="edge6" class="edge">
<title>src/components/App.tsx&#45;&gt;src/stores/scaleIndex.ts</title>
<path fill="none" stroke="#000000" d="M214.4128,-495.8416C216.3238,-497.1566 218.0773,-498.6744 219.5601,-500.4257 267.4999,-557.047 199.3236,-615.035 255.5601,-663.4257 411.4377,-797.5564 693.0455,-680.6474 779.8018,-639.4616"/>
<polygon fill="#000000" stroke="#000000" points="781.4562,-642.5496 788.9458,-635.0559 778.4177,-636.2434 781.4562,-642.5496"/>
</g>
<!-- src/components/Draggable.ts -->
<g id="node14" class="node">
<title>src/components/Draggable.ts</title>
<g id="a_node14"><a xlink:href="src/components/Draggable.ts" xlink:title="Draggable.ts">
<path fill="#ffffcc" stroke="#000000" d="M435.7188,-437.9257C435.7188,-437.9257 379.9936,-437.9257 379.9936,-437.9257 377.1602,-437.9257 374.3269,-435.0924 374.3269,-432.2591 374.3269,-432.2591 374.3269,-426.5924 374.3269,-426.5924 374.3269,-423.7591 377.1602,-420.9257 379.9936,-420.9257 379.9936,-420.9257 435.7188,-420.9257 435.7188,-420.9257 438.5522,-420.9257 441.3855,-423.7591 441.3855,-426.5924 441.3855,-426.5924 441.3855,-432.2591 441.3855,-432.2591 441.3855,-435.0924 438.5522,-437.9257 435.7188,-437.9257"/>
<text text-anchor="middle" x="407.8562" y="-426.7257" font-family="Helvetica,sans-Serif" font-size="9.00" fill="#000000">Draggable.ts</text>
</a>
</g>
</g>
<!-- src/stores/DragStore.ts -->
<g id="node31" class="node">
<title>src/stores/DragStore.ts</title>
<g id="a_node31"><a xlink:href="src/stores/DragStore.ts" xlink:title="DragStore.ts">
<path fill="#ffffcc" stroke="#000000" d="M570.9925,-532.9257C570.9925,-532.9257 516.2834,-532.9257 516.2834,-532.9257 513.45,-532.9257 510.6167,-530.0924 510.6167,-527.2591 510.6167,-527.2591 510.6167,-521.5924 510.6167,-521.5924 510.6167,-518.7591 513.45,-515.9257 516.2834,-515.9257 516.2834,-515.9257 570.9925,-515.9257 570.9925,-515.9257 573.8259,-515.9257 576.6592,-518.7591 576.6592,-521.5924 576.6592,-521.5924 576.6592,-527.2591 576.6592,-527.2591 576.6592,-530.0924 573.8259,-532.9257 570.9925,-532.9257"/>
<text text-anchor="middle" x="543.6379" y="-521.7257" font-family="Helvetica,sans-Serif" font-size="9.00" fill="#000000">DragStore.ts</text>
</a>
</g>
</g>
<!-- src/components/Draggable.ts&#45;&gt;src/stores/DragStore.ts -->
<g id="edge10" class="edge">
<title>src/components/Draggable.ts&#45;&gt;src/stores/DragStore.ts</title>
<path fill="none" stroke="#000000" d="M441.5253,-437.9161C444.699,-439.6904 447.6476,-441.8346 450.1201,-444.4257 471.2802,-466.6002 447.3286,-489.9317 470.1201,-510.4257 478.4048,-517.8752 489.388,-521.9049 500.3324,-523.97"/>
<polygon fill="#000000" stroke="#000000" points="499.907,-527.4445 510.2939,-525.3559 500.8716,-520.5112 499.907,-527.4445"/>
</g>
<!-- src/components/Keyboard.tsx -->
<g id="node15" class="node">
<title>src/components/Keyboard.tsx</title>
<g id="a_node15"><a xlink:href="src/components/Keyboard.tsx" xlink:title="Keyboard.tsx">
<path fill="#ffffcc" stroke="#000000" d="M324.939,-466.9257C324.939,-466.9257 268.2134,-466.9257 268.2134,-466.9257 265.3801,-466.9257 262.5467,-464.0924 262.5467,-461.2591 262.5467,-461.2591 262.5467,-455.5924 262.5467,-455.5924 262.5467,-452.7591 265.3801,-449.9257 268.2134,-449.9257 268.2134,-449.9257 324.939,-449.9257 324.939,-449.9257 327.7723,-449.9257 330.6056,-452.7591 330.6056,-455.5924 330.6056,-455.5924 330.6056,-461.2591 330.6056,-461.2591 330.6056,-464.0924 327.7723,-466.9257 324.939,-466.9257"/>
<text text-anchor="middle" x="296.5762" y="-455.7257" font-family="Helvetica,sans-Serif" font-size="9.00" fill="#000000">Keyboard.tsx</text>
</a>
</g>
</g>
<!-- src/components/Keyboard.tsx&#45;&gt;src/colors/accent.ts -->
<g id="edge11" class="edge">
<title>src/components/Keyboard.tsx&#45;&gt;src/colors/accent.ts</title>
<path fill="none" stroke="#000000" d="M330.9541,-449.852C333.4042,-448.3295 335.6639,-446.5367 337.5923,-444.4257 383.2506,-394.4454 343.9468,-357.2851 373.5923,-296.4257 397.6398,-247.0585 424.9084,-248.2087 450.1201,-199.4257 464.5836,-171.44 446.9206,-152.7372 470.1201,-131.4257 479.8849,-122.4556 493.5074,-118.2473 506.376,-116.4323"/>
<polygon fill="#000000" stroke="#000000" points="506.8362,-119.904 516.4467,-115.4445 506.1528,-112.9374 506.8362,-119.904"/>
</g>
<!-- src/components/Keyboard.tsx&#45;&gt;src/colors/primary.ts -->
<g id="edge12" class="edge">
<title>src/components/Keyboard.tsx&#45;&gt;src/colors/primary.ts</title>
<path fill="none" stroke="#000000" d="M330.2141,-449.7432C332.8876,-448.2432 335.3977,-446.4854 337.5923,-444.4257 368.1052,-415.7888 345.8553,-388.7589 373.5923,-357.4257 410.4127,-315.8315 469.7635,-288.1536 507.7179,-273.6178"/>
<polygon fill="#000000" stroke="#000000" points="509.1966,-276.8021 517.3489,-270.0353 506.7561,-270.2413 509.1966,-276.8021"/>
</g>
<!-- src/components/Keyboard.tsx&#45;&gt;src/components/Draggable.ts -->
<g id="edge17" class="edge">
<title>src/components/Keyboard.tsx&#45;&gt;src/components/Draggable.ts</title>
<path fill="none" stroke="#000000" d="M329.362,-449.8816C340.5814,-446.9578 353.3014,-443.6429 365.1855,-440.5459"/>
<polygon fill="#000000" stroke="#000000" points="366.1261,-443.9177 374.9202,-438.009 364.3607,-437.144 366.1261,-443.9177"/>
</g>
<!-- src/components/playable.tsx -->
<g id="node24" class="node">
<title>src/components/playable.tsx</title>
<g id="a_node24"><a xlink:href="src/components/playable.tsx" xlink:title="playable.tsx">
<path fill="#ffffcc" stroke="#000000" d="M433.7181,-466.9257C433.7181,-466.9257 381.9943,-466.9257 381.9943,-466.9257 379.1609,-466.9257 376.3276,-464.0924 376.3276,-461.2591 376.3276,-461.2591 376.3276,-455.5924 376.3276,-455.5924 376.3276,-452.7591 379.1609,-449.9257 381.9943,-449.9257 381.9943,-449.9257 433.7181,-449.9257 433.7181,-449.9257 436.5515,-449.9257 439.3848,-452.7591 439.3848,-455.5924 439.3848,-455.5924 439.3848,-461.2591 439.3848,-461.2591 439.3848,-464.0924 436.5515,-466.9257 433.7181,-466.9257"/>
<text text-anchor="middle" x="407.8562" y="-455.7257" font-family="Helvetica,sans-Serif" font-size="9.00" fill="#000000">playable.tsx</text>
</a>
</g>
</g>
<!-- src/components/Keyboard.tsx&#45;&gt;src/components/playable.tsx -->
<g id="edge18" class="edge">
<title>src/components/Keyboard.tsx&#45;&gt;src/components/playable.tsx</title>
<path fill="none" stroke="#000000" d="M330.8719,-458.4257C341.9218,-458.4257 354.2955,-458.4257 365.8362,-458.4257"/>
<polygon fill="#000000" stroke="#000000" points="366.1389,-461.9258 376.1388,-458.4257 366.1388,-454.9258 366.1389,-461.9258"/>
</g>
<!-- src/helpers/hexToRgba.ts -->
<g id="node25" class="node">
<title>src/helpers/hexToRgba.ts</title>
<g id="a_node25"><a xlink:href="src/helpers/hexToRgba.ts" xlink:title="hexToRgba.ts">
<path fill="#ffffcc" stroke="#000000" d="M720.2896,-357.9257C720.2896,-357.9257 660.5575,-357.9257 660.5575,-357.9257 657.7242,-357.9257 654.8909,-355.0924 654.8909,-352.2591 654.8909,-352.2591 654.8909,-346.5924 654.8909,-346.5924 654.8909,-343.7591 657.7242,-340.9257 660.5575,-340.9257 660.5575,-340.9257 720.2896,-340.9257 720.2896,-340.9257 723.123,-340.9257 725.9563,-343.7591 725.9563,-346.5924 725.9563,-346.5924 725.9563,-352.2591 725.9563,-352.2591 725.9563,-355.0924 723.123,-357.9257 720.2896,-357.9257"/>
<text text-anchor="middle" x="690.4236" y="-346.7257" font-family="Helvetica,sans-Serif" font-size="9.00" fill="#000000">hexToRgba.ts</text>
</a>
</g>
</g>
<!-- src/components/Keyboard.tsx&#45;&gt;src/helpers/hexToRgba.ts -->
<g id="edge13" class="edge">
<title>src/components/Keyboard.tsx&#45;&gt;src/helpers/hexToRgba.ts</title>
<path fill="none" stroke="#000000" d="M322.9624,-466.9804C354.0212,-475.6956 406.8505,-486.2526 450.1201,-473.4257 460.2846,-470.4126 460.8057,-465.4891 470.1201,-460.4257 529.564,-428.1118 552.8654,-435.9645 609.1558,-398.4257 627.4656,-386.2153 626.2614,-375.7106 645.1558,-364.4257 646.4441,-363.6563 647.7769,-362.9206 649.1414,-362.2177"/>
<polygon fill="#000000" stroke="#000000" points="650.7717,-365.3228 658.4722,-358.0459 647.9145,-358.9324 650.7717,-365.3228"/>
</g>
<!-- src/helpers/modPos.ts -->
<g id="node27" class="node">
<title>src/helpers/modPos.ts</title>
<g id="a_node27"><a xlink:href="src/helpers/modPos.ts" xlink:title="modPos.ts">
<path fill="#ffffcc" stroke="#000000" d="M713.776,-386.9257C713.776,-386.9257 667.0712,-386.9257 667.0712,-386.9257 664.2379,-386.9257 661.4045,-384.0924 661.4045,-381.2591 661.4045,-381.2591 661.4045,-375.5924 661.4045,-375.5924 661.4045,-372.7591 664.2379,-369.9257 667.0712,-369.9257 667.0712,-369.9257 713.776,-369.9257 713.776,-369.9257 716.6093,-369.9257 719.4427,-372.7591 719.4427,-375.5924 719.4427,-375.5924 719.4427,-381.2591 719.4427,-381.2591 719.4427,-384.0924 716.6093,-386.9257 713.776,-386.9257"/>
<text text-anchor="middle" x="690.4236" y="-375.7257" font-family="Helvetica,sans-Serif" font-size="9.00" fill="#000000">modPos.ts</text>
</a>
</g>
</g>
<!-- src/components/Keyboard.tsx&#45;&gt;src/helpers/modPos.ts -->
<g id="edge14" class="edge">
<title>src/components/Keyboard.tsx&#45;&gt;src/helpers/modPos.ts</title>
<path fill="none" stroke="#000000" d="M323.0441,-466.9698C327.9772,-468.8786 333.0162,-471.0504 337.5923,-473.4257 354.8815,-482.4002 355.0029,-492.6041 373.5923,-498.4257 406.0502,-508.5905 419.1691,-512.528 450.1201,-498.4257 462.4473,-492.8091 458.1347,-481.739 470.1201,-475.4257 525.1536,-446.4372 557.5745,-494.1877 609.1558,-459.4257 636.8641,-440.7524 619.5078,-414.8414 645.1558,-393.4257 647.1576,-391.7542 649.3522,-390.2669 651.6618,-388.9439"/>
<polygon fill="#000000" stroke="#000000" points="653.3839,-392.003 660.9753,-384.6124 650.4319,-385.6559 653.3839,-392.003"/>
</g>
<!-- src/stores/Size.ts -->
<g id="node34" class="node">
<title>src/stores/Size.ts</title>
<g id="a_node34"><a xlink:href="src/stores/Size.ts" xlink:title="Size.ts">
<path fill="#ffffcc" stroke="#000000" d="M564.9713,-590.9257C564.9713,-590.9257 522.3046,-590.9257 522.3046,-590.9257 519.4713,-590.9257 516.6379,-588.0924 516.6379,-585.2591 516.6379,-585.2591 516.6379,-579.5924 516.6379,-579.5924 516.6379,-576.7591 519.4713,-573.9257 522.3046,-573.9257 522.3046,-573.9257 564.9713,-573.9257 564.9713,-573.9257 567.8046,-573.9257 570.6379,-576.7591 570.6379,-579.5924 570.6379,-579.5924 570.6379,-585.2591 570.6379,-585.2591 570.6379,-588.0924 567.8046,-590.9257 564.9713,-590.9257"/>
<text text-anchor="middle" x="543.6379" y="-579.7257" font-family="Helvetica,sans-Serif" font-size="9.00" fill="#000000">Size.ts</text>
</a>
</g>
</g>
<!-- src/components/Keyboard.tsx&#45;&gt;src/stores/Size.ts -->
<g id="edge15" class="edge">
<title>src/components/Keyboard.tsx&#45;&gt;src/stores/Size.ts</title>
<path fill="none" stroke="#000000" d="M329.2833,-467.0069C332.3573,-468.7642 335.2086,-470.8796 337.5923,-473.4257 376.521,-515.007 328.0083,-562.2711 373.5923,-596.4257 400.8117,-616.8204 416.2016,-598.9505 450.1201,-596.4257 468.6939,-595.0431 489.1722,-592.1363 506.2189,-589.3279"/>
<polygon fill="#000000" stroke="#000000" points="507.07,-592.7335 516.3417,-587.6064 505.8964,-585.8325 507.07,-592.7335"/>
</g>
<!-- src/stores/pressedNotes.ts -->
<g id="node37" class="node">
<title>src/stores/pressedNotes.ts</title>
<g id="a_node37"><a xlink:href="src/stores/pressedNotes.ts" xlink:title="pressedNotes.ts">
<path fill="#ffffcc" stroke="#000000" d="M578.5016,-561.9257C578.5016,-561.9257 508.7743,-561.9257 508.7743,-561.9257 505.941,-561.9257 503.1077,-559.0924 503.1077,-556.2591 503.1077,-556.2591 503.1077,-550.5924 503.1077,-550.5924 503.1077,-547.7591 505.941,-544.9257 508.7743,-544.9257 508.7743,-544.9257 578.5016,-544.9257 578.5016,-544.9257 581.3349,-544.9257 584.1682,-547.7591 584.1682,-550.5924 584.1682,-550.5924 584.1682,-556.2591 584.1682,-556.2591 584.1682,-559.0924 581.3349,-561.9257 578.5016,-561.9257"/>
<text text-anchor="middle" x="543.6379" y="-550.7257" font-family="Helvetica,sans-Serif" font-size="9.00" fill="#000000">pressedNotes.ts</text>
</a>
</g>
</g>
<!-- src/components/Keyboard.tsx&#45;&gt;src/stores/pressedNotes.ts -->
<g id="edge16" class="edge">
<title>src/components/Keyboard.tsx&#45;&gt;src/stores/pressedNotes.ts</title>
<path fill="none" stroke="#000000" d="M327.9448,-467.109C331.4173,-468.8573 334.7276,-470.9426 337.5923,-473.4257 363.1358,-495.5672 345.2614,-521.9845 373.5923,-540.4257 408.5986,-563.2122 456.6624,-564.8325 492.7617,-561.6951"/>
<polygon fill="#000000" stroke="#000000" points="493.4851,-565.1395 503.0782,-560.6427 492.7746,-558.1757 493.4851,-565.1395"/>
</g>
<!-- src/stores/WindowSize.ts -->
<g id="node35" class="node">
<title>src/stores/WindowSize.ts</title>
<g id="a_node35"><a xlink:href="src/stores/WindowSize.ts" xlink:title="WindowSize.ts">
<path fill="#ffffcc" stroke="#000000" d="M575.4898,-619.9257C575.4898,-619.9257 511.786,-619.9257 511.786,-619.9257 508.9527,-619.9257 506.1194,-617.0924 506.1194,-614.2591 506.1194,-614.2591 506.1194,-608.5924 506.1194,-608.5924 506.1194,-605.7591 508.9527,-602.9257 511.786,-602.9257 511.786,-602.9257 575.4898,-602.9257 575.4898,-602.9257 578.3232,-602.9257 581.1565,-605.7591 581.1565,-608.5924 581.1565,-608.5924 581.1565,-614.2591 581.1565,-614.2591 581.1565,-617.0924 578.3232,-619.9257 575.4898,-619.9257"/>
<text text-anchor="middle" x="543.6379" y="-608.7257" font-family="Helvetica,sans-Serif" font-size="9.00" fill="#000000">WindowSize.ts</text>
</a>
</g>
</g>
<!-- src/components/Layout.tsx&#45;&gt;src/stores/WindowSize.ts -->
<g id="edge19" class="edge">
<title>src/components/Layout.tsx&#45;&gt;src/stores/WindowSize.ts</title>
<path fill="none" stroke="#000000" d="M299.2527,-496.2487C306.6912,-519.0293 329.9917,-579.7567 373.5923,-604.4257 410.5731,-625.3493 459.6646,-624.9747 495.5914,-620.6273"/>
<polygon fill="#000000" stroke="#000000" points="496.3825,-624.0522 505.8216,-619.2405 495.442,-617.1157 496.3825,-624.0522"/>
</g>
<!-- src/components/Pie.tsx&#45;&gt;src/colors/primary.ts -->
<g id="edge20" class="edge">
<title>src/components/Pie.tsx&#45;&gt;src/colors/primary.ts</title>
<path fill="none" stroke="#000000" d="M323.9515,-423.6634C328.9121,-421.675 333.7292,-419.0059 337.5923,-415.4257 367.383,-387.8162 344.6657,-359.9394 373.5923,-331.4257 410.2733,-295.2684 468.256,-276.8831 506.1235,-268.2299"/>
<polygon fill="#000000" stroke="#000000" points="507.2032,-271.5773 516.2363,-266.0407 505.7221,-264.7358 507.2032,-271.5773"/>
</g>
<!-- src/components/Rotatable.tsx -->
<g id="node21" class="node">
<title>src/components/Rotatable.tsx</title>
<g id="a_node21"><a xlink:href="src/components/Rotatable.tsx" xlink:title="Rotatable.tsx">
<path fill="#ffffcc" stroke="#000000" d="M436.219,-408.9257C436.219,-408.9257 379.4934,-408.9257 379.4934,-408.9257 376.6601,-408.9257 373.8268,-406.0924 373.8268,-403.2591 373.8268,-403.2591 373.8268,-397.5924 373.8268,-397.5924 373.8268,-394.7591 376.6601,-391.9257 379.4934,-391.9257 379.4934,-391.9257 436.219,-391.9257 436.219,-391.9257 439.0523,-391.9257 441.8856,-394.7591 441.8856,-397.5924 441.8856,-397.5924 441.8856,-403.2591 441.8856,-403.2591 441.8856,-406.0924 439.0523,-408.9257 436.219,-408.9257"/>
<text text-anchor="middle" x="407.8562" y="-397.7257" font-family="Helvetica,sans-Serif" font-size="9.00" fill="#000000">Rotatable.tsx</text>
</a>
</g>
</g>
<!-- src/components/Pie.tsx&#45;&gt;src/components/Rotatable.tsx -->
<g id="edge25" class="edge">
<title>src/components/Pie.tsx&#45;&gt;src/components/Rotatable.tsx</title>
<path fill="none" stroke="#000000" d="M323.7983,-422.3315C336.2248,-419.0931 351.2364,-415.1811 365.1149,-411.5643"/>
<polygon fill="#000000" stroke="#000000" points="366.173,-414.9055 374.9672,-408.9967 364.4077,-408.1317 366.173,-414.9055"/>
</g>
<!-- src/components/Slice.tsx -->
<g id="node22" class="node">
<title>src/components/Slice.tsx</title>
<g id="a_node22"><a xlink:href="src/components/Slice.tsx" xlink:title="Slice.tsx">
<path fill="#ffffcc" stroke="#000000" d="M429.1895,-379.9257C429.1895,-379.9257 386.5229,-379.9257 386.5229,-379.9257 383.6895,-379.9257 380.8562,-377.0924 380.8562,-374.2591 380.8562,-374.2591 380.8562,-368.5924 380.8562,-368.5924 380.8562,-365.7591 383.6895,-362.9257 386.5229,-362.9257 386.5229,-362.9257 429.1895,-362.9257 429.1895,-362.9257 432.0229,-362.9257 434.8562,-365.7591 434.8562,-368.5924 434.8562,-368.5924 434.8562,-374.2591 434.8562,-374.2591 434.8562,-377.0924 432.0229,-379.9257 429.1895,-379.9257"/>
<text text-anchor="middle" x="407.8562" y="-368.7257" font-family="Helvetica,sans-Serif" font-size="9.00" fill="#000000">Slice.tsx</text>
</a>
</g>
</g>
<!-- src/components/Pie.tsx&#45;&gt;src/components/Slice.tsx -->
<g id="edge26" class="edge">
<title>src/components/Pie.tsx&#45;&gt;src/components/Slice.tsx</title>
<path fill="none" stroke="#000000" d="M323.6314,-421.6973C328.4095,-419.9131 333.2426,-417.8219 337.5923,-415.4257 355.588,-405.5121 356.0272,-397.0837 373.5923,-386.4257 374.6853,-385.7626 375.8128,-385.1127 376.963,-384.4779"/>
<polygon fill="#000000" stroke="#000000" points="378.6546,-387.5453 386.0312,-379.9402 375.5221,-381.2853 378.6546,-387.5453"/>
</g>
<!-- src/components/Pie.tsx&#45;&gt;src/components/playable.tsx -->
<g id="edge27" class="edge">
<title>src/components/Pie.tsx&#45;&gt;src/components/playable.tsx</title>
<path fill="none" stroke="#000000" d="M323.7983,-436.5199C336.5355,-439.8393 351.9886,-443.8664 366.1536,-447.5579"/>
<polygon fill="#000000" stroke="#000000" points="365.6235,-451.0366 376.183,-450.1716 367.3888,-444.2628 365.6235,-451.0366"/>
</g>
<!-- src/helpers/modMinus.ts -->
<g id="node26" class="node">
<title>src/helpers/modMinus.ts</title>
<g id="a_node26"><a xlink:href="src/helpers/modMinus.ts" xlink:title="modMinus.ts">
<path fill="#ffffcc" stroke="#000000" d="M718.273,-415.9257C718.273,-415.9257 662.5741,-415.9257 662.5741,-415.9257 659.7408,-415.9257 656.9075,-413.0924 656.9075,-410.2591 656.9075,-410.2591 656.9075,-404.5924 656.9075,-404.5924 656.9075,-401.7591 659.7408,-398.9257 662.5741,-398.9257 662.5741,-398.9257 718.273,-398.9257 718.273,-398.9257 721.1064,-398.9257 723.9397,-401.7591 723.9397,-404.5924 723.9397,-404.5924 723.9397,-410.2591 723.9397,-410.2591 723.9397,-413.0924 721.1064,-415.9257 718.273,-415.9257"/>
<text text-anchor="middle" x="690.4236" y="-404.7257" font-family="Helvetica,sans-Serif" font-size="9.00" fill="#000000">modMinus.ts</text>
</a>
</g>
</g>
<!-- src/components/Pie.tsx&#45;&gt;src/helpers/modMinus.ts -->
<g id="edge21" class="edge">
<title>src/components/Pie.tsx&#45;&gt;src/helpers/modMinus.ts</title>
<path fill="none" stroke="#000000" d="M323.6198,-437.8804C328.3991,-439.7743 333.2356,-441.9638 337.5923,-444.4257 355.4795,-454.5337 354.2163,-466.5922 373.5923,-473.4257 405.6683,-484.7383 416.4128,-477.9705 450.1201,-473.4257 489.4556,-468.1221 595.8501,-436.5165 652.9701,-419.0364"/>
<polygon fill="#000000" stroke="#000000" points="654.1682,-422.3299 662.7008,-416.0493 652.1139,-415.6381 654.1682,-422.3299"/>
</g>
<!-- src/components/Pie.tsx&#45;&gt;src/helpers/modPos.ts -->
<g id="edge22" class="edge">
<title>src/components/Pie.tsx&#45;&gt;src/helpers/modPos.ts</title>
<path fill="none" stroke="#000000" d="M323.9702,-423.0186C328.8179,-421.0926 333.5886,-418.6115 337.5923,-415.4257 361.3332,-396.535 347.0788,-372.1746 373.5923,-357.4257 420.235,-331.4794 577.5943,-356.8008 651.4878,-370.6762"/>
<polygon fill="#000000" stroke="#000000" points="650.8622,-374.1199 661.3403,-372.5516 652.1712,-367.2434 650.8622,-374.1199"/>
</g>
<!-- src/components/Pie.tsx&#45;&gt;src/stores/Size.ts -->
<g id="edge23" class="edge">
<title>src/components/Pie.tsx&#45;&gt;src/stores/Size.ts</title>
<path fill="none" stroke="#000000" d="M323.9936,-435.2726C329.0698,-437.4319 333.9206,-440.3859 337.5923,-444.4257 380.2244,-491.3329 323.4328,-543.6727 373.5923,-582.4257 393.5439,-597.8403 462.5714,-592.6852 506.3047,-587.5471"/>
<polygon fill="#000000" stroke="#000000" points="506.797,-591.013 516.2968,-586.3222 505.9452,-584.065 506.797,-591.013"/>
</g>
<!-- src/components/Pie.tsx&#45;&gt;src/stores/pressedNotes.ts -->
<g id="edge24" class="edge">
<title>src/components/Pie.tsx&#45;&gt;src/stores/pressedNotes.ts</title>
<path fill="none" stroke="#000000" d="M323.7349,-436.1496C328.7134,-438.2347 333.5925,-440.9371 337.5923,-444.4257 363.3631,-466.9034 346.9661,-490.9681 373.5923,-512.4257 408.2786,-540.3789 426.75,-529.2499 470.1201,-539.4257 477.5081,-541.1592 485.3518,-542.8304 493.0586,-544.3775"/>
<polygon fill="#000000" stroke="#000000" points="492.5753,-547.8492 503.0613,-546.3347 493.9195,-540.9795 492.5753,-547.8492"/>
</g>
<!-- src/components/Playable.tsx -->
<g id="node18" class="node">
<title>src/components/Playable.tsx</title>
<g id="a_node18"><a xlink:href="src/components/Playable.tsx" xlink:title="Playable.tsx">
<path fill="#ffffcc" stroke="#000000" d="M213.6573,-437.9257C213.6573,-437.9257 160.9384,-437.9257 160.9384,-437.9257 158.105,-437.9257 155.2717,-435.0924 155.2717,-432.2591 155.2717,-432.2591 155.2717,-426.5924 155.2717,-426.5924 155.2717,-423.7591 158.105,-420.9257 160.9384,-420.9257 160.9384,-420.9257 213.6573,-420.9257 213.6573,-420.9257 216.4907,-420.9257 219.324,-423.7591 219.324,-426.5924 219.324,-426.5924 219.324,-432.2591 219.324,-432.2591 219.324,-435.0924 216.4907,-437.9257 213.6573,-437.9257"/>
<text text-anchor="middle" x="187.2979" y="-426.7257" font-family="Helvetica,sans-Serif" font-size="9.00" fill="#000000">Playable.tsx</text>
</a>
</g>
</g>
<!-- src/helpers/noise.ts -->
<g id="node28" class="node">
<title>src/helpers/noise.ts</title>
<g id="a_node28"><a xlink:href="src/helpers/noise.ts" xlink:title="noise.ts">
<path fill="#ffffcc" stroke="#000000" d="M711.7569,-328.9257C711.7569,-328.9257 669.0903,-328.9257 669.0903,-328.9257 666.2569,-328.9257 663.4236,-326.0924 663.4236,-323.2591 663.4236,-323.2591 663.4236,-317.5924 663.4236,-317.5924 663.4236,-314.7591 666.2569,-311.9257 669.0903,-311.9257 669.0903,-311.9257 711.7569,-311.9257 711.7569,-311.9257 714.5903,-311.9257 717.4236,-314.7591 717.4236,-317.5924 717.4236,-317.5924 717.4236,-323.2591 717.4236,-323.2591 717.4236,-326.0924 714.5903,-328.9257 711.7569,-328.9257"/>
<text text-anchor="middle" x="690.4236" y="-317.7257" font-family="Helvetica,sans-Serif" font-size="9.00" fill="#000000">noise.ts</text>
</a>
</g>
</g>
<!-- src/components/Playable.tsx&#45;&gt;src/helpers/noise.ts -->
<g id="edge28" class="edge">
<title>src/components/Playable.tsx&#45;&gt;src/helpers/noise.ts</title>
<path fill="none" stroke="#000000" d="M193.5277,-420.7498C204.5389,-405.9574 228.8176,-375.6875 255.5601,-357.4257 302.3268,-325.4898 318.0144,-320.2944 373.5923,-309.4257 473.2112,-289.9444 593.7314,-304.2415 653.3354,-313.7587"/>
<polygon fill="#000000" stroke="#000000" points="652.9596,-317.2438 663.395,-315.4129 654.0955,-310.3366 652.9596,-317.2438"/>
</g>
<!-- src/components/Playable.tsx&#45;&gt;src/stores/pressedNotes.ts -->
<g id="edge29" class="edge">
<title>src/components/Playable.tsx&#45;&gt;src/stores/pressedNotes.ts</title>
<path fill="none" stroke="#000000" d="M193.5564,-438.1466C204.6109,-453.0303 228.9532,-483.5532 255.5601,-502.4257 302.3163,-535.5905 317.4977,-542.6169 373.5923,-554.4257 412.9943,-562.7205 458.6789,-561.8929 492.7674,-559.3089"/>
<polygon fill="#000000" stroke="#000000" points="493.2803,-562.7783 502.9546,-558.4587 492.6981,-555.8026 493.2803,-562.7783"/>
</g>
<!-- src/components/PresetButton.tsx -->
<g id="node19" class="node">
<title>src/components/PresetButton.tsx</title>
<g id="a_node19"><a xlink:href="src/components/PresetButton.tsx" xlink:title="PresetButton.tsx">
<path fill="#ffffcc" stroke="#000000" d="M331.9417,-379.9257C331.9417,-379.9257 261.2106,-379.9257 261.2106,-379.9257 258.3773,-379.9257 255.5439,-377.0924 255.5439,-374.2591 255.5439,-374.2591 255.5439,-368.5924 255.5439,-368.5924 255.5439,-365.7591 258.3773,-362.9257 261.2106,-362.9257 261.2106,-362.9257 331.9417,-362.9257 331.9417,-362.9257 334.7751,-362.9257 337.6084,-365.7591 337.6084,-368.5924 337.6084,-368.5924 337.6084,-374.2591 337.6084,-374.2591 337.6084,-377.0924 334.7751,-379.9257 331.9417,-379.9257"/>
<text text-anchor="middle" x="296.5762" y="-368.7257" font-family="Helvetica,sans-Serif" font-size="9.00" fill="#000000">PresetButton.tsx</text>
</a>
</g>
</g>
<!-- src/components/PresetButton.tsx&#45;&gt;src/colors/background.ts -->
<g id="edge30" class="edge">
<title>src/components/PresetButton.tsx&#45;&gt;src/colors/background.ts</title>
<path fill="none" stroke="#000000" d="M298.429,-362.7279C304.2793,-337.7027 324.9304,-265.4589 373.5923,-236.4257 411.2143,-213.9793 462.3388,-216.2055 498.6813,-222.0465"/>
<polygon fill="#000000" stroke="#000000" points="498.5287,-225.5734 508.9843,-223.8616 499.7432,-218.6796 498.5287,-225.5734"/>
</g>
<!-- src/components/PresetButton.tsx&#45;&gt;src/colors/primary.ts -->
<g id="edge31" class="edge">
<title>src/components/PresetButton.tsx&#45;&gt;src/colors/primary.ts</title>
<path fill="none" stroke="#000000" d="M298.8249,-362.6842C305.4741,-338.8918 327.5244,-273.0435 373.5923,-247.4257 403.3177,-230.8958 416.2016,-244.9009 450.1201,-247.4257 468.5584,-248.7982 488.8733,-251.6728 505.8451,-254.4621"/>
<polygon fill="#000000" stroke="#000000" points="505.4891,-257.9516 515.9336,-256.1736 506.66,-251.0502 505.4891,-257.9516"/>
</g>
<!-- src/components/PresetButton.tsx&#45;&gt;src/stores/Size.ts -->
<g id="edge32" class="edge">
<title>src/components/PresetButton.tsx&#45;&gt;src/stores/Size.ts</title>
<path fill="none" stroke="#000000" d="M328.6052,-380.0523C331.8821,-381.8047 334.9657,-383.9065 337.5923,-386.4257 367.7931,-415.3916 350.2114,-438.7206 373.5923,-473.4257 407.2243,-523.3469 416.807,-540.4804 470.1201,-568.4257 481.1568,-574.2109 494.2423,-577.6263 506.2925,-579.6356"/>
<polygon fill="#000000" stroke="#000000" points="506.1506,-583.1496 516.5381,-581.0636 507.117,-576.2166 506.1506,-583.1496"/>
</g>
<!-- src/components/Presets.tsx -->
<g id="node20" class="node">
<title>src/components/Presets.tsx</title>
<g id="a_node20"><a xlink:href="src/components/Presets.tsx" xlink:title="Presets.tsx">
<path fill="#ffffcc" stroke="#000000" d="M211.6453,-379.9257C211.6453,-379.9257 162.9504,-379.9257 162.9504,-379.9257 160.117,-379.9257 157.2837,-377.0924 157.2837,-374.2591 157.2837,-374.2591 157.2837,-368.5924 157.2837,-368.5924 157.2837,-365.7591 160.117,-362.9257 162.9504,-362.9257 162.9504,-362.9257 211.6453,-362.9257 211.6453,-362.9257 214.4787,-362.9257 217.312,-365.7591 217.312,-368.5924 217.312,-368.5924 217.312,-374.2591 217.312,-374.2591 217.312,-377.0924 214.4787,-379.9257 211.6453,-379.9257"/>
<text text-anchor="middle" x="187.2979" y="-368.7257" font-family="Helvetica,sans-Serif" font-size="9.00" fill="#000000">Presets.tsx</text>
</a>
</g>
</g>
<!-- src/components/Presets.tsx&#45;&gt;src/components/PresetButton.tsx -->
<g id="edge36" class="edge">
<title>src/components/Presets.tsx&#45;&gt;src/components/PresetButton.tsx</title>
<path fill="none" stroke="#000000" d="M217.4479,-371.4257C226.0773,-371.4257 235.7341,-371.4257 245.2561,-371.4257"/>
<polygon fill="#000000" stroke="#000000" points="245.4805,-374.9258 255.4805,-371.4257 245.4804,-367.9258 245.4805,-374.9258"/>
</g>
<!-- src/components/Presets.tsx&#45;&gt;src/stores/scaleIndex.ts -->
<g id="edge33" class="edge">
<title>src/components/Presets.tsx&#45;&gt;src/stores/scaleIndex.ts</title>
<path fill="none" stroke="#000000" d="M188.5052,-362.7052C196.3817,-309.6439 245.3102,-32.4257 407.8562,-32.4257 407.8562,-32.4257 407.8562,-32.4257 543.6379,-32.4257 586.3373,-32.4257 704.8283,-8.918 735.6914,-38.4257 773.7083,-74.7732 762.1887,-458.6945 771.6914,-510.4257 778.1796,-545.7464 791.2899,-585.6432 799.2794,-608.2397"/>
<polygon fill="#000000" stroke="#000000" points="796.0578,-609.6241 802.7386,-617.847 802.6438,-607.2526 796.0578,-609.6241"/>
</g>
<!-- src/stores/scales.ts -->
<g id="node39" class="node">
<title>src/stores/scales.ts</title>
<g id="a_node39"><a xlink:href="src/stores/scales.ts" xlink:title="scales.ts">
<path fill="#ffffcc" stroke="#000000" d="M827.2887,-503.9257C827.2887,-503.9257 784.622,-503.9257 784.622,-503.9257 781.7887,-503.9257 778.9553,-501.0924 778.9553,-498.2591 778.9553,-498.2591 778.9553,-492.5924 778.9553,-492.5924 778.9553,-489.7591 781.7887,-486.9257 784.622,-486.9257 784.622,-486.9257 827.2887,-486.9257 827.2887,-486.9257 830.122,-486.9257 832.9553,-489.7591 832.9553,-492.5924 832.9553,-492.5924 832.9553,-498.2591 832.9553,-498.2591 832.9553,-501.0924 830.122,-503.9257 827.2887,-503.9257"/>
<text text-anchor="middle" x="805.9553" y="-492.7257" font-family="Helvetica,sans-Serif" font-size="9.00" fill="#000000">scales.ts</text>
</a>
</g>
</g>
<!-- src/components/Presets.tsx&#45;&gt;src/stores/scales.ts -->
<g id="edge34" class="edge">
<title>src/components/Presets.tsx&#45;&gt;src/stores/scales.ts</title>
<path fill="none" stroke="#000000" d="M187.6569,-362.6372C189.8541,-313.6001 203.1782,-74.3642 255.5601,-28.4257 306.5591,16.3001 340.0233,-18.4257 407.8562,-18.4257 407.8562,-18.4257 407.8562,-18.4257 543.6379,-18.4257 629.1107,-18.4257 672.3849,29.0014 735.6914,-28.4257 769.6929,-59.2695 797.9802,-393.5827 804.5272,-476.7673"/>
<polygon fill="#000000" stroke="#000000" points="801.041,-477.0817 805.3051,-486.7806 808.02,-476.5395 801.041,-477.0817"/>
</g>
<!-- src/stores/selectScale.ts -->
<g id="node40" class="node">
<title>src/stores/selectScale.ts</title>
<g id="a_node40"><a xlink:href="src/stores/selectScale.ts" xlink:title="selectScale.ts">
<path fill="#ffffcc" stroke="#000000" d="M720.2834,-619.9257C720.2834,-619.9257 660.5638,-619.9257 660.5638,-619.9257 657.7304,-619.9257 654.8971,-617.0924 654.8971,-614.2591 654.8971,-614.2591 654.8971,-608.5924 654.8971,-608.5924 654.8971,-605.7591 657.7304,-602.9257 660.5638,-602.9257 660.5638,-602.9257 720.2834,-602.9257 720.2834,-602.9257 723.1167,-602.9257 725.9501,-605.7591 725.9501,-608.5924 725.9501,-608.5924 725.9501,-614.2591 725.9501,-614.2591 725.9501,-617.0924 723.1167,-619.9257 720.2834,-619.9257"/>
<text text-anchor="middle" x="690.4236" y="-608.7257" font-family="Helvetica,sans-Serif" font-size="9.00" fill="#000000">selectScale.ts</text>
</a>
</g>
</g>
<!-- src/components/Presets.tsx&#45;&gt;src/stores/selectScale.ts -->
<g id="edge35" class="edge">
<title>src/components/Presets.tsx&#45;&gt;src/stores/selectScale.ts</title>
<path fill="none" stroke="#000000" d="M194.6352,-380.0987C201.6518,-388.6789 212.2211,-402.3824 219.5601,-415.4257 240.0801,-451.8954 232.0919,-467.7796 255.5601,-502.4257 296.6351,-563.0649 312.0776,-577.6739 373.5923,-617.4257 412.3163,-642.4499 424.8225,-646.8306 470.1201,-655.4257 500.4753,-661.1856 580.018,-665.702 609.1558,-655.4257 628.5317,-648.5922 627.1159,-636.2587 645.1558,-626.4257 646.7051,-625.5813 648.3102,-624.7734 649.951,-624.002"/>
<polygon fill="#000000" stroke="#000000" points="651.7165,-627.058 659.6002,-619.98 649.0233,-620.5969 651.7165,-627.058"/>
</g>
<!-- src/stores/RotateStore.ts -->
<g id="node32" class="node">
<title>src/stores/RotateStore.ts</title>
<g id="a_node32"><a xlink:href="src/stores/RotateStore.ts" xlink:title="RotateStore.ts">
<path fill="#ffffcc" stroke="#000000" d="M574.5016,-503.9257C574.5016,-503.9257 512.7743,-503.9257 512.7743,-503.9257 509.941,-503.9257 507.1076,-501.0924 507.1076,-498.2591 507.1076,-498.2591 507.1076,-492.5924 507.1076,-492.5924 507.1076,-489.7591 509.941,-486.9257 512.7743,-486.9257 512.7743,-486.9257 574.5016,-486.9257 574.5016,-486.9257 577.3349,-486.9257 580.1682,-489.7591 580.1682,-492.5924 580.1682,-492.5924 580.1682,-498.2591 580.1682,-498.2591 580.1682,-501.0924 577.3349,-503.9257 574.5016,-503.9257"/>
<text text-anchor="middle" x="543.6379" y="-492.7257" font-family="Helvetica,sans-Serif" font-size="9.00" fill="#000000">RotateStore.ts</text>
</a>
</g>
</g>
<!-- src/components/Rotatable.tsx&#45;&gt;src/stores/RotateStore.ts -->
<g id="edge37" class="edge">
<title>src/components/Rotatable.tsx&#45;&gt;src/stores/RotateStore.ts</title>
<path fill="none" stroke="#000000" d="M436.6847,-409.0487C441.3078,-410.883 445.9414,-413.009 450.1201,-415.4257 480.9149,-433.2359 511.2112,-461.7196 528.631,-479.459"/>
<polygon fill="#000000" stroke="#000000" points="526.2243,-482.0055 535.6841,-486.7766 531.2643,-477.1477 526.2243,-482.0055"/>
</g>
<!-- src/components/Slice.tsx&#45;&gt;src/colors/accent.ts -->
<g id="edge38" class="edge">
<title>src/components/Slice.tsx&#45;&gt;src/colors/accent.ts</title>
<path fill="none" stroke="#000000" d="M413.2941,-362.5615C422.4981,-347.1086 441.0307,-313.9648 450.1201,-283.4257 459.8388,-250.7724 446.893,-156.3495 470.1201,-131.4257 479.3002,-121.5751 493.0529,-117.2339 506.189,-115.5589"/>
<polygon fill="#000000" stroke="#000000" points="506.8042,-119.0209 516.4925,-114.7329 506.2448,-112.0433 506.8042,-119.0209"/>
</g>
<!-- src/components/Slice.tsx&#45;&gt;src/colors/primary.ts -->
<g id="edge39" class="edge">
<title>src/components/Slice.tsx&#45;&gt;src/colors/primary.ts</title>
<path fill="none" stroke="#000000" d="M433.5543,-362.876C439.3065,-360.3275 445.1655,-357.1871 450.1201,-353.4257 461.4534,-344.8219 460.3872,-338.8055 470.1201,-328.4257 487.8602,-309.5065 510.0887,-289.7258 525.4332,-276.6061"/>
<polygon fill="#000000" stroke="#000000" points="527.8064,-279.1828 533.1776,-270.0504 523.2837,-273.84 527.8064,-279.1828"/>
</g>
<!-- src/components/Slice.tsx&#45;&gt;src/helpers/modPos.ts -->
<g id="edge40" class="edge">
<title>src/components/Slice.tsx&#45;&gt;src/helpers/modPos.ts</title>
<path fill="none" stroke="#000000" d="M434.9499,-372.0969C485.1453,-373.3404 592.7772,-376.0068 651.0322,-377.4499"/>
<polygon fill="#000000" stroke="#000000" points="651.2264,-380.9557 661.3101,-377.7045 651.3998,-373.9578 651.2264,-380.9557"/>
</g>
<!-- src/components/keyboard.tsx&#45;&gt;src/colors/accent.ts -->
<g id="edge41" class="edge">
<title>src/components/keyboard.tsx&#45;&gt;src/colors/accent.ts</title>
<path fill="none" stroke="#000000" d="M330.1381,-392.2906C332.896,-390.6769 335.4436,-388.7431 337.5923,-386.4257 380.9818,-339.6299 344.4789,-304.214 373.5923,-247.4257 404.1904,-187.7412 412.559,-165.8527 470.1201,-131.4257 481.0376,-124.8961 494.3239,-121.1653 506.5832,-119.0483"/>
<polygon fill="#000000" stroke="#000000" points="507.1597,-122.5016 516.5648,-117.6236 506.1705,-115.5718 507.1597,-122.5016"/>
</g>
<!-- src/components/keyboard.tsx&#45;&gt;src/colors/primary.ts -->
<g id="edge42" class="edge">
<title>src/components/keyboard.tsx&#45;&gt;src/colors/primary.ts</title>
<path fill="none" stroke="#000000" d="M330.4675,-391.9985C333.0878,-390.4449 335.5164,-388.6049 337.5923,-386.4257 377.4691,-344.5657 327.4001,-296.1921 373.5923,-261.4257 393.6822,-246.3052 462.3263,-251.3072 506.0132,-256.3473"/>
<polygon fill="#000000" stroke="#000000" points="505.6543,-259.8293 516.001,-257.5499 506.4912,-252.8795 505.6543,-259.8293"/>
</g>
<!-- src/components/keyboard.tsx&#45;&gt;src/components/Draggable.ts -->
<g id="edge47" class="edge">
<title>src/components/keyboard.tsx&#45;&gt;src/components/Draggable.ts</title>
<path fill="none" stroke="#000000" d="M329.362,-408.9698C340.5814,-411.8937 353.3014,-415.2085 365.1855,-418.3056"/>
<polygon fill="#000000" stroke="#000000" points="364.3607,-421.7075 374.9202,-420.8425 366.1261,-414.9337 364.3607,-421.7075"/>
</g>
<!-- src/components/keyboard.tsx&#45;&gt;src/components/playable.tsx -->
<g id="edge48" class="edge">
<title>src/components/keyboard.tsx&#45;&gt;src/components/playable.tsx</title>
<path fill="none" stroke="#000000" d="M324.0544,-409.0533C328.6918,-410.9072 333.3676,-413.0384 337.5923,-415.4257 355.4795,-425.5337 355.8967,-433.986 373.5923,-444.4257 374.1112,-444.7318 374.638,-445.0343 375.1715,-445.333"/>
<polygon fill="#000000" stroke="#000000" points="373.6834,-448.5018 384.1962,-449.8176 376.7985,-442.2331 373.6834,-448.5018"/>
</g>
<!-- src/components/keyboard.tsx&#45;&gt;src/helpers/hexToRgba.ts -->
<g id="edge43" class="edge">
<title>src/components/keyboard.tsx&#45;&gt;src/helpers/hexToRgba.ts</title>
<path fill="none" stroke="#000000" d="M329.5898,-391.7174C332.4587,-390.2197 335.1821,-388.4696 337.5923,-386.4257 363.3742,-364.5624 344.5787,-336.7729 373.5923,-319.4257 390.3098,-309.4303 530.7717,-311.3791 609.1558,-324.4257 609.7646,-324.5271 631.9398,-331.3526 652.9699,-337.8453"/>
<polygon fill="#000000" stroke="#000000" points="652.1976,-341.2699 662.7852,-340.877 654.2635,-334.5816 652.1976,-341.2699"/>
</g>
<!-- src/components/keyboard.tsx&#45;&gt;src/helpers/modPos.ts -->
<g id="edge44" class="edge">
<title>src/components/keyboard.tsx&#45;&gt;src/helpers/modPos.ts</title>
<path fill="none" stroke="#000000" d="M328.5758,-391.9038C331.7823,-390.3597 334.8582,-388.548 337.5923,-386.4257 360.6707,-368.5115 347.8923,-345.3197 373.5923,-331.4257 421.1289,-305.7263 579.1074,-346.1405 652.4298,-367.093"/>
<polygon fill="#000000" stroke="#000000" points="651.6154,-370.5007 662.1938,-369.9114 653.5567,-363.7753 651.6154,-370.5007"/>
</g>
<!-- src/components/keyboard.tsx&#45;&gt;src/stores/Size.ts -->
<g id="edge45" class="edge">
<title>src/components/keyboard.tsx&#45;&gt;src/stores/Size.ts</title>
<path fill="none" stroke="#000000" d="M329.819,-409.1142C332.7138,-410.8492 335.3784,-412.9301 337.5923,-415.4257 383.9505,-467.6839 320.6576,-522.8416 373.5923,-568.4257 383.4263,-576.8942 459.4825,-580.329 506.4871,-581.6533"/>
<polygon fill="#000000" stroke="#000000" points="506.5239,-585.1554 516.6122,-581.9189 506.7075,-578.1578 506.5239,-585.1554"/>
</g>
<!-- src/components/keyboard.tsx&#45;&gt;src/stores/pressedNotes.ts -->
<g id="edge46" class="edge">
<title>src/components/keyboard.tsx&#45;&gt;src/stores/pressedNotes.ts</title>
<path fill="none" stroke="#000000" d="M327.3765,-409.0804C331.0256,-410.8413 334.5339,-412.9376 337.5923,-415.4257 361.1271,-434.5726 351.3614,-452.7791 373.5923,-473.4257 401.7133,-499.5428 420.7264,-488.7498 450.1201,-513.4257 461.286,-522.7995 457.7038,-531.7852 470.1201,-539.4257 477.043,-543.6858 484.973,-546.6999 493.0044,-548.8224"/>
<polygon fill="#000000" stroke="#000000" points="492.2696,-552.2444 502.7903,-550.9932 493.7856,-545.4106 492.2696,-552.2444"/>
</g>
<!-- src/components/playable.tsx&#45;&gt;src/helpers/noise.ts -->
<g id="edge49" class="edge">
<title>src/components/playable.tsx&#45;&gt;src/helpers/noise.ts</title>
<path fill="none" stroke="#000000" d="M436.3275,-449.8185C440.9936,-448.1738 445.7341,-446.3569 450.1201,-444.4257 541.0021,-404.411 554.2757,-375.445 645.1558,-335.4257 647.9451,-334.1974 650.8683,-333.0122 653.8291,-331.8831"/>
<polygon fill="#000000" stroke="#000000" points="655.0679,-335.1572 663.2968,-328.4836 652.7023,-328.569 655.0679,-335.1572"/>
</g>
<!-- src/components/playable.tsx&#45;&gt;src/stores/pressedNotes.ts -->
<g id="edge50" class="edge">
<title>src/components/playable.tsx&#45;&gt;src/stores/pressedNotes.ts</title>
<path fill="none" stroke="#000000" d="M416.9093,-467.0701C425.9318,-475.9498 439.8815,-490.4161 450.1201,-504.4257 460.6915,-518.8906 455.5377,-529.0171 470.1201,-539.4257 476.8866,-544.2555 484.8633,-547.5456 493.0226,-549.7639"/>
<polygon fill="#000000" stroke="#000000" points="492.4767,-553.2276 502.9965,-551.9696 493.9882,-546.3928 492.4767,-553.2276"/>
</g>
<!-- src/helpers/polarize.ts -->
<g id="node29" class="node">
<title>src/helpers/polarize.ts</title>
<g id="a_node29"><a xlink:href="src/helpers/polarize.ts" xlink:title="polarize.ts">
<path fill="#ffffcc" stroke="#000000" d="M713.2755,-444.9257C713.2755,-444.9257 667.5717,-444.9257 667.5717,-444.9257 664.7384,-444.9257 661.905,-442.0924 661.905,-439.2591 661.905,-439.2591 661.905,-433.5924 661.905,-433.5924 661.905,-430.7591 664.7384,-427.9257 667.5717,-427.9257 667.5717,-427.9257 713.2755,-427.9257 713.2755,-427.9257 716.1088,-427.9257 718.9421,-430.7591 718.9421,-433.5924 718.9421,-433.5924 718.9421,-439.2591 718.9421,-439.2591 718.9421,-442.0924 716.1088,-444.9257 713.2755,-444.9257"/>
<text text-anchor="middle" x="690.4236" y="-433.7257" font-family="Helvetica,sans-Serif" font-size="9.00" fill="#000000">polarize.ts</text>
</a>
</g>
</g>
<!-- src/index.tsx -->
<g id="node30" class="node">
<title>src/index.tsx</title>
<g id="a_node30"><a xlink:href="src/index.tsx" xlink:title="index.tsx">
<path fill="#ffffcc" stroke="#000000" d="M92.8512,-507.9257C92.8512,-507.9257 50.1845,-507.9257 50.1845,-507.9257 47.3512,-507.9257 44.5178,-505.0924 44.5178,-502.2591 44.5178,-502.2591 44.5178,-496.5924 44.5178,-496.5924 44.5178,-493.7591 47.3512,-490.9257 50.1845,-490.9257 50.1845,-490.9257 92.8512,-490.9257 92.8512,-490.9257 95.6845,-490.9257 98.5178,-493.7591 98.5178,-496.5924 98.5178,-496.5924 98.5178,-502.2591 98.5178,-502.2591 98.5178,-505.0924 95.6845,-507.9257 92.8512,-507.9257"/>
<text text-anchor="middle" x="71.5178" y="-496.7257" font-family="Helvetica,sans-Serif" font-size="9.00" fill="#000000">index.tsx</text>
</a>
</g>
</g>
<!-- src/index.tsx&#45;&gt;src/components/App.tsx -->
<g id="edge51" class="edge">
<title>src/index.tsx&#45;&gt;src/components/App.tsx</title>
<path fill="none" stroke="#000000" d="M98.6631,-496.6123C113.9398,-495.0289 133.2405,-493.0285 149.9281,-491.2989"/>
<polygon fill="#000000" stroke="#000000" points="150.3356,-494.7755 159.9215,-490.2632 149.6139,-487.8128 150.3356,-494.7755"/>
</g>
<!-- src/stores/selectScaleFromKeyPress.ts -->
<g id="node41" class="node">
<title>src/stores/selectScaleFromKeyPress.ts</title>
<g id="a_node41"><a xlink:href="src/stores/selectScaleFromKeyPress.ts" xlink:title="selectScaleFromKeyPress.ts">
<path fill="#ffffcc" stroke="#000000" d="M603.5069,-648.9257C603.5069,-648.9257 483.769,-648.9257 483.769,-648.9257 480.9356,-648.9257 478.1023,-646.0924 478.1023,-643.2591 478.1023,-643.2591 478.1023,-637.5924 478.1023,-637.5924 478.1023,-634.7591 480.9356,-631.9257 483.769,-631.9257 483.769,-631.9257 603.5069,-631.9257 603.5069,-631.9257 606.3403,-631.9257 609.1736,-634.7591 609.1736,-637.5924 609.1736,-637.5924 609.1736,-643.2591 609.1736,-643.2591 609.1736,-646.0924 606.3403,-648.9257 603.5069,-648.9257"/>
<text text-anchor="middle" x="543.6379" y="-637.7257" font-family="Helvetica,sans-Serif" font-size="9.00" fill="#000000">selectScaleFromKeyPress.ts</text>
</a>
</g>
</g>
<!-- src/index.tsx&#45;&gt;src/stores/selectScaleFromKeyPress.ts -->
<g id="edge52" class="edge">
<title>src/index.tsx&#45;&gt;src/stores/selectScaleFromKeyPress.ts</title>
<path fill="none" stroke="#000000" d="M97.0065,-507.9614C111.6311,-512.8345 130.3471,-519.0293 147.0356,-524.4257 290.3105,-570.7551 324.1106,-589.6111 470.1201,-626.4257 474.758,-627.5951 479.5822,-628.7177 484.4433,-629.7827"/>
<polygon fill="#000000" stroke="#000000" points="483.9186,-633.2489 494.4252,-631.8846 485.361,-626.3991 483.9186,-633.2489"/>
</g>
<!-- src/stores/RotateStore.ts&#45;&gt;src/helpers/modMinus.ts -->
<g id="edge53" class="edge">
<title>src/stores/RotateStore.ts&#45;&gt;src/helpers/modMinus.ts</title>
<path fill="none" stroke="#000000" d="M580.3109,-487.5848C590.2984,-484.3021 600.6868,-479.7318 609.1558,-473.4257 631.4091,-456.8556 622.8695,-438.9515 645.1558,-422.4257 645.9122,-421.8648 646.6909,-421.3241 647.4882,-420.8029"/>
<polygon fill="#000000" stroke="#000000" points="649.4212,-423.7383 656.5881,-415.9354 646.1195,-417.5658 649.4212,-423.7383"/>
</g>
<!-- src/stores/RotateStore.ts&#45;&gt;src/helpers/polarize.ts -->
<g id="edge54" class="edge">
<title>src/stores/RotateStore.ts&#45;&gt;src/helpers/polarize.ts</title>
<path fill="none" stroke="#000000" d="M571.2804,-486.845C583.0539,-483.0101 596.8772,-478.2674 609.1558,-473.4257 627.6675,-466.1262 648.0467,-456.8447 663.7667,-449.4039"/>
<polygon fill="#000000" stroke="#000000" points="665.38,-452.5121 672.8942,-445.043 662.3623,-446.196 665.38,-452.5121"/>
</g>
<!-- src/stores/Scale.ts -->
<g id="node33" class="node">
<title>src/stores/Scale.ts</title>
<g id="a_node33"><a xlink:href="src/stores/Scale.ts" xlink:title="Scale.ts">
<path fill="#ffffcc" stroke="#000000" d="M924.5526,-503.9257C924.5526,-503.9257 881.8859,-503.9257 881.8859,-503.9257 879.0526,-503.9257 876.2192,-501.0924 876.2192,-498.2591 876.2192,-498.2591 876.2192,-492.5924 876.2192,-492.5924 876.2192,-489.7591 879.0526,-486.9257 881.8859,-486.9257 881.8859,-486.9257 924.5526,-486.9257 924.5526,-486.9257 927.3859,-486.9257 930.2192,-489.7591 930.2192,-492.5924 930.2192,-492.5924 930.2192,-498.2591 930.2192,-498.2591 930.2192,-501.0924 927.3859,-503.9257 924.5526,-503.9257"/>
<text text-anchor="middle" x="903.2192" y="-492.7257" font-family="Helvetica,sans-Serif" font-size="9.00" fill="#000000">Scale.ts</text>
</a>
</g>
</g>
<!-- src/stores/Scale.ts&#45;&gt;src/helpers/modPos.ts -->
<g id="edge55" class="edge">
<title>src/stores/Scale.ts&#45;&gt;src/helpers/modPos.ts</title>
<path fill="none" stroke="#000000" d="M891.1479,-486.7401C864.3074,-467.7341 797.1877,-421.8856 735.6914,-393.4257 733.5359,-392.4282 731.2951,-391.4659 729.0151,-390.5434"/>
<polygon fill="#000000" stroke="#000000" points="730.1322,-387.2243 719.54,-386.9873 727.6725,-393.778 730.1322,-387.2243"/>
</g>
<!-- src/stores/getCurrentScale.ts&#45;&gt;src/stores/scaleIndex.ts -->
<g id="edge56" class="edge">
<title>src/stores/getCurrentScale.ts&#45;&gt;src/stores/scaleIndex.ts</title>
<path fill="none" stroke="#000000" d="M735.7532,-634.9327C744.2924,-633.898 753.2122,-632.8171 761.7174,-631.7864"/>
<polygon fill="#000000" stroke="#000000" points="762.3265,-635.2383 771.8328,-630.5607 761.4844,-628.2891 762.3265,-635.2383"/>
</g>
<!-- src/stores/getCurrentScale.ts&#45;&gt;src/stores/scales.ts -->
<g id="edge57" class="edge">
<title>src/stores/getCurrentScale.ts&#45;&gt;src/stores/scales.ts</title>
<path fill="none" stroke="#000000" d="M727.2977,-631.8134C730.3009,-630.2987 733.152,-628.5183 735.6914,-626.4257 772.0887,-596.434 792.3264,-542.508 800.9285,-514.1006"/>
<polygon fill="#000000" stroke="#000000" points="804.3603,-514.8299 803.7495,-504.2526 797.6309,-512.9021 804.3603,-514.8299"/>
</g>
<!-- src/stores/scales.ts&#45;&gt;src/stores/Scale.ts -->
<g id="edge58" class="edge">
<title>src/stores/scales.ts&#45;&gt;src/stores/Scale.ts</title>
<path fill="none" stroke="#000000" d="M833.0487,-495.4257C843.1868,-495.4257 854.8897,-495.4257 865.7971,-495.4257"/>
<polygon fill="#000000" stroke="#000000" points="865.9338,-498.9258 875.9338,-495.4257 865.9337,-491.9258 865.9338,-498.9258"/>
</g>
<!-- src/stores/selectScale.ts&#45;&gt;src/stores/scaleIndex.ts -->
<g id="edge59" class="edge">
<title>src/stores/selectScale.ts&#45;&gt;src/stores/scaleIndex.ts</title>
<path fill="none" stroke="#000000" d="M726.0296,-616.0486C737.3111,-617.5133 749.9217,-619.1506 761.7319,-620.684"/>
<polygon fill="#000000" stroke="#000000" points="761.4837,-624.1811 771.8511,-621.9978 762.385,-617.2393 761.4837,-624.1811"/>
</g>
<!-- src/stores/selectScaleFromKeyPress.ts&#45;&gt;src/stores/selectScale.ts -->
<g id="edge60" class="edge">
<title>src/stores/selectScaleFromKeyPress.ts&#45;&gt;src/stores/selectScale.ts</title>
<path fill="none" stroke="#000000" d="M586.8846,-631.8816C605.151,-628.2728 626.4328,-624.0682 644.9348,-620.4128"/>
<polygon fill="#000000" stroke="#000000" points="645.7589,-623.8177 654.8909,-618.4458 644.4021,-616.9505 645.7589,-623.8177"/>
</g>
<!-- src/types/DragMouseEvent.ts -->
<g id="node42" class="node">
<title>src/types/DragMouseEvent.ts</title>
<g id="a_node42"><a xlink:href="src/types/DragMouseEvent.ts" xlink:title="DragMouseEvent.ts">
<path fill="#ffffcc" stroke="#000000" d="M113.3868,-652.9257C113.3868,-652.9257 29.6488,-652.9257 29.6488,-652.9257 26.8155,-652.9257 23.9822,-650.0924 23.9822,-647.2591 23.9822,-647.2591 23.9822,-641.5924 23.9822,-641.5924 23.9822,-638.7591 26.8155,-635.9257 29.6488,-635.9257 29.6488,-635.9257 113.3868,-635.9257 113.3868,-635.9257 116.2201,-635.9257 119.0535,-638.7591 119.0535,-641.5924 119.0535,-641.5924 119.0535,-647.2591 119.0535,-647.2591 119.0535,-650.0924 116.2201,-652.9257 113.3868,-652.9257"/>
<text text-anchor="middle" x="71.5178" y="-641.7257" font-family="Helvetica,sans-Serif" font-size="9.00" fill="#000000">DragMouseEvent.ts</text>
</a>
</g>
</g>
<!-- src/types/DragTouchEvent.ts -->
<g id="node43" class="node">
<title>src/types/DragTouchEvent.ts</title>
<g id="a_node43"><a xlink:href="src/types/DragTouchEvent.ts" xlink:title="DragTouchEvent.ts">
<path fill="#ffffcc" stroke="#000000" d="M111.8897,-623.9257C111.8897,-623.9257 31.1459,-623.9257 31.1459,-623.9257 28.3126,-623.9257 25.4792,-621.0924 25.4792,-618.2591 25.4792,-618.2591 25.4792,-612.5924 25.4792,-612.5924 25.4792,-609.7591 28.3126,-606.9257 31.1459,-606.9257 31.1459,-606.9257 111.8897,-606.9257 111.8897,-606.9257 114.7231,-606.9257 117.5564,-609.7591 117.5564,-612.5924 117.5564,-612.5924 117.5564,-618.2591 117.5564,-618.2591 117.5564,-621.0924 114.7231,-623.9257 111.8897,-623.9257"/>
<text text-anchor="middle" x="71.5178" y="-612.7257" font-family="Helvetica,sans-Serif" font-size="9.00" fill="#000000">DragTouchEvent.ts</text>
</a>
</g>
</g>
<!-- src/types/Point.ts -->
<g id="node44" class="node">
<title>src/types/Point.ts</title>
<g id="a_node44"><a xlink:href="src/types/Point.ts" xlink:title="Point.ts">
<path fill="#ffffcc" stroke="#000000" d="M92.8512,-594.9257C92.8512,-594.9257 50.1845,-594.9257 50.1845,-594.9257 47.3512,-594.9257 44.5178,-592.0924 44.5178,-589.2591 44.5178,-589.2591 44.5178,-583.5924 44.5178,-583.5924 44.5178,-580.7591 47.3512,-577.9257 50.1845,-577.9257 50.1845,-577.9257 92.8512,-577.9257 92.8512,-577.9257 95.6845,-577.9257 98.5178,-580.7591 98.5178,-583.5924 98.5178,-583.5924 98.5178,-589.2591 98.5178,-589.2591 98.5178,-592.0924 95.6845,-594.9257 92.8512,-594.9257"/>
<text text-anchor="middle" x="71.5178" y="-583.7257" font-family="Helvetica,sans-Serif" font-size="9.00" fill="#000000">Point.ts</text>
</a>
</g>
</g>
<!-- src/types/PolarPoint.ts -->
<g id="node45" class="node">
<title>src/types/PolarPoint.ts</title>
<g id="a_node45"><a xlink:href="src/types/PolarPoint.ts" xlink:title="PolarPoint.ts">
<path fill="#ffffcc" stroke="#000000" d="M99.3761,-565.9257C99.3761,-565.9257 43.6596,-565.9257 43.6596,-565.9257 40.8262,-565.9257 37.9929,-563.0924 37.9929,-560.2591 37.9929,-560.2591 37.9929,-554.5924 37.9929,-554.5924 37.9929,-551.7591 40.8262,-548.9257 43.6596,-548.9257 43.6596,-548.9257 99.3761,-548.9257 99.3761,-548.9257 102.2094,-548.9257 105.0427,-551.7591 105.0427,-554.5924 105.0427,-554.5924 105.0427,-560.2591 105.0427,-560.2591 105.0427,-563.0924 102.2094,-565.9257 99.3761,-565.9257"/>
<text text-anchor="middle" x="71.5178" y="-554.7257" font-family="Helvetica,sans-Serif" font-size="9.00" fill="#000000">PolarPoint.ts</text>
</a>
</g>
</g>
</g>
</svg>
