<?xml version="1.0" encoding="UTF-8" standalone="no"?>
<!DOCTYPE svg PUBLIC "-//W3C//DTD SVG 1.1//EN"
 "http://www.w3.org/Graphics/SVG/1.1/DTD/svg11.dtd">
<!-- Generated by graphviz version 2.40.1 (20161225.0304)
 -->
<!-- Title: dependency&#45;cruiser output Pages: 1 -->
<svg width="510pt" height="428pt"
 viewBox="0.00 0.00 509.56 428.00" xmlns="http://www.w3.org/2000/svg" xmlns:xlink="http://www.w3.org/1999/xlink">
<g id="graph0" class="graph" transform="scale(1 1) rotate(0) translate(4 424)">
<title>dependency&#45;cruiser output</title>
<polygon fill="#ffffff" stroke="transparent" points="-4,4 -4,-424 505.5605,-424 505.5605,4 -4,4"/>
<g id="clust1" class="cluster">
<title>cluster_/src</title>
<path fill="none" stroke="#000000" stroke-width="2" d="M20,-8C20,-8 481.5605,-8 481.5605,-8 487.5605,-8 493.5605,-14 493.5605,-20 493.5605,-20 493.5605,-400 493.5605,-400 493.5605,-406 487.5605,-412 481.5605,-412 481.5605,-412 20,-412 20,-412 14,-412 8,-406 8,-400 8,-400 8,-20 8,-20 8,-14 14,-8 20,-8"/>
<text text-anchor="middle" x="250.7803" y="-400.8" font-family="Helvetica,sans-Serif" font-weight="bold" font-size="9.00" fill="#000000">src</text>
</g>
<g id="clust2" class="cluster">
<title>cluster_/src/components</title>
<path fill="none" stroke="#000000" stroke-width="2" d="M110,-16C110,-16 277.5518,-16 277.5518,-16 283.5518,-16 289.5518,-22 289.5518,-28 289.5518,-28 289.5518,-200 289.5518,-200 289.5518,-206 283.5518,-212 277.5518,-212 277.5518,-212 110,-212 110,-212 104,-212 98,-206 98,-200 98,-200 98,-28 98,-28 98,-22 104,-16 110,-16"/>
<text text-anchor="middle" x="193.7759" y="-200.8" font-family="Helvetica,sans-Serif" font-weight="bold" font-size="9.00" fill="#000000">components</text>
</g>
<g id="clust3" class="cluster">
<title>cluster_/src/stores</title>
<path fill="none" stroke="#000000" stroke-width="2" d="M214.5278,-220C214.5278,-220 371.5464,-220 371.5464,-220 377.5464,-220 383.5464,-226 383.5464,-232 383.5464,-232 383.5464,-375 383.5464,-375 383.5464,-381 377.5464,-387 371.5464,-387 371.5464,-387 214.5278,-387 214.5278,-387 208.5278,-387 202.5278,-381 202.5278,-375 202.5278,-375 202.5278,-232 202.5278,-232 202.5278,-226 208.5278,-220 214.5278,-220"/>
<text text-anchor="middle" x="293.0371" y="-375.8" font-family="Helvetica,sans-Serif" font-weight="bold" font-size="9.00" fill="#000000">stores</text>
</g>
<g id="clust4" class="cluster">
<title>cluster_/src/utils</title>
<path fill="none" stroke="#000000" stroke-width="2" d="M415.5464,-75C415.5464,-75 473.5605,-75 473.5605,-75 479.5605,-75 485.5605,-81 485.5605,-87 485.5605,-87 485.5605,-143 485.5605,-143 485.5605,-149 479.5605,-155 473.5605,-155 473.5605,-155 415.5464,-155 415.5464,-155 409.5464,-155 403.5464,-149 403.5464,-143 403.5464,-143 403.5464,-87 403.5464,-87 403.5464,-81 409.5464,-75 415.5464,-75"/>
<text text-anchor="middle" x="444.5535" y="-143.8" font-family="Helvetica,sans-Serif" font-weight="bold" font-size="9.00" fill="#000000">utils</text>
</g>
<!-- src/components/Draggable.ts -->
<g id="node1" class="node">
<title>src/components/Draggable.ts</title>
<g id="a_node1"><a xlink:href="src/components/Draggable.ts" xlink:title="Draggable.ts">
<path fill="#ffffcc" stroke="#000000" d="M275.8997,-41.5C275.8997,-41.5 220.1745,-41.5 220.1745,-41.5 217.3411,-41.5 214.5078,-38.6667 214.5078,-35.8333 214.5078,-35.8333 214.5078,-30.1667 214.5078,-30.1667 214.5078,-27.3333 217.3411,-24.5 220.1745,-24.5 220.1745,-24.5 275.8997,-24.5 275.8997,-24.5 278.7331,-24.5 281.5664,-27.3333 281.5664,-30.1667 281.5664,-30.1667 281.5664,-35.8333 281.5664,-35.8333 281.5664,-38.6667 278.7331,-41.5 275.8997,-41.5"/>
<text text-anchor="middle" x="248.0371" y="-30.3" font-family="Helvetica,sans-Serif" font-size="9.00" fill="#000000">Draggable.ts</text>
</a>
</g>
</g>
<!-- src/components/Keyboard.tsx -->
<g id="node2" class="node">
<title>src/components/Keyboard.tsx</title>
<g id="a_node2"><a xlink:href="src/components/Keyboard.tsx" xlink:title="Keyboard.tsx">
<path fill="#ffffcc" stroke="#000000" d="M168.6267,-70.5C168.6267,-70.5 111.9011,-70.5 111.9011,-70.5 109.0678,-70.5 106.2345,-67.6667 106.2345,-64.8333 106.2345,-64.8333 106.2345,-59.1667 106.2345,-59.1667 106.2345,-56.3333 109.0678,-53.5 111.9011,-53.5 111.9011,-53.5 168.6267,-53.5 168.6267,-53.5 171.46,-53.5 174.2934,-56.3333 174.2934,-59.1667 174.2934,-59.1667 174.2934,-64.8333 174.2934,-64.8333 174.2934,-67.6667 171.46,-70.5 168.6267,-70.5"/>
<text text-anchor="middle" x="140.2639" y="-59.3" font-family="Helvetica,sans-Serif" font-size="9.00" fill="#000000">Keyboard.tsx</text>
</a>
</g>
</g>
<!-- src/components/Keyboard.tsx&#45;&gt;src/components/Draggable.ts -->
<g id="edge5" class="edge">
<title>src/components/Keyboard.tsx&#45;&gt;src/components/Draggable.ts</title>
<path fill="none" stroke="#000000" d="M172.0165,-53.4559C182.7737,-50.5613 194.9553,-47.2834 206.3656,-44.2131"/>
<polygon fill="#000000" stroke="#000000" points="207.392,-47.5615 216.139,-41.5832 205.573,-40.802 207.392,-47.5615"/>
</g>
<!-- src/components/playable.tsx -->
<g id="node9" class="node">
<title>src/components/playable.tsx</title>
<g id="a_node9"><a xlink:href="src/components/playable.tsx" xlink:title="playable.tsx">
<path fill="#ffffcc" stroke="#000000" d="M273.899,-70.5C273.899,-70.5 222.1752,-70.5 222.1752,-70.5 219.3418,-70.5 216.5085,-67.6667 216.5085,-64.8333 216.5085,-64.8333 216.5085,-59.1667 216.5085,-59.1667 216.5085,-56.3333 219.3418,-53.5 222.1752,-53.5 222.1752,-53.5 273.899,-53.5 273.899,-53.5 276.7324,-53.5 279.5657,-56.3333 279.5657,-59.1667 279.5657,-59.1667 279.5657,-64.8333 279.5657,-64.8333 279.5657,-67.6667 276.7324,-70.5 273.899,-70.5"/>
<text text-anchor="middle" x="248.0371" y="-59.3" font-family="Helvetica,sans-Serif" font-size="9.00" fill="#000000">playable.tsx</text>
</a>
</g>
</g>
<!-- src/components/Keyboard.tsx&#45;&gt;src/components/playable.tsx -->
<g id="edge6" class="edge">
<title>src/components/Keyboard.tsx&#45;&gt;src/components/playable.tsx</title>
<path fill="none" stroke="#000000" d="M174.364,-62C184.4468,-62 195.6028,-62 206.1185,-62"/>
<polygon fill="#000000" stroke="#000000" points="206.3572,-65.5001 216.3572,-62 206.3571,-58.5001 206.3572,-65.5001"/>
</g>
<!-- src/stores/Color.ts -->
<g id="node12" class="node">
<title>src/stores/Color.ts</title>
<g id="a_node12"><a xlink:href="src/stores/Color.ts" xlink:title="Color.ts">
<path fill="#ffffcc" stroke="#000000" d="M269.3704,-274.5C269.3704,-274.5 226.7038,-274.5 226.7038,-274.5 223.8704,-274.5 221.0371,-271.6667 221.0371,-268.8333 221.0371,-268.8333 221.0371,-263.1667 221.0371,-263.1667 221.0371,-260.3333 223.8704,-257.5 226.7038,-257.5 226.7038,-257.5 269.3704,-257.5 269.3704,-257.5 272.2038,-257.5 275.0371,-260.3333 275.0371,-263.1667 275.0371,-263.1667 275.0371,-268.8333 275.0371,-268.8333 275.0371,-271.6667 272.2038,-274.5 269.3704,-274.5"/>
<text text-anchor="middle" x="248.0371" y="-263.3" font-family="Helvetica,sans-Serif" font-size="9.00" fill="#000000">Color.ts</text>
</a>
</g>
</g>
<!-- src/components/Keyboard.tsx&#45;&gt;src/stores/Color.ts -->
<g id="edge1" class="edge">
<title>src/components/Keyboard.tsx&#45;&gt;src/stores/Color.ts</title>
<path fill="none" stroke="#000000" d="M167.2581,-70.5181C170.0236,-72.2947 172.5412,-74.4319 174.5278,-77 222.7218,-139.3024 150.8568,-192.5496 202.5278,-252 205.0053,-254.8505 208.048,-257.1295 211.3752,-258.9501"/>
<polygon fill="#000000" stroke="#000000" points="210.0753,-262.1999 220.6544,-262.7767 212.744,-255.7286 210.0753,-262.1999"/>
</g>
<!-- src/stores/Size.ts -->
<g id="node14" class="node">
<title>src/stores/Size.ts</title>
<g id="a_node14"><a xlink:href="src/stores/Size.ts" xlink:title="Size.ts">
<path fill="#ffffcc" stroke="#000000" d="M269.3704,-303.5C269.3704,-303.5 226.7038,-303.5 226.7038,-303.5 223.8704,-303.5 221.0371,-300.6667 221.0371,-297.8333 221.0371,-297.8333 221.0371,-292.1667 221.0371,-292.1667 221.0371,-289.3333 223.8704,-286.5 226.7038,-286.5 226.7038,-286.5 269.3704,-286.5 269.3704,-286.5 272.2038,-286.5 275.0371,-289.3333 275.0371,-292.1667 275.0371,-292.1667 275.0371,-297.8333 275.0371,-297.8333 275.0371,-300.6667 272.2038,-303.5 269.3704,-303.5"/>
<text text-anchor="middle" x="248.0371" y="-292.3" font-family="Helvetica,sans-Serif" font-size="9.00" fill="#000000">Size.ts</text>
</a>
</g>
</g>
<!-- src/components/Keyboard.tsx&#45;&gt;src/stores/Size.ts -->
<g id="edge2" class="edge">
<title>src/components/Keyboard.tsx&#45;&gt;src/stores/Size.ts</title>
<path fill="none" stroke="#000000" d="M167.6433,-70.6913C170.2689,-72.4321 172.6483,-74.5135 174.5278,-77 229.7139,-150.0055 143.2652,-211.263 202.5278,-281 204.9735,-283.8779 207.9956,-286.1745 211.3107,-288.0055"/>
<polygon fill="#000000" stroke="#000000" points="209.9969,-291.2497 220.575,-291.8449 212.6769,-284.783 209.9969,-291.2497"/>
</g>
<!-- src/stores/Synth.ts -->
<g id="node15" class="node">
<title>src/stores/Synth.ts</title>
<g id="a_node15"><a xlink:href="src/stores/Synth.ts" xlink:title="Synth.ts">
<path fill="#ffffcc" stroke="#000000" d="M269.3704,-245.5C269.3704,-245.5 226.7038,-245.5 226.7038,-245.5 223.8704,-245.5 221.0371,-242.6667 221.0371,-239.8333 221.0371,-239.8333 221.0371,-234.1667 221.0371,-234.1667 221.0371,-231.3333 223.8704,-228.5 226.7038,-228.5 226.7038,-228.5 269.3704,-228.5 269.3704,-228.5 272.2038,-228.5 275.0371,-231.3333 275.0371,-234.1667 275.0371,-234.1667 275.0371,-239.8333 275.0371,-239.8333 275.0371,-242.6667 272.2038,-245.5 269.3704,-245.5"/>
<text text-anchor="middle" x="248.0371" y="-234.3" font-family="Helvetica,sans-Serif" font-size="9.00" fill="#000000">Synth.ts</text>
</a>
</g>
</g>
<!-- src/components/Keyboard.tsx&#45;&gt;src/stores/Synth.ts -->
<g id="edge3" class="edge">
<title>src/components/Keyboard.tsx&#45;&gt;src/stores/Synth.ts</title>
<path fill="none" stroke="#000000" d="M167.1554,-70.5993C169.9385,-72.362 172.4884,-74.4737 174.5278,-77 213.8391,-125.6957 164.1402,-165.573 202.5278,-215 205.1318,-218.3528 208.3767,-221.2241 211.9273,-223.676"/>
<polygon fill="#000000" stroke="#000000" points="210.195,-226.7173 220.6091,-228.6657 213.683,-220.6482 210.195,-226.7173"/>
</g>
<!-- src/utils/mod&#45;math.ts -->
<g id="node18" class="node">
<title>src/utils/mod&#45;math.ts</title>
<g id="a_node18"><a xlink:href="src/utils/mod-math.ts" xlink:title="mod&#45;math.ts">
<path fill="#ffffcc" stroke="#000000" d="M471.901,-129.5C471.901,-129.5 417.206,-129.5 417.206,-129.5 414.3726,-129.5 411.5393,-126.6667 411.5393,-123.8333 411.5393,-123.8333 411.5393,-118.1667 411.5393,-118.1667 411.5393,-115.3333 414.3726,-112.5 417.206,-112.5 417.206,-112.5 471.901,-112.5 471.901,-112.5 474.7343,-112.5 477.5676,-115.3333 477.5676,-118.1667 477.5676,-118.1667 477.5676,-123.8333 477.5676,-123.8333 477.5676,-126.6667 474.7343,-129.5 471.901,-129.5"/>
<text text-anchor="middle" x="444.5535" y="-118.3" font-family="Helvetica,sans-Serif" font-size="9.00" fill="#000000">mod&#45;math.ts</text>
</a>
</g>
</g>
<!-- src/components/Keyboard.tsx&#45;&gt;src/utils/mod&#45;math.ts -->
<g id="edge4" class="edge">
<title>src/components/Keyboard.tsx&#45;&gt;src/utils/mod&#45;math.ts</title>
<path fill="none" stroke="#000000" d="M164.4634,-70.5723C168.0306,-72.3952 171.5139,-74.5309 174.5278,-77 191.3145,-90.7521 183.3634,-106.8198 202.5278,-117 235.7692,-134.6579 340.9979,-129.5621 401.1905,-124.9103"/>
<polygon fill="#000000" stroke="#000000" points="401.4736,-128.3989 411.1623,-124.1119 400.9148,-121.4212 401.4736,-128.3989"/>
</g>
<!-- src/components/Layout.tsx -->
<g id="node3" class="node">
<title>src/components/Layout.tsx</title>
<g id="a_node3"><a xlink:href="src/components/Layout.tsx" xlink:title="Layout.tsx">
<path fill="#ffffcc" stroke="#000000" d="M163.1202,-186.5C163.1202,-186.5 117.4076,-186.5 117.4076,-186.5 114.5743,-186.5 111.741,-183.6667 111.741,-180.8333 111.741,-180.8333 111.741,-175.1667 111.741,-175.1667 111.741,-172.3333 114.5743,-169.5 117.4076,-169.5 117.4076,-169.5 163.1202,-169.5 163.1202,-169.5 165.9535,-169.5 168.7869,-172.3333 168.7869,-175.1667 168.7869,-175.1667 168.7869,-180.8333 168.7869,-180.8333 168.7869,-183.6667 165.9535,-186.5 163.1202,-186.5"/>
<text text-anchor="middle" x="140.2639" y="-175.3" font-family="Helvetica,sans-Serif" font-size="9.00" fill="#000000">Layout.tsx</text>
</a>
</g>
</g>
<!-- src/stores/WindowSize.ts -->
<g id="node16" class="node">
<title>src/stores/WindowSize.ts</title>
<g id="a_node16"><a xlink:href="src/stores/WindowSize.ts" xlink:title="WindowSize.ts">
<path fill="#ffffcc" stroke="#000000" d="M279.889,-361.5C279.889,-361.5 216.1852,-361.5 216.1852,-361.5 213.3519,-361.5 210.5186,-358.6667 210.5186,-355.8333 210.5186,-355.8333 210.5186,-350.1667 210.5186,-350.1667 210.5186,-347.3333 213.3519,-344.5 216.1852,-344.5 216.1852,-344.5 279.889,-344.5 279.889,-344.5 282.7223,-344.5 285.5557,-347.3333 285.5557,-350.1667 285.5557,-350.1667 285.5557,-355.8333 285.5557,-355.8333 285.5557,-358.6667 282.7223,-361.5 279.889,-361.5"/>
<text text-anchor="middle" x="248.0371" y="-350.3" font-family="Helvetica,sans-Serif" font-size="9.00" fill="#000000">WindowSize.ts</text>
</a>
</g>
</g>
<!-- src/components/Layout.tsx&#45;&gt;src/stores/WindowSize.ts -->
<g id="edge7" class="edge">
<title>src/components/Layout.tsx&#45;&gt;src/stores/WindowSize.ts</title>
<path fill="none" stroke="#000000" d="M141.0303,-186.7949C143.7174,-212.4379 154.9228,-288.1223 202.8906,-337.4196"/>
<polygon fill="#000000" stroke="#000000" points="200.6062,-340.0788 210.2379,-344.4924 205.4609,-335.0357 200.6062,-340.0788"/>
</g>
<!-- src/components/Pie.tsx -->
<g id="node4" class="node">
<title>src/components/Pie.tsx</title>
<g id="a_node4"><a xlink:href="src/components/Pie.tsx" xlink:title="Pie.tsx">
<path fill="#ffffcc" stroke="#000000" d="M161.5972,-99.5C161.5972,-99.5 118.9306,-99.5 118.9306,-99.5 116.0972,-99.5 113.2639,-96.6667 113.2639,-93.8333 113.2639,-93.8333 113.2639,-88.1667 113.2639,-88.1667 113.2639,-85.3333 116.0972,-82.5 118.9306,-82.5 118.9306,-82.5 161.5972,-82.5 161.5972,-82.5 164.4306,-82.5 167.2639,-85.3333 167.2639,-88.1667 167.2639,-88.1667 167.2639,-93.8333 167.2639,-93.8333 167.2639,-96.6667 164.4306,-99.5 161.5972,-99.5"/>
<text text-anchor="middle" x="140.2639" y="-88.3" font-family="Helvetica,sans-Serif" font-size="9.00" fill="#000000">Pie.tsx</text>
</a>
</g>
</g>
<!-- src/components/Rotatable.ts -->
<g id="node7" class="node">
<title>src/components/Rotatable.ts</title>
<g id="a_node7"><a xlink:href="src/components/Rotatable.ts" xlink:title="Rotatable.ts">
<path fill="#ffffcc" stroke="#000000" d="M274.3983,-99.5C274.3983,-99.5 221.6759,-99.5 221.6759,-99.5 218.8426,-99.5 216.0093,-96.6667 216.0093,-93.8333 216.0093,-93.8333 216.0093,-88.1667 216.0093,-88.1667 216.0093,-85.3333 218.8426,-82.5 221.6759,-82.5 221.6759,-82.5 274.3983,-82.5 274.3983,-82.5 277.2316,-82.5 280.0649,-85.3333 280.0649,-88.1667 280.0649,-88.1667 280.0649,-93.8333 280.0649,-93.8333 280.0649,-96.6667 277.2316,-99.5 274.3983,-99.5"/>
<text text-anchor="middle" x="248.0371" y="-88.3" font-family="Helvetica,sans-Serif" font-size="9.00" fill="#000000">Rotatable.ts</text>
</a>
</g>
</g>
<!-- src/components/Pie.tsx&#45;&gt;src/components/Rotatable.ts -->
<g id="edge12" class="edge">
<title>src/components/Pie.tsx&#45;&gt;src/components/Rotatable.ts</title>
<path fill="none" stroke="#000000" d="M167.4596,-91C179.0717,-91 192.8961,-91 205.7874,-91"/>
<polygon fill="#000000" stroke="#000000" points="205.8659,-94.5001 215.8658,-91 205.8658,-87.5001 205.8659,-94.5001"/>
</g>
<!-- src/components/Pie.tsx&#45;&gt;src/components/playable.tsx -->
<g id="edge13" class="edge">
<title>src/components/Pie.tsx&#45;&gt;src/components/playable.tsx</title>
<path fill="none" stroke="#000000" d="M167.4596,-83.6821C179.2861,-80.4998 193.4072,-76.7 206.5003,-73.1769"/>
<polygon fill="#000000" stroke="#000000" points="207.5102,-76.5297 216.2572,-70.5514 205.6913,-69.7701 207.5102,-76.5297"/>
</g>
<!-- src/components/Pie.tsx&#45;&gt;src/stores/Color.ts -->
<g id="edge8" class="edge">
<title>src/components/Pie.tsx&#45;&gt;src/stores/Color.ts</title>
<path fill="none" stroke="#000000" d="M167.1817,-99.5782C169.9603,-101.3445 172.5019,-103.4628 174.5278,-106 215.7546,-157.6313 158.4217,-202.8057 202.5278,-252 205.049,-254.812 208.1197,-257.0662 211.4636,-258.8721"/>
<polygon fill="#000000" stroke="#000000" points="210.1826,-262.1296 220.7631,-262.6808 212.8357,-255.6518 210.1826,-262.1296"/>
</g>
<!-- src/components/Pie.tsx&#45;&gt;src/stores/Size.ts -->
<g id="edge9" class="edge">
<title>src/components/Pie.tsx&#45;&gt;src/stores/Size.ts</title>
<path fill="none" stroke="#000000" d="M167.2581,-99.5181C170.0236,-101.2947 172.5412,-103.4319 174.5278,-106 222.7218,-168.3024 150.8568,-221.5496 202.5278,-281 205.0053,-283.8505 208.048,-286.1295 211.3752,-287.9501"/>
<polygon fill="#000000" stroke="#000000" points="210.0753,-291.1999 220.6544,-291.7767 212.744,-284.7286 210.0753,-291.1999"/>
</g>
<!-- src/components/Pie.tsx&#45;&gt;src/stores/Synth.ts -->
<g id="edge10" class="edge">
<title>src/components/Pie.tsx&#45;&gt;src/stores/Synth.ts</title>
<path fill="none" stroke="#000000" d="M167.0309,-99.7025C169.8354,-101.4474 172.4243,-103.5268 174.5278,-106 206.933,-144.1003 170.8456,-176.2965 202.5278,-215 205.2169,-218.285 208.5147,-221.114 212.0952,-223.5422"/>
<polygon fill="#000000" stroke="#000000" points="210.3877,-226.5975 220.8092,-228.5061 213.8525,-220.5152 210.3877,-226.5975"/>
</g>
<!-- src/components/Pie.tsx&#45;&gt;src/utils/mod&#45;math.ts -->
<g id="edge11" class="edge">
<title>src/components/Pie.tsx&#45;&gt;src/utils/mod&#45;math.ts</title>
<path fill="none" stroke="#000000" d="M162.5477,-99.5274C166.6527,-101.4378 170.8121,-103.6144 174.5278,-106 188.5665,-115.0132 186.9405,-125.054 202.5278,-131 269.8414,-156.6778 355.448,-143.5104 404.7196,-131.9887"/>
<polygon fill="#000000" stroke="#000000" points="405.7733,-135.3346 414.6624,-129.5697 404.1185,-128.533 405.7733,-135.3346"/>
</g>
<!-- src/components/Playable.tsx -->
<g id="node5" class="node">
<title>src/components/Playable.tsx</title>
<g id="a_node5"><a xlink:href="src/components/Playable.tsx" xlink:title="Playable.tsx">
<path fill="#ffffcc" stroke="#000000" d="M166.6234,-128.5C166.6234,-128.5 113.9044,-128.5 113.9044,-128.5 111.0711,-128.5 108.2378,-125.6667 108.2378,-122.8333 108.2378,-122.8333 108.2378,-117.1667 108.2378,-117.1667 108.2378,-114.3333 111.0711,-111.5 113.9044,-111.5 113.9044,-111.5 166.6234,-111.5 166.6234,-111.5 169.4567,-111.5 172.2901,-114.3333 172.2901,-117.1667 172.2901,-117.1667 172.2901,-122.8333 172.2901,-122.8333 172.2901,-125.6667 169.4567,-128.5 166.6234,-128.5"/>
<text text-anchor="middle" x="140.2639" y="-117.3" font-family="Helvetica,sans-Serif" font-size="9.00" fill="#000000">Playable.tsx</text>
</a>
</g>
</g>
<!-- src/components/Playable.tsx&#45;&gt;src/stores/Synth.ts -->
<g id="edge14" class="edge">
<title>src/components/Playable.tsx&#45;&gt;src/stores/Synth.ts</title>
<path fill="none" stroke="#000000" d="M166.4884,-128.6767C169.456,-130.434 172.2325,-132.5234 174.5278,-135 200.1341,-162.6294 177.4462,-186.8935 202.5278,-215 205.4201,-218.2411 208.8954,-221.0513 212.6201,-223.4762"/>
<polygon fill="#000000" stroke="#000000" points="211.1634,-226.6704 221.6067,-228.456 214.5563,-220.5476 211.1634,-226.6704"/>
</g>
<!-- src/components/Presets.tsx -->
<g id="node6" class="node">
<title>src/components/Presets.tsx</title>
<g id="a_node6"><a xlink:href="src/components/Presets.tsx" xlink:title="Presets.tsx">
<path fill="#ffffcc" stroke="#000000" d="M164.6114,-157.5C164.6114,-157.5 115.9164,-157.5 115.9164,-157.5 113.0831,-157.5 110.2498,-154.6667 110.2498,-151.8333 110.2498,-151.8333 110.2498,-146.1667 110.2498,-146.1667 110.2498,-143.3333 113.0831,-140.5 115.9164,-140.5 115.9164,-140.5 164.6114,-140.5 164.6114,-140.5 167.4447,-140.5 170.2781,-143.3333 170.2781,-146.1667 170.2781,-146.1667 170.2781,-151.8333 170.2781,-151.8333 170.2781,-154.6667 167.4447,-157.5 164.6114,-157.5"/>
<text text-anchor="middle" x="140.2639" y="-146.3" font-family="Helvetica,sans-Serif" font-size="9.00" fill="#000000">Presets.tsx</text>
</a>
</g>
</g>
<!-- src/stores/App.ts -->
<g id="node11" class="node">
<title>src/stores/App.ts</title>
<g id="a_node11"><a xlink:href="src/stores/App.ts" xlink:title="App.ts">
<path fill="#ffffcc" stroke="#000000" d="M269.3704,-332.5C269.3704,-332.5 226.7038,-332.5 226.7038,-332.5 223.8704,-332.5 221.0371,-329.6667 221.0371,-326.8333 221.0371,-326.8333 221.0371,-321.1667 221.0371,-321.1667 221.0371,-318.3333 223.8704,-315.5 226.7038,-315.5 226.7038,-315.5 269.3704,-315.5 269.3704,-315.5 272.2038,-315.5 275.0371,-318.3333 275.0371,-321.1667 275.0371,-321.1667 275.0371,-326.8333 275.0371,-326.8333 275.0371,-329.6667 272.2038,-332.5 269.3704,-332.5"/>
<text text-anchor="middle" x="248.0371" y="-321.3" font-family="Helvetica,sans-Serif" font-size="9.00" fill="#000000">App.ts</text>
</a>
</g>
</g>
<!-- src/components/Presets.tsx&#45;&gt;src/stores/App.ts -->
<g id="edge15" class="edge">
<title>src/components/Presets.tsx&#45;&gt;src/stores/App.ts</title>
<path fill="none" stroke="#000000" d="M167.1817,-157.5782C169.9603,-159.3445 172.5019,-161.4628 174.5278,-164 215.7546,-215.6313 158.4217,-260.8057 202.5278,-310 205.049,-312.812 208.1197,-315.0662 211.4636,-316.8721"/>
<polygon fill="#000000" stroke="#000000" points="210.1826,-320.1296 220.7631,-320.6808 212.8357,-313.6518 210.1826,-320.1296"/>
</g>
<!-- src/components/Presets.tsx&#45;&gt;src/stores/Color.ts -->
<g id="edge16" class="edge">
<title>src/components/Presets.tsx&#45;&gt;src/stores/Color.ts</title>
<path fill="none" stroke="#000000" d="M166.5564,-157.6146C169.5129,-159.382 172.2682,-161.4908 174.5278,-164 201.993,-194.4993 173.3668,-223.1179 202.5278,-252 205.0717,-254.5195 208.0574,-256.5872 211.2627,-258.2839"/>
<polygon fill="#000000" stroke="#000000" points="210.1126,-261.595 220.6929,-262.15 212.768,-255.1182 210.1126,-261.595"/>
</g>
<!-- src/components/Presets.tsx&#45;&gt;src/stores/Size.ts -->
<g id="edge17" class="edge">
<title>src/components/Presets.tsx&#45;&gt;src/stores/Size.ts</title>
<path fill="none" stroke="#000000" d="M167.0708,-157.6688C169.8684,-159.4195 172.4448,-161.5094 174.5278,-164 208.8308,-205.0143 165.9401,-242.0102 202.5278,-281 205.1122,-283.754 208.2236,-285.9709 211.5916,-287.7547"/>
<polygon fill="#000000" stroke="#000000" points="210.3381,-291.0232 220.9205,-291.5364 212.9679,-284.5359 210.3381,-291.0232"/>
</g>
<!-- src/utils/coords.ts -->
<g id="node17" class="node">
<title>src/utils/coords.ts</title>
<g id="a_node17"><a xlink:href="src/utils/coords.ts" xlink:title="coords.ts">
<path fill="#ffffcc" stroke="#000000" d="M465.8868,-100.5C465.8868,-100.5 423.2201,-100.5 423.2201,-100.5 420.3868,-100.5 417.5535,-97.6667 417.5535,-94.8333 417.5535,-94.8333 417.5535,-89.1667 417.5535,-89.1667 417.5535,-86.3333 420.3868,-83.5 423.2201,-83.5 423.2201,-83.5 465.8868,-83.5 465.8868,-83.5 468.7201,-83.5 471.5535,-86.3333 471.5535,-89.1667 471.5535,-89.1667 471.5535,-94.8333 471.5535,-94.8333 471.5535,-97.6667 468.7201,-100.5 465.8868,-100.5"/>
<text text-anchor="middle" x="444.5535" y="-89.3" font-family="Helvetica,sans-Serif" font-size="9.00" fill="#000000">coords.ts</text>
</a>
</g>
</g>
<!-- src/components/Rotatable.ts&#45;&gt;src/utils/coords.ts -->
<g id="edge18" class="edge">
<title>src/components/Rotatable.ts&#45;&gt;src/utils/coords.ts</title>
<path fill="none" stroke="#000000" d="M280.4878,-91.1651C315.3145,-91.3424 370.5546,-91.6234 407.1753,-91.8098"/>
<polygon fill="#000000" stroke="#000000" points="407.4205,-95.311 417.4383,-91.862 407.4562,-88.3111 407.4205,-95.311"/>
</g>
<!-- src/components/Rotatable.ts&#45;&gt;src/utils/mod&#45;math.ts -->
<g id="edge19" class="edge">
<title>src/components/Rotatable.ts&#45;&gt;src/utils/mod&#45;math.ts</title>
<path fill="none" stroke="#000000" d="M280.1542,-94.6957C307.6641,-97.9975 348.3031,-103.1989 383.5464,-109 389.3463,-109.9547 395.439,-111.0461 401.4376,-112.173"/>
<polygon fill="#000000" stroke="#000000" points="400.8945,-115.6326 411.3757,-114.085 402.2171,-108.7587 400.8945,-115.6326"/>
</g>
<!-- src/components/keyboard.tsx -->
<g id="node8" class="node">
<title>src/components/keyboard.tsx</title>
<g id="a_node8"><a xlink:href="src/components/keyboard.tsx" xlink:title="keyboard.tsx">
<path fill="#ffffcc" stroke="#000000" d="M168.1222,-41.5C168.1222,-41.5 112.4057,-41.5 112.4057,-41.5 109.5723,-41.5 106.739,-38.6667 106.739,-35.8333 106.739,-35.8333 106.739,-30.1667 106.739,-30.1667 106.739,-27.3333 109.5723,-24.5 112.4057,-24.5 112.4057,-24.5 168.1222,-24.5 168.1222,-24.5 170.9555,-24.5 173.7888,-27.3333 173.7888,-30.1667 173.7888,-30.1667 173.7888,-35.8333 173.7888,-35.8333 173.7888,-38.6667 170.9555,-41.5 168.1222,-41.5"/>
<text text-anchor="middle" x="140.2639" y="-30.3" font-family="Helvetica,sans-Serif" font-size="9.00" fill="#000000">keyboard.tsx</text>
</a>
</g>
</g>
<!-- src/components/keyboard.tsx&#45;&gt;src/components/Draggable.ts -->
<g id="edge24" class="edge">
<title>src/components/keyboard.tsx&#45;&gt;src/components/Draggable.ts</title>
<path fill="none" stroke="#000000" d="M174.0683,-33C183.5981,-33 194.1057,-33 204.1351,-33"/>
<polygon fill="#000000" stroke="#000000" points="204.3527,-36.5001 214.3526,-33 204.3526,-29.5001 204.3527,-36.5001"/>
</g>
<!-- src/components/keyboard.tsx&#45;&gt;src/components/playable.tsx -->
<g id="edge25" class="edge">
<title>src/components/keyboard.tsx&#45;&gt;src/components/playable.tsx</title>
<path fill="none" stroke="#000000" d="M172.0165,-41.5441C182.7737,-44.4387 194.9553,-47.7166 206.3656,-50.7869"/>
<polygon fill="#000000" stroke="#000000" points="205.573,-54.198 216.139,-53.4168 207.392,-47.4385 205.573,-54.198"/>
</g>
<!-- src/components/keyboard.tsx&#45;&gt;src/stores/Color.ts -->
<g id="edge20" class="edge">
<title>src/components/keyboard.tsx&#45;&gt;src/stores/Color.ts</title>
<path fill="none" stroke="#000000" d="M167.6433,-41.6913C170.2689,-43.4321 172.6483,-45.5135 174.5278,-48 229.7139,-121.0055 143.2652,-182.263 202.5278,-252 204.9735,-254.8779 207.9956,-257.1745 211.3107,-259.0055"/>
<polygon fill="#000000" stroke="#000000" points="209.9969,-262.2497 220.575,-262.8449 212.6769,-255.783 209.9969,-262.2497"/>
</g>
<!-- src/components/keyboard.tsx&#45;&gt;src/stores/Size.ts -->
<g id="edge21" class="edge">
<title>src/components/keyboard.tsx&#45;&gt;src/stores/Size.ts</title>
<path fill="none" stroke="#000000" d="M167.6848,-41.6602C170.303,-43.4066 172.6692,-45.4978 174.5278,-48 236.7215,-131.7291 135.6571,-200.9568 202.5278,-281 205.0055,-283.9657 208.0959,-286.3152 211.4927,-288.1745"/>
<polygon fill="#000000" stroke="#000000" points="210.4074,-291.5115 220.9891,-292.0382 213.0454,-285.0276 210.4074,-291.5115"/>
</g>
<!-- src/components/keyboard.tsx&#45;&gt;src/stores/Synth.ts -->
<g id="edge22" class="edge">
<title>src/components/keyboard.tsx&#45;&gt;src/stores/Synth.ts</title>
<path fill="none" stroke="#000000" d="M167.2395,-41.5326C170.0082,-43.3067 172.5317,-45.4393 174.5278,-48 220.7968,-107.3547 157.3843,-154.7848 202.5278,-215 205.1335,-218.4757 208.4331,-221.4298 212.0607,-223.934"/>
<polygon fill="#000000" stroke="#000000" points="210.5266,-227.0881 220.9484,-228.9948 213.9903,-221.0051 210.5266,-227.0881"/>
</g>
<!-- src/components/keyboard.tsx&#45;&gt;src/utils/mod&#45;math.ts -->
<g id="edge23" class="edge">
<title>src/components/keyboard.tsx&#45;&gt;src/utils/mod&#45;math.ts</title>
<path fill="none" stroke="#000000" d="M165.5316,-41.5406C168.7966,-43.3397 171.9092,-45.4768 174.5278,-48 195.1405,-67.8614 178.766,-90.0396 202.5278,-106 218.5421,-116.7565 335.6997,-119.7995 400.9537,-120.6604"/>
<polygon fill="#000000" stroke="#000000" points="401.3015,-124.1647 411.3428,-120.7848 401.3854,-117.1652 401.3015,-124.1647"/>
</g>
<!-- src/components/playable.tsx&#45;&gt;src/stores/Synth.ts -->
<g id="edge26" class="edge">
<title>src/components/playable.tsx&#45;&gt;src/stores/Synth.ts</title>
<path fill="none" stroke="#000000" d="M216.4992,-65.6098C207.3752,-68.3315 198.4642,-73.0083 193.1945,-81 185.243,-93.0588 185.4723,-198.793 193.1945,-211 197.5515,-217.8874 204.2817,-222.9863 211.5535,-226.7488"/>
<polygon fill="#000000" stroke="#000000" points="210.3509,-230.0427 220.9162,-230.8339 213.1503,-223.6268 210.3509,-230.0427"/>
<path fill="none" stroke="#000000" d="M216.2185,-65.3042C203.8848,-68.3561 191.0281,-74.1311 183.8612,-85 176.399,-96.3167 176.5832,-195.5639 183.8612,-207 190.1941,-216.9512 200.7891,-223.6568 211.5639,-228.1519"/>
<polygon fill="#000000" stroke="#000000" points="210.3821,-231.4463 220.9764,-231.5592 212.7649,-224.8643 210.3821,-231.4463"/>
</g>
<!-- src/index.tsx -->
<g id="node10" class="node">
<title>src/index.tsx</title>
<g id="a_node10"><a xlink:href="src/index.tsx" xlink:title="index.tsx">
<path fill="#ffffcc" stroke="#000000" d="M64.3333,-142.5C64.3333,-142.5 21.6667,-142.5 21.6667,-142.5 18.8333,-142.5 16,-139.6667 16,-136.8333 16,-136.8333 16,-131.1667 16,-131.1667 16,-128.3333 18.8333,-125.5 21.6667,-125.5 21.6667,-125.5 64.3333,-125.5 64.3333,-125.5 67.1667,-125.5 70,-128.3333 70,-131.1667 70,-131.1667 70,-136.8333 70,-136.8333 70,-139.6667 67.1667,-142.5 64.3333,-142.5"/>
<text text-anchor="middle" x="43" y="-131.3" font-family="Helvetica,sans-Serif" font-size="9.00" fill="#000000">index.tsx</text>
</a>
</g>
</g>
<!-- src/index.tsx&#45;&gt;src/components/Layout.tsx -->
<g id="edge27" class="edge">
<title>src/index.tsx&#45;&gt;src/components/Layout.tsx</title>
<path fill="none" stroke="#000000" d="M57.1209,-142.6204C68.0267,-149.0499 83.6332,-157.7624 98,-164 99.3737,-164.5964 100.7816,-165.1828 102.2106,-165.7571"/>
<polygon fill="#000000" stroke="#000000" points="101.2173,-169.1225 111.8096,-169.3539 103.6735,-162.5676 101.2173,-169.1225"/>
</g>
<!-- src/index.tsx&#45;&gt;src/components/Pie.tsx -->
<g id="edge28" class="edge">
<title>src/index.tsx&#45;&gt;src/components/Pie.tsx</title>
<path fill="none" stroke="#000000" d="M58.6252,-125.3592C69.4944,-119.5196 84.4154,-111.8393 98,-106 100.3158,-105.0046 102.7218,-104.021 105.1582,-103.0622"/>
<polygon fill="#000000" stroke="#000000" points="106.454,-106.3143 114.5789,-99.5145 103.987,-99.7634 106.454,-106.3143"/>
</g>
<!-- src/index.tsx&#45;&gt;src/components/keyboard.tsx -->
<g id="edge29" class="edge">
<title>src/index.tsx&#45;&gt;src/components/keyboard.tsx</title>
<path fill="none" stroke="#000000" d="M46.2713,-125.3404C53.1934,-108.1444 70.9422,-69.4996 98,-48 98.5943,-47.5277 99.2047,-47.0697 99.8291,-46.6255"/>
<polygon fill="#000000" stroke="#000000" points="101.6425,-49.6201 108.5616,-41.5965 98.1492,-43.554 101.6425,-49.6201"/>
</g>
<!-- src/index.tsx&#45;&gt;src/stores/App.ts -->
<g id="edge30" class="edge">
<title>src/index.tsx&#45;&gt;src/stores/App.ts</title>
<path fill="none" stroke="#000000" d="M47.861,-142.512C56.7883,-157.8054 76.8308,-190.6094 98,-215 139.1486,-262.4104 147.9884,-278.913 202.5278,-310 205.2411,-311.5466 208.1448,-312.9416 211.1235,-314.196"/>
<polygon fill="#000000" stroke="#000000" points="210.1588,-317.5704 220.7523,-317.738 212.5755,-311.0008 210.1588,-317.5704"/>
</g>
<!-- src/stores/Scale.ts -->
<g id="node13" class="node">
<title>src/stores/Scale.ts</title>
<g id="a_node13"><a xlink:href="src/stores/Scale.ts" xlink:title="Scale.ts">
<path fill="#ffffcc" stroke="#000000" d="M369.8797,-288.5C369.8797,-288.5 327.2131,-288.5 327.2131,-288.5 324.3797,-288.5 321.5464,-285.6667 321.5464,-282.8333 321.5464,-282.8333 321.5464,-277.1667 321.5464,-277.1667 321.5464,-274.3333 324.3797,-271.5 327.2131,-271.5 327.2131,-271.5 369.8797,-271.5 369.8797,-271.5 372.7131,-271.5 375.5464,-274.3333 375.5464,-277.1667 375.5464,-277.1667 375.5464,-282.8333 375.5464,-282.8333 375.5464,-285.6667 372.7131,-288.5 369.8797,-288.5"/>
<text text-anchor="middle" x="348.5464" y="-277.3" font-family="Helvetica,sans-Serif" font-size="9.00" fill="#000000">Scale.ts</text>
</a>
</g>
</g>
<!-- src/stores/App.ts&#45;&gt;src/stores/Scale.ts -->
<g id="edge31" class="edge">
<title>src/stores/App.ts&#45;&gt;src/stores/Scale.ts</title>
<path fill="none" stroke="#000000" d="M275.0486,-315.5259C279.9227,-313.8176 284.9237,-311.945 289.5518,-310 301.2304,-305.0919 313.7918,-298.8472 324.3094,-293.3274"/>
<polygon fill="#000000" stroke="#000000" points="326.1376,-296.319 333.31,-288.5211 322.8402,-290.1442 326.1376,-296.319"/>
</g>
<!-- src/stores/Scale.ts&#45;&gt;src/utils/mod&#45;math.ts -->
<g id="edge32" class="edge">
<title>src/stores/Scale.ts&#45;&gt;src/utils/mod&#45;math.ts</title>
<path fill="none" stroke="#000000" d="M353.7081,-271.4515C368.8804,-246.3242 413.553,-172.3408 434.0535,-138.3893"/>
<polygon fill="#000000" stroke="#000000" points="437.1933,-139.9604 439.3662,-129.5908 431.201,-136.3421 437.1933,-139.9604"/>
</g>
</g>
</svg>
